<?xml version="1.0" encoding="UTF-8"?>
<svg width="160px" height="170px" viewBox="0 0 160 170" version="1.1" xmlns="http://www.w3.org/2000/svg" xmlns:xlink="http://www.w3.org/1999/xlink">
    <!-- Generator: Sketch 63.1 (92452) - https://sketch.com -->
    <title>1Asset 7</title>
    <desc>Created with Sketch.</desc>
    <g id="Home-&amp;-Utility-Pages" stroke="none" stroke-width="1" fill="none" fill-rule="evenodd">
        <g id="Homepage-2" transform="translate(-1170.000000, -2088.000000)" fill="#8BA48A" fill-rule="nonzero">
            <g id="1Asset-7" transform="translate(1170.000000, 2088.000000)">
                <path d="M13.4091904,167.170909 C13.2341357,166.428182 12.6389497,164.683636 11.9387309,162.610909 C10.5207877,162.092727 9.05032823,161.488182 7.89496718,160.987273 C6.73960613,160.486364 5.25164114,159.899091 3.92122538,159.190909 C3.23851204,160.641818 2.64332604,161.850909 2.39824945,162.455455 C1.43544858,161.989091 0.962800875,161.660909 0,161.090909 C1.55798687,158.638182 5.54923414,150.727273 6.33698031,149 C7.61487965,149.587273 8.24507659,149.863636 9.50547046,150.364545 C10.5032823,152.955455 14.2844639,163.716364 16,168 C14.9671772,167.706364 14.4420131,167.550909 13.4091904,167.170909 Z M6.56455142,153.732727 C5.9868709,154.976364 5.26914661,156.461818 4.56892779,157.878182 C5.70678337,158.465455 7.01969365,159.07 7.89496718,159.45 C8.7702407,159.83 10.1356674,160.382727 11.2910284,160.78 C10.6083151,158.724545 9.85557987,156.513636 9.26039387,154.769091 C8.66520788,153.024545 8.19256018,151.66 7.91247265,150.779091 C7.64989059,151.400909 7.24726477,152.316364 6.56455142,153.732727 Z" id="Shape"></path>
                <path d="M37.8205128,169.964097 C37.9251282,166.553326 37.9251282,163.717001 37.9425641,160.001056 C37.9425641,158.708553 37.9425641,157.290391 38.0471795,155.997888 L37.9425641,155.997888 C37.5294023,157.296625 37.0522018,158.572833 36.5128205,159.821542 C34.7692308,163.95037 33.7928205,165.978881 31.9794872,170 L30.9507692,170 C29.12,165.727561 28.1958974,163.57339 26.3651282,159.229145 C25.8071795,157.972545 25.3189744,156.590285 24.9005128,155.369588 L24.7958974,155.369588 C24.7958974,156.823654 24.9179487,158.475185 24.9179487,159.839493 C24.9179487,163.627244 24.9179487,165.978881 25.0225641,169.461457 C24.2030769,169.353749 23.8020513,169.299894 23,169.156283 C23,166.840549 23,164.488912 23,161.078141 C23,157.667371 23,155.118268 23,153 C24.1158974,153.197466 24.7435897,153.287223 25.7897436,153.430834 C26.5220513,155.028511 28.4051282,159.588173 30.2358974,163.717001 C30.6194872,164.632524 31.1425641,165.942978 31.5610256,167.091869 L31.6482051,167.091869 C32.0666667,166.032735 32.5548718,164.901795 33.0082051,163.896515 C34.7517949,159.92925 36.6523077,155.602957 37.4020513,153.915523 C38.4482051,153.915523 38.9538462,153.915523 40,153.771911 C40,155.89018 40,158.295671 40,161.832101 C40,165.368532 40,167.594509 40,169.928194 L37.8205128,169.964097 Z" id="Path"></path>
                <path d="M59.9464286,150.815815 C59.9464286,151.128255 59.9464286,151.579556 59.9464286,151.78785 C56.5,152.586307 52.8035714,153.297975 50.1607143,153.766635 L50.1607143,158.939248 C53.4821429,158.366442 57,157.620058 59.7857143,156.925747 C59.7857143,157.342334 59.7857143,158.279653 59.7857143,158.661524 C57.0714286,159.269045 53.4821429,160.015429 50.1964286,160.570878 L50.1964286,165.778206 C52.9464286,165.326905 56.6428571,164.545805 60,163.695275 C60,163.955641 60,164.372228 60,164.702025 L60,165.621986 C55.1964286,166.750241 52.8571429,167.357763 48,168 C48,166.055931 48,163.504339 48,160.171649 C48,156.838959 48,154.148505 48,152.378014 C52.0393001,151.785862 56.0445917,150.992142 60,150 L59.9464286,150.815815 Z" id="Path"></path>
                <path d="M81,145 C81,146.782531 81,149.59893 81,153.003565 C81,156.4082 81,158.921569 81,161.042781 L78.7931034,161.720143 C77.8793103,160.365419 74.4137931,156.372549 71.6724138,153.235294 C71.0371701,152.406107 70.4609452,151.530368 69.9482759,150.614973 L69.9482759,150.614973 C69.9482759,151.898396 70.0689655,153.199643 70.0862069,154.358289 C70.0862069,159.438503 70.0862069,163.003565 70.0862069,164.376114 L68,165 C68,162.914439 68,160.40107 68,156.97861 C68,153.55615 68,150.864528 68,148.975045 L70.6034483,148.190731 C71.3793103,149.331551 75.0689655,153.449198 77.5,156.44385 C78.1144316,157.202489 78.6571413,158.020248 79.1206897,158.885918 L79.1206897,158.885918 C79.0172414,157.709447 78.9655172,156.515152 78.9655172,155.320856 C78.9655172,151.524064 78.9655172,147.174688 78.8275862,145.588235 L81,145 Z" id="Path"></path>
                <path d="M89,158 C89,155.641409 89,153.300961 89,149.817503 C89,146.334045 89,143.993597 89,141.671291 L91,141 C90.9224806,143.340448 91,145.662753 91,149.182497 C91,152.702241 91,154.970117 91,157.328709 L89,158 Z" id="Path"></path>
                <path d="M111,137 L111,138.858018 C109.15864,139.118488 107.31728,139.448417 105.67847,139.743616 C105.67847,145.942799 105.67847,152.159346 105.67847,153.531154 C105.328612,153.531154 104.831445,153.670072 104.481586,153.73953 L103.339943,154 C103.339943,152.628192 103.339943,146.411645 103.339943,140.212462 C101.774788,140.54239 99.9150142,140.976507 98,141.480082 L98,139.622063 C102.282468,138.537146 106.621604,137.661954 111,137 L111,137 Z" id="Path"></path>
                <path d="M118,152 C118,149.716795 118,147.468716 118,144.096597 C118,140.724479 118,138.441273 118,136.193194 L120,136 C120,138.230516 120,140.478595 120,143.903403 C120,147.328211 120,149.506037 120,151.789243 L118,152 Z" id="Path"></path>
                <path d="M139.946429,138.21209 C139.946429,138.525615 139.946429,138.995902 139.946429,139.204918 C136.721139,138.546244 133.450305,138.121245 130.160714,137.933402 L130.160714,143.036885 C133.390803,143.230305 136.605378,143.620065 139.785714,144.203893 C139.785714,144.604508 139.785714,145.545082 139.785714,145.945697 C136.626439,145.288229 133.420991,144.863194 130.196429,144.67418 L130.196429,149.89959 C133.485775,150.091632 136.759847,150.481375 140,151.066598 C140,151.310451 140,151.745902 140,152.076844 L140,153 C136.059653,152.141584 132.037286,151.692021 128,151.658811 C128,149.72541 128,147.182377 128,143.838115 C128,140.493852 128,137.776639 128,136 C132.036668,136.02723 136.059055,136.470956 140,137.32377 L139.946429,138.21209 Z" id="Path"></path>
                <path d="M157.969752,154.642885 C157.969752,153.064208 156.97213,151.502505 153.104158,149.312727 C148.763629,146.834373 147.363458,145.10292 147.363458,142.624567 C147.363458,140.146213 149.463714,139.093761 153.419197,140.927064 C157.759727,142.845242 159.614953,145.697046 159.614953,148.447001 C159.614953,148.854401 159.614953,149.109027 159.614953,149.516427 L158.634833,148.922301 C158.249786,148.718601 157.847237,148.531876 157.619709,148.396075 C157.392182,148.260275 157.619709,147.767999 157.619709,147.530349 C157.619709,145.832847 156.377058,143.948619 153.296682,142.556667 C150.671361,141.38539 149.393705,141.75884 149.393705,143.354493 C149.393705,144.644595 150.041284,145.747971 154.014269,148.090525 C158.407306,150.721654 160,153.183033 160,155.729287 C160,158.275541 157.882242,158.733866 153.716733,156.832663 C149.113671,154.744735 147.013415,152.605882 147.013415,149.686177 C146.995528,149.358223 146.995528,149.02958 147.013415,148.701626 C147.338321,148.849415 147.671365,148.979753 148.011037,149.092052 L149.131173,149.448527 C149.131173,149.669202 149.131173,149.906853 149.131173,150.059628 C149.131173,152.181506 150.566349,153.692284 153.716733,155.152136 C156.867118,156.611988 157.969752,156.323413 157.969752,154.642885 Z" id="Path"></path>
                <path d="M13.4091904,133.136364 C13.2341357,132.393636 12.6389497,130.649091 11.9387309,128.576364 C10.5207877,128.058182 9.05032823,127.453636 7.89496718,126.952727 C6.73960613,126.451818 5.25164114,125.812727 3.92122538,125.104545 C3.23851204,126.555455 2.64332604,127.764545 2.39824945,128.369091 C1.43544858,127.850909 0.962800875,127.574545 0,127.090909 C1.55798687,124.638182 5.54923414,116.727273 6.33698031,115 C7.61487965,115.587273 8.24507659,115.846364 9.50547046,116.364545 C10.5032823,118.869091 14.2844639,129.699091 16,134 C14.9671772,133.62 14.4420131,133.464545 13.4091904,133.136364 Z M6.56455142,119.646364 C5.9868709,120.89 5.26914661,122.375455 4.56892779,123.791818 C5.70678337,124.379091 7.01969365,124.966364 7.89496718,125.346364 C8.7702407,125.726364 10.1356674,126.279091 11.2910284,126.676364 C10.6083151,124.638182 9.85557987,122.427273 9.26039387,120.682727 C8.66520788,118.938182 8.19256018,117.573636 7.91247265,116.675455 C7.64989059,117.314545 7.24726477,118.212727 6.56455142,119.646364 Z" id="Shape"></path>
                <path d="M37.8902564,135.946203 C37.9948718,132.556962 37.9948718,129.723629 38.0123077,126.011603 C38.0123077,124.720464 38.0123077,123.303797 38.1169231,122.012658 L38.0123077,122.012658 C37.6021086,123.305249 37.1248429,124.574298 36.5825641,125.814346 C34.8389744,129.938819 33.8625641,131.983122 32.0492308,136 L31.0205128,136 C29.1897436,131.75 28.265641,129.598101 26.4348718,125.240506 C25.8769231,124.003165 25.3887179,122.622363 24.9702564,121.402954 L24.865641,121.402954 C24.865641,122.855485 24.9876923,124.505274 24.9876923,125.850211 C25.0225641,129.526371 25.0225641,131.857595 25.0225641,135.444093 C24.2030769,135.336498 23.8020513,135.264768 23,135.121308 C23,132.825949 23,130.476793 23,127.051688 C23,123.626582 23,121.116034 23,119 C24.1158974,119.197257 24.7435897,119.28692 25.7897436,119.43038 C26.5220513,121.026371 28.4051282,125.581224 30.2358974,129.705696 C30.6194872,130.620253 31.1425641,131.929325 31.5610256,133.059072 L31.6482051,133.059072 C32.0666667,132.001055 32.5548718,130.871308 33.0082051,129.867089 C34.7517949,125.904008 36.6523077,121.582278 37.4020513,119.896624 C38.4482051,119.896624 38.9538462,119.896624 40,119.753165 C40,121.869198 40,124.272152 40,127.804852 C40,131.337553 40,133.561181 40,135.874473 C39.2153846,135.892405 38.7794872,135.910338 37.8902564,135.946203 Z" id="Path"></path>
                <path d="M59.9464286,117.867888 C59.9464286,118.180328 59.9464286,118.648987 59.9464286,118.857281 C56.5,119.655738 52.8035714,120.367406 50.1607143,120.836066 L50.1607143,125.939248 C53.4821429,125.366442 57,124.620058 59.7857143,123.925747 C59.7857143,124.342334 59.7857143,125.279653 59.7857143,125.661524 C57.0714286,126.251688 53.4821429,127.015429 50.1964286,127.570878 L50.1964286,132.778206 C52.9464286,132.309547 56.6428571,131.545805 60,130.695275 C60,130.955641 60,131.372228 60,131.702025 L60,132.621986 C55.1964286,133.750241 52.8571429,134.253616 48,135 C48,133.038573 48,130.504339 48,127.171649 C48,123.838959 48,121.131148 48,119.378014 C52.0393001,118.785862 56.0445917,117.992142 60,117 L59.9464286,117.867888 Z" id="Path"></path>
                <path d="M81,111 C81,112.869991 81,115.612645 81,119.014248 C81,122.41585 81,124.926981 81,127.028495 L78.7931034,127.723063 C77.8793103,126.369546 74.4137931,122.380232 71.6724138,119.24577 C71.0371701,118.417322 70.4609452,117.542363 69.9482759,116.627783 L69.9482759,116.627783 C69.9482759,117.910062 70.0689655,119.210151 70.0862069,120.367765 C70.0862069,125.443455 70.0862069,128.987533 70.0862069,130.35886 L68,131 C68,128.916296 68,126.387355 68,122.967943 C68,119.548531 68,116.859305 68,114.971505 L70.6034483,114.205699 C71.3793103,115.345503 75.0689655,119.459484 77.5,122.451469 C78.1104096,123.206244 78.6528875,124.016964 79.1206897,124.873553 L79.1206897,124.873553 C79.0172414,123.680321 78.9655172,122.504898 78.9655172,121.311665 C78.9655172,117.518255 78.9655172,113.172752 78.8275862,111.587711 L81,111 Z" id="Path"></path>
                <path d="M89,124 C89,121.615632 89,119.285867 89,115.791221 C89,112.296574 89,109.948608 89,107.618844 L91,107 C90.9224806,109.347966 91,111.659529 91,115.208779 C91,118.75803 91,121.014989 91,123.381156 L89,124 Z" id="Path"></path>
                <path d="M111,103 L111,104.888889 C109.15864,105.148828 107.31728,105.460754 105.67847,105.772681 C105.67847,111.941896 105.67847,118.163099 105.67847,119.514781 L104.481586,119.740061 L103.339943,120 C103.339943,118.630989 103.339943,112.427115 103.339943,106.223242 C101.774788,106.552497 99.9150142,107.003058 98,107.488277 L98,105.599388 C103.284703,104.369011 105.936261,103.814475 111,103 Z" id="Path"></path>
                <path d="M118,117 C118,114.719298 118,112.45614 118,109.105263 C118,105.754386 118,103.45614 118,101.210526 L120,101 C120,103.245614 120,105.491228 120,108.894737 C120,112.298246 120,114.491228 120,116.789474 C119.2,116.859649 118.8,116.894737 118,117 Z" id="Path"></path>
                <path d="M139.946429,103.214359 C139.946429,103.528205 139.946429,103.981538 139.946429,104.208205 C136.719899,103.552582 133.449777,103.121413 130.160714,102.917949 L130.160714,108.044103 C133.389588,108.240908 136.603604,108.625177 139.785714,109.194872 C139.785714,109.613333 139.785714,110.554872 139.785714,110.938462 C136.624426,110.295027 133.419653,109.875473 130.196429,109.683077 L130.196429,114.913846 C133.486574,115.097431 136.761203,115.487639 140,116.082051 C140,116.326154 140,116.744615 140,117.093333 L140,118 C136.059055,117.146311 132.036668,116.702129 128,116.674872 C128,114.739487 128,112.17641 128,108.846154 C128,105.515897 128,102.778462 128,101 C132.037194,101.018602 136.060523,101.462888 140,102.325128 L139.946429,103.214359 Z" id="Path"></path>
                <path d="M157.969647,120.642885 C157.969647,119.064208 156.971973,117.502505 153.103801,115.295752 C148.763046,112.834373 147.362803,111.10292 147.362803,108.624567 C147.362803,106.146213 149.463168,105.093761 153.418856,106.927064 C157.75961,108.845242 159.614933,111.697046 159.614933,114.447001 C159.614933,114.854401 159.614933,115.109027 159.614933,115.499452 C159.352387,115.363652 159.002327,115.142977 158.634763,114.922301 L157.619586,114.396075 C157.619586,114.1075 157.619586,113.751024 157.619586,113.530349 C157.619586,111.832847 156.37687,109.931644 153.296334,108.556667 C150.670878,107.38539 149.393156,107.75884 149.393156,109.337518 C149.393156,110.644595 150.040768,111.730996 154.013959,114.090525 C158.407223,116.704679 160,119.183033 160,121.729287 C160,124.275541 157.882132,124.733866 153.716407,122.832663 C149.113107,120.82961 147.012742,118.605882 147.012742,115.737102 C146.995753,115.409125 146.995753,115.080528 147.012742,114.752551 C147.337096,114.906523 147.670188,115.042542 148.010415,115.159952 L149.13061,115.516427 C149.13061,115.737102 149.13061,115.974753 149.13061,116.127528 C149.13061,118.249406 150.565859,119.743209 153.716407,121.220036 C156.866955,122.696863 157.969647,122.323413 157.969647,120.642885 Z" id="Path"></path>
                <path d="M13.4091904,98.2950226 C13.2341357,97.5384615 12.6389497,95.80181 11.9387309,93.7556561 C10.5032823,93.1366516 9.05032823,92.5692308 7.89496718,92.0877828 C6.73960613,91.6063348 5.25164114,90.9529412 3.92122538,90.2479638 C3.23851204,91.6751131 2.64332604,92.8959276 2.39824945,93.4977376 C1.43544858,92.9819005 0.962800875,92.7067873 0,92.1393665 C1.55798687,89.6977376 5.54923414,81.8226244 6.33698031,80 C7.61487965,80.5846154 8.24507659,80.8597285 9.50547046,81.358371 C10.5032823,84.0235294 14.2844639,94.8561086 16,99 C14.9671772,98.7248869 14.4420131,98.5701357 13.4091904,98.2950226 Z M6.56455142,84.8144796 C5.9868709,86.0524887 5.26914661,87.5312217 4.56892779,88.9411765 C5.70678337,89.5257919 7.01969365,90.1104072 7.89496718,90.4886878 C8.7702407,90.8669683 10.1356674,91.4171946 11.2910284,91.8126697 C10.6083151,89.7665158 9.85557987,87.5828054 9.26039387,85.8461538 C8.66520788,84.1095023 8.19256018,82.8199095 7.91247265,81.8570136 C7.64989059,82.4932127 7.24726477,83.3873303 6.56455142,84.8144796 Z" id="Shape"></path>
                <path d="M37.8205128,102.946089 C37.9251282,99.5317125 37.9251282,96.7103594 37.9425641,92.9904863 C37.9425641,91.6966173 37.9425641,90.2589852 38.0471795,88.9651163 L37.9425641,88.9651163 C37.5353203,90.2673896 37.0579995,91.5452682 36.5128205,92.7928118 C34.7692308,96.9260042 33.7928205,98.97463 31.9794872,103 L30.9507692,103 C29.12,98.7410148 28.1958974,96.5845666 26.3651282,92.217759 C25.8071795,90.9778013 25.3189744,89.5940803 24.9005128,88.372093 L24.7958974,88.372093 C24.7958974,89.8276956 24.9179487,91.4630021 24.9179487,92.8287526 C24.9179487,96.6205074 24.9179487,98.97463 25.0225641,102.478858 C24.2030769,102.371036 23.8020513,102.299154 23,102.155391 C23,99.8372093 23,97.5010571 23,94.0687104 C23,90.6363636 23,88.1205074 23,86 C24.1158974,86.1976744 24.7435897,86.269556 25.7897436,86.4133192 C26.5220513,88.0306554 28.4051282,92.5951374 30.2358974,96.7283298 C30.6194872,97.6268499 31.1425641,98.9566596 31.5610256,100.088795 L31.6482051,100.088795 C32.0666667,99.0285412 32.5548718,97.9143763 33.0082051,96.9080338 C34.7517949,92.9365751 36.6523077,88.5877378 37.4020513,86.8985201 C38.4482051,86.8985201 38.9538462,86.8985201 40,86.7727273 C40,88.8932347 40,91.3012685 40,94.8414376 C40,98.3816068 40,100.609937 40,102.928118 C39.145641,102.892178 38.7097436,102.910148 37.8205128,102.946089 Z" id="Path"></path>
                <path d="M59.9464286,83.8861004 C59.9464286,84.1988417 59.9464286,84.6679537 59.9464286,84.8764479 C56.5,85.6583012 52.8035714,86.3880309 50.1607143,86.8397683 L50.1607143,91.9478764 C53.4821429,91.3918919 57,90.6447876 59.7857143,89.9324324 C59.7857143,90.3667954 59.7857143,91.2876448 59.7857143,91.6698842 C57.0714286,92.2606178 53.4821429,93.007722 50.1964286,93.5810811 L50.1964286,98.7934363 C52.9464286,98.3243243 56.6428571,97.542471 60,96.7084942 C60,96.969112 60,97.3687259 60,97.7162162 L60,98.6196911 C56.0445917,99.612791 52.0393001,100.407277 48,101 C48,99.0540541 48,96.5173745 48,93.1814672 C48,89.8455598 48,87.1351351 48,85.3803089 C52.8035714,84.6505792 55.1428571,84.1293436 60,83 L59.9464286,83.8861004 Z" id="Path"></path>
                <path d="M81,76 C81,77.8699911 81,80.6126447 81,84.0142476 C81,87.4158504 81,89.9269813 81,92.0284951 L78.7931034,92.7230632 C77.8793103,91.3695459 74.4137931,87.3802315 71.6724138,84.2279608 C71.0374257,83.4055639 70.4611926,82.5365449 69.9482759,81.6277827 L69.9482759,81.6277827 C69.9482759,82.9100623 70.0689655,84.2101514 70.0862069,85.3677649 C70.0862069,90.443455 70.0862069,93.9875334 70.0862069,95.3588602 L68,96 C68,93.9162956 68,91.3873553 68,87.967943 C68,84.5485307 68,81.8593054 68,79.9715049 L70.6034483,79.205699 C71.3793103,80.3455031 75.0689655,84.4416741 77.5,87.4514693 C78.1143629,88.2031284 78.6571058,89.0142453 79.1206897,89.873553 L79.1206897,89.873553 C79.0172414,88.6803206 78.9655172,87.5048976 78.9655172,86.3116652 C78.9655172,82.5360641 78.9655172,78.1727516 78.8275862,76.6055209 L81,76 Z" id="Path"></path>
                <path d="M89,90 C89,87.6388889 89,85.3141026 89,81.8269231 C89,78.3397436 89,75.9967949 89,73.6720085 L91,73 C90.9224806,75.3247863 91,77.6495726 91,81.1912393 C91,84.732906 91,86.9850427 91,89.3279915 L89,90 Z" id="Path"></path>
                <path d="M111,69 L111,70.9655172 C109.15864,71.2241379 107.31728,71.5344828 105.67847,71.8448276 C105.67847,77.9827586 105.67847,84.1724138 105.67847,85.5172414 L104.481586,85.7413793 C104.096058,85.8070211 103.714881,85.8933706 103.339943,86 C103.339943,84.637931 103.339943,78.4482759 103.339943,72.2068966 C101.774788,72.5344828 99.9150142,72.9655172 98,73.4655172 L98,71.6034483 C103.284703,70.3793103 105.936261,69.8275862 111,69 Z" id="Path"></path>
                <path d="M118,84 C118,81.7343578 118,79.4687157 118,76.0965971 C118,72.7244786 118,70.4588364 118,68.2107574 L120,68 C120,70.248079 120,72.4961581 120,75.9034029 C120,79.3106476 120,81.5060373 120,83.8068057 L118,84 Z" id="Path"></path>
                <path d="M139.946429,70.2120902 C139.946429,70.5256148 139.946429,70.9784836 139.946429,71.1875 C136.719649,70.5373572 133.449454,70.1124412 130.160714,69.9159836 L130.160714,75.0368852 C133.390399,75.2248637 136.604951,75.6088032 139.785714,76.1864754 C139.785714,76.6045082 139.785714,77.545082 139.785714,77.9282787 C136.625925,77.2769893 133.420506,76.8577807 130.196429,76.6741803 L130.196429,81.8995902 C133.486899,82.0894112 136.761487,82.4850331 140,83.0840164 C140,83.3278689 140,83.7459016 140,84.0768443 L140,85 C136.059055,84.1471855 132.036668,83.703459 128,83.6762295 C128,81.7428279 128,79.182377 128,75.8381148 C128,72.4938525 128,69.7940574 128,68 C132.037286,68.0332099 136.059653,68.4827726 140,69.3411885 L139.946429,70.2120902 Z" id="Path"></path>
                <path d="M157.9697,86.6449494 C157.9697,85.0834573 156.972053,83.5219653 153.103981,81.3155091 C148.76334,78.8544618 147.363133,77.1232423 147.363133,74.6282495 C147.363133,72.1332567 149.463443,71.0979196 153.419028,72.9309755 C157.759669,74.8488951 159.614943,77.7003154 159.614943,80.4498993 C159.614943,80.8572451 159.614943,81.1288089 159.614943,81.5191819 C159.352404,81.3834 159.002353,81.1457817 158.634798,80.9421088 L157.619648,80.4159538 C157.619648,80.1104445 157.619648,79.7709897 157.619648,79.5503441 C157.619648,77.8530701 156.376965,75.9521232 153.29651,74.5773313 C150.671122,73.4062122 149.393433,73.7796125 149.393433,75.3580773 C149.393433,76.6649783 150.041029,77.7512337 154.014116,80.1104445 C158.407265,82.7242465 160,85.2022665 160,87.7312048 C160,90.2601431 157.882187,90.7353798 153.716572,88.8514056 C149.113392,86.7637586 147.013081,84.6251934 147.013081,81.6889093 C146.99564,81.3609876 146.99564,81.0324121 147.013081,80.7044904 C147.337427,80.8584421 147.67051,80.9944421 148.010729,81.1118362 L149.130894,81.4682637 C149.130894,81.6719366 149.130894,81.909555 149.130894,82.0792824 C149.130894,84.2008749 150.566106,85.694476 153.716572,87.1711044 C156.867037,88.6477328 157.9697,88.3422234 157.9697,86.6449494 Z" id="Path"></path>
                <path d="M13.4091904,64.2262443 C13.2341357,63.4868778 12.6389497,61.7502262 11.9387309,59.6868778 C10.5207877,59.1710407 9.05032823,58.5692308 7.89496718,58.0705882 C6.73960613,57.5719457 5.25164114,56.9357466 3.92122538,56.2307692 C3.23851204,57.6751131 2.64332604,58.878733 2.39824945,59.4977376 C1.43544858,58.9647059 0.962800875,58.7067873 0,58.1393665 C1.55798687,55.6977376 5.54923414,47.8226244 6.33698031,46 C7.61487965,46.5846154 8.24507659,46.8597285 9.50547046,47.358371 C10.5032823,50.0235294 14.2844639,60.8217195 16,65 C14.9671772,64.7248869 14.4420131,64.5701357 13.4091904,64.2262443 Z M6.56455142,50.8144796 C5.9868709,52.0524887 5.26914661,53.5312217 4.56892779,54.9411765 C5.70678337,55.5257919 7.01969365,56.1104072 7.89496718,56.4886878 C8.7702407,56.8669683 10.1356674,57.4171946 11.2910284,57.8126697 C10.6083151,55.7665158 9.85557987,53.5828054 9.26039387,51.8461538 C8.66520788,50.1095023 8.19256018,48.7339367 7.91247265,47.8570136 C7.64989059,48.4760181 7.24726477,49.3873303 6.56455142,50.8144796 Z" id="Shape"></path>
                <path d="M37.8205128,68.9640971 C37.9251282,65.5533263 37.9251282,62.7170011 37.9425641,59.001056 C37.9425641,57.7265048 37.9425641,56.2903907 38.0471795,54.9978881 L37.9425641,54.9978881 C37.5353203,56.2987863 37.0579995,57.5753154 36.5128205,58.8215417 C34.7692308,62.9503696 33.7928205,64.9968321 31.9794872,69 L30.9507692,69 C29.12,64.7455121 28.1958974,62.5733897 26.3651282,58.2291447 C25.8071795,56.9725449 25.3189744,55.5902851 24.9005128,54.3695882 L24.7958974,54.3695882 C24.7958974,55.8057022 24.9179487,57.4572334 24.9179487,58.8215417 C24.9179487,62.6092925 24.9179487,64.9609293 25.0225641,68.4614572 L23,68.1383316 C23,65.8225977 23,63.4889124 23,60.0601901 C23,56.6314678 23,54.1182682 23,52 C24.1158974,52.1974657 24.7435897,52.2692714 25.7897436,52.4128828 C26.5220513,54.0105597 28.4051282,58.5702218 30.2358974,62.7170011 C30.6194872,63.6145723 31.1425641,64.9429778 31.5610256,66.0739176 L31.6482051,66.0739176 C32.0666667,65.0147835 32.5548718,63.8838437 33.0082051,62.8965153 C34.7517949,58.9292503 36.6523077,54.5850053 37.4020513,52.8975713 C38.4482051,52.8975713 38.9538462,52.8975713 40,52.7719113 C40,54.8722281 40,57.2956705 40,60.8141499 C40,64.3326294 40,66.594509 40,68.9102429 L37.8205128,68.9640971 Z" id="Path"></path>
                <path d="M59.9464286,49.8861004 C59.9464286,50.1988417 59.9464286,50.6679537 59.9464286,50.8590734 C56.5,51.6583012 52.8035714,52.3880309 50.1607143,52.8397683 L50.1607143,57.9478764 C53.4821429,57.3918919 57,56.6274131 59.7857143,55.9324324 C59.7857143,56.3494208 59.7857143,57.2876448 59.7857143,57.6698842 C57.0714286,58.2779923 53.4821429,59.0250965 50.1964286,59.5810811 L50.1964286,64.7934363 C52.9464286,64.3243243 56.6428571,63.542471 60,62.7084942 C60,62.9517375 60,63.3687259 60,63.6988417 L60,64.6196911 C56.0445917,65.612791 52.0393001,66.4072769 48,67 C48,65.0540541 48,62.5173745 48,59.1814672 C48,55.8455598 48,53.1351351 48,51.3803089 C52.8035714,50.6332046 55.1428571,50.1293436 60,49 L59.9464286,49.8861004 Z" id="Path"></path>
                <path d="M81,42 C81,43.7793594 81,46.6085409 81,49.9893238 C81,53.3701068 81,55.8967972 81,58.0142349 L78.7931034,58.7081851 C77.8793103,57.3380783 74.4137931,53.3701068 71.6724138,50.2206406 C71.0374257,49.3989753 70.4611926,48.5307294 69.9482759,47.6227758 L69.9482759,47.6227758 C69.9482759,48.886121 70.0689655,50.1850534 70.0862069,51.341637 C70.0862069,56.430605 70.0862069,59.9715302 70.0862069,61.341637 L68,62 C68,59.9359431 68,57.4092527 68,53.9928826 C68,50.5765125 68,47.8896797 68,46.0035587 L70.6034483,45.2384342 C71.3793103,46.3772242 75.0689655,50.4697509 77.5,53.4768683 C78.1143629,54.2278587 78.6571058,55.0382539 79.1206897,55.8967972 L79.1206897,55.8967972 C79.0172414,54.7224199 78.9655172,53.5302491 78.9655172,52.3380783 C78.9655172,48.5658363 78.9655172,44.2064057 78.8275862,42.6405694 L81,42 Z" id="Path"></path>
                <path d="M89,56 C89,53.6388889 89,51.2959402 89,47.8087607 C89,44.3215812 89,41.9786325 89,39.6720085 L91,39 C90.9224806,41.3247863 91,43.6495726 91,47.1730769 C91,50.6965812 91,52.9668803 91,55.3279915 L89,56 Z" id="Path"></path>
                <path d="M111,36 L111,37.8869654 C109.15864,38.1466395 107.31728,38.4755601 105.67847,38.787169 C105.67847,44.9501018 105.67847,51.1649695 105.67847,52.5152749 C105.328612,52.5152749 104.831445,52.6537678 104.481586,52.7403259 C104.096058,52.8062351 103.714881,52.8929363 103.339943,53 C103.339943,51.6323829 103.339943,45.4175153 103.339943,39.2372709 C101.774788,39.5661914 99.9150142,39.9989817 98,40.5010183 L98,38.614053 C103.284703,37.3849287 105.936261,36.8309572 111,36 Z" id="Path"></path>
                <path d="M118,50 C118,47.7167947 118,45.4687157 118,42.0965971 C118,38.7244786 118,36.4588364 118,34.2107574 C118.8,34.1053787 119.2,34.0702525 120,34 C120,36.2305159 120,38.4961581 120,41.9034029 C120,45.3106476 120,47.5060373 120,49.7892426 L118,50 Z" id="Path"></path>
                <path d="M139.946429,36.2120902 C139.946429,36.5256148 139.946429,36.9784836 139.946429,37.1875 C136.721139,36.5288259 133.450305,36.1038269 130.160714,35.9159836 L130.160714,41.0368852 C133.390399,41.2248637 136.604951,41.6088032 139.785714,42.1864754 C139.785714,42.6045082 139.785714,43.545082 139.785714,43.9282787 C136.625925,43.2769893 133.420506,42.8577807 130.196429,42.6741803 L130.196429,47.8995902 C133.486899,48.0894112 136.761487,48.4850331 140,49.0840164 C140,49.3278689 140,49.7459016 140,50.0768443 L140,51 C136.060523,50.1386429 132.037194,49.6948125 128,49.6762295 C128,47.7254098 128,45.182377 128,41.8381148 C128,38.4938525 128,35.7766393 128,34 C132.036668,34.0272295 136.059055,34.470956 140,35.3237705 L139.946429,36.2120902 Z" id="Path"></path>
                <path d="M157.969752,53.6449494 C157.969752,52.0834573 156.97213,50.5219653 153.104158,48.3155091 C148.763629,45.837489 147.363458,44.1232423 147.363458,41.6282495 C147.363458,39.1332567 149.463714,38.0979196 153.419197,39.9309755 C157.759727,41.8488951 159.614953,44.7003154 159.614953,47.4498993 C159.614953,47.8572451 159.614953,48.1288089 159.614953,48.5191819 L158.634833,47.9421088 C158.249786,47.7214632 157.847237,47.534763 157.619709,47.4159538 C157.392182,47.2971447 157.619709,46.7709897 157.619709,46.5503441 C157.619709,44.7682064 156.377058,42.9521232 153.296682,41.5773313 C150.671361,40.3892395 149.393705,40.7626397 149.393705,42.3580773 C149.393705,43.6649783 150.041284,44.7512337 154.014269,47.1104445 C158.407306,49.7242465 160,52.2022665 160,54.7312048 C160,57.2601431 157.882242,57.7353798 153.716733,55.8514056 C149.113671,53.7467859 147.013415,51.6251934 147.013415,48.6889093 C146.995528,48.3609989 146.995528,48.0324008 147.013415,47.7044904 C147.335139,47.8592357 147.668664,47.9897453 148.011037,48.0948634 L149.131173,48.451291 C149.131173,48.6719366 149.131173,48.909555 149.131173,49.0792824 C149.131173,51.1839021 150.566349,52.694476 153.716733,54.1711044 C156.867118,55.6477328 157.969752,55.3422234 157.969752,53.6449494 Z" id="Path"></path>
                <path d="M13.4091904,31.2227273 C13.2341357,30.48 12.6389497,28.7354545 11.9387309,26.6627273 C10.5207877,26.1445455 9.05032823,25.54 7.89496718,25.0390909 C6.73960613,24.5381818 5.25164114,23.8990909 3.92122538,23.1909091 C3.23851204,24.6418182 2.64332604,25.8509091 2.39824945,26.4554545 C1.43544858,25.9372727 0.962800875,25.6609091 0,25.0909091 C1.55798687,22.6554545 5.54923414,14.7272727 6.33698031,13 C7.61487965,13.5872727 8.24507659,13.8636364 9.50547046,14.3645455 C10.5032823,16.9554545 14.2844639,27.7854545 16,32 C14.9671772,31.7063636 14.4420131,31.5509091 13.4091904,31.2227273 Z M6.56455142,17.7327273 C5.9868709,18.9763636 5.26914661,20.4618182 4.56892779,21.8781818 C5.70678337,22.4654545 7.01969365,23.07 7.89496718,23.45 C8.7702407,23.83 10.1356674,24.3827273 11.2910284,24.78 C10.6083151,22.7590909 9.85557987,20.5136364 9.26039387,18.7690909 C8.66520788,17.0245455 8.19256018,15.66 7.91247265,14.7790909 C7.64989059,15.4009091 7.24726477,16.3163636 6.56455142,17.7327273 Z" id="Shape"></path>
                <path d="M37.8205128,34 C37.9251282,30.6 37.9251282,27.7726316 37.9425641,24.0684211 C37.9425641,22.78 37.9425641,21.3663158 38.0471795,20.0778947 L37.9425641,20.0778947 C37.5329061,21.3504293 37.0556093,22.5989678 36.5128205,23.8178947 C34.7692308,27.9336842 33.7928205,29.9557895 31.9794872,33.9642105 L30.9507692,33.9642105 C29.12,29.7052632 28.1958974,27.5578947 26.3651282,23.2273684 C25.8071795,21.9747368 25.3189744,20.5968421 24.9005128,19.38 L24.7958974,19.38 C24.7958974,20.8115789 24.9179487,22.4578947 24.9179487,23.8178947 C24.9179487,27.5936842 24.9179487,29.9378947 25.0225641,33.4273684 L23,33.1052632 C23,30.7968421 23,28.4526316 23,25.0526316 C23,21.6526316 23,19.1115789 23,17 C24.1158974,17.1968421 24.7435897,17.2863158 25.7897436,17.4294737 C26.5220513,19.0221053 28.4051282,23.5673684 30.2358974,27.7010526 C30.6194872,28.5957895 31.1425641,29.9021053 31.5610256,31.0473684 L31.6482051,31.0473684 C32.0666667,29.9915789 32.5548718,28.8642105 33.0082051,27.8621053 C34.7517949,23.9073684 36.6523077,19.5947368 37.4020513,17.9126316 C38.4482051,17.9126316 38.9538462,17.9126316 40,17.7694737 C40,19.8810526 40,22.2789474 40,25.8042105 C40,29.3294737 40,31.5484211 40,33.8747368 L37.8205128,34 Z" id="Path"></path>
                <path d="M59.9464286,15.9026037 C59.9464286,16.2150434 59.9464286,16.6663452 59.9464286,16.8746384 C56.5,17.6730955 52.8035714,18.3847637 50.1607143,18.8534233 L50.1607143,23.9566056 C53.4821429,23.3837994 57,22.6374156 59.7857143,21.9431051 C59.7857143,22.3596914 59.7857143,23.2970106 59.7857143,23.6788814 C57.0714286,24.2864031 53.4821429,25.0327869 50.1964286,25.5882353 L50.1964286,30.7955641 C52.9464286,30.3269045 56.6428571,29.5458052 60,28.7126326 C60,28.9556413 60,29.3722276 60,29.7020251 L60,30.6219865 C55.1964286,31.7502411 52.8571429,32.270974 48,33 C48,31.0559306 48,28.5043394 48,25.1890068 C48,21.8736741 48,19.1485053 48,17.3780135 C52.0393001,16.785862 56.0445917,15.9921422 60,15 L59.9464286,15.9026037 Z" id="Path"></path>
                <path d="M81,8 C81,9.78253119 81,12.5989305 81,16.0035651 C81,19.4081996 81,21.9215686 81,24.0427807 L78.7931034,24.7201426 C77.8793103,23.3654189 74.4137931,19.372549 71.6724138,16.2352941 C71.0411918,15.4092909 70.4651449,14.5397784 69.9482759,13.6327986 L69.9482759,13.6327986 C69.9482759,14.916221 70.0689655,16.2174688 70.0862069,17.3761141 C70.0862069,22.456328 70.0862069,26.0213904 70.0862069,27.3939394 L68,28 C68,25.9144385 68,23.4010695 68,19.9786096 C68,16.5561497 68,13.8645276 68,11.9750446 L70.6206897,11.1550802 C71.3965517,12.2780749 75.0862069,16.3957219 77.5172414,19.3903743 C78.1565393,20.1515428 78.7224413,20.975414 79.2068966,21.8502674 L79.2068966,21.8502674 C79.1034483,20.6737968 79.0517241,19.4795009 79.0517241,18.285205 C79.0517241,14.4884135 79.0517241,10.1390374 78.9137931,8.55258467 L81,8 Z" id="Path"></path>
                <path d="M89,22 C89,19.6414088 89,17.3009605 89,13.8175027 C89,10.3340448 89,7.99359658 89,5.67129136 L91,5 C90.9224806,7.34044824 91,9.66275347 91,13.1824973 C91,16.7022412 91,18.9701174 91,21.3287086 L89,22 Z" id="Path"></path>
                <path d="M111,2 L111,3.88888889 C109.15864,4.14882773 107.31728,4.47808359 105.67847,4.79001019 C105.67847,10.9592253 105.67847,17.1630989 105.67847,18.5321101 L104.481586,18.7400612 L103.339943,19 C103.339943,17.648318 103.339943,11.4271152 103.339943,5.24057085 C101.774788,5.56982671 99.9150142,6.0030581 98,6.50560652 L98,4.61671764 C103.284703,3.38634047 105.936261,2.81447503 111,2 Z" id="Path"></path>
                <path d="M118,16 C118,13.7167947 118,11.4687157 118,8.09659715 C118,4.72447859 118,2.45883644 118,0.193194292 L120,0 C120,2.23051592 120,4.47859495 120,7.90340285 C120,11.3282108 120,13.5060373 120,15.7892426 L118,16 Z" id="Path"></path>
                <path d="M140,2.20756646 C140,2.5204499 140,2.97239264 140,3.1809816 C136.77471,2.52365449 133.503877,2.09952464 130.214286,1.91206544 L130.214286,6.95296524 C133.44355,7.15458533 136.657588,7.54348285 139.839286,8.11758691 C139.839286,8.51738241 139.839286,9.45603272 139.839286,9.85582822 C136.659655,9.23216163 133.436225,8.84284998 130.196429,8.69120654 L130.196429,13.9059305 C133.485775,14.0975799 136.759847,14.4865255 140,15.0705521 C140,15.3139059 140,15.7484663 140,16.0787321 L140,17 C136.061833,16.1287084 132.038489,15.674128 128,15.6441718 C128,13.6973415 128,11.1595092 128,7.82208589 C128,4.48466258 128,1.77300613 128,0 C132.036668,0.02717382 136.059055,0.469992858 140,1.32106339 L140,2.20756646 Z" id="Path"></path>
                <path d="M157.969752,19.642885 C157.969752,18.0642076 156.97213,16.5025052 153.104158,14.3127268 C148.763629,11.8343731 147.363458,10.1029204 147.363458,7.62456662 C147.363458,5.14621284 149.463714,4.09376123 153.419197,5.92706403 C157.759727,7.84524196 159.614953,10.6630963 159.614953,13.4470005 C159.614953,13.8544011 159.614953,14.1090265 159.614953,14.5164271 L158.634833,13.9223012 C158.249786,13.7186009 157.847237,13.5318756 157.619709,13.3960754 C157.392182,13.2602752 157.619709,12.7679995 157.619709,12.5303491 C157.619709,10.8328465 156.377058,8.94861864 153.296682,7.55666652 C150.671361,6.38538973 149.393705,6.7588403 149.393705,8.35449274 C149.393705,9.64459471 150.041284,10.7479714 154.014269,13.090525 C158.407306,15.721654 160,18.1830327 160,20.7292866 C160,23.2755405 157.882242,23.7338662 153.716733,21.8326633 C149.113671,19.7447351 147.013415,17.6058819 147.013415,14.6861774 C146.995528,14.3582228 146.995528,14.0295805 147.013415,13.7016259 C147.356202,13.8396743 147.706812,13.9586919 148.063543,14.0581014 L149.18368,14.414577 C149.18368,14.6352523 149.18368,14.8729027 149.18368,15.0256779 C149.18368,17.1475562 150.618855,18.6583335 153.76924,20.1181857 C156.919624,21.5780379 157.969752,21.3234125 157.969752,19.642885 Z" id="Path"></path>
            </g>
        </g>
    </g>
</svg>