<?xml version="1.0" encoding="UTF-8"?>
<svg width="182px" height="139px" viewBox="0 0 182 139" version="1.1" xmlns="http://www.w3.org/2000/svg" xmlns:xlink="http://www.w3.org/1999/xlink">
    <!-- Generator: Sketch 63.1 (92452) - https://sketch.com -->
    <title>1Asset 5</title>
    <desc>Created with Sketch.</desc>
    <g id="Home-&amp;-Utility-Pages" stroke="none" stroke-width="1" fill="none" fill-rule="evenodd">
        <g id="Homepage-2" transform="translate(-1149.000000, -4635.000000)" fill="#8BA48A" fill-rule="nonzero">
            <g id="1Asset-5" transform="translate(1149.000000, 4635.000000)">
                <path d="M10.1624365,11.5785838 C10.1624365,13.1813472 10.1624365,15.1295337 10.1624365,17.7685665 C10.1624365,20.4075993 10.1624365,22.2037997 10.1624365,24 C9.46745702,23.806563 9.11341084,23.6960276 8.41843131,23.4749568 C8.41843131,22.0932642 8.49710824,19.5094991 8.49710824,18.1001727 C7.48742099,17.7823834 6.22859014,17.3678756 5.06154904,16.9533679 C3.89450794,16.5388601 2.62256427,16.0829016 1.65221549,15.6960276 C1.65221549,17.0777202 1.65221549,19.6614853 1.7177796,21.1260794 C1.02280007,20.8635579 0.68186671,20.7115717 0,20.4352332 C0.0655641068,18.6666667 0,16.8704663 0,14.2314335 C0,11.5924007 0,9.65803109 0,8 L1.7177796,8.70466321 C1.7177796,9.98963731 1.65221549,12.656304 1.65221549,14.1208981 C2.67501556,14.5492228 3.93384641,15.0189983 5.06154904,15.4196891 C6.18925168,15.82038 7.48742099,16.2348877 8.49710824,16.5250432 C8.49710824,15.0604491 8.49710824,12.3799655 8.41843131,10.9982729 L10.1624365,11.5785838 Z" id="Path"></path>
                <path d="M24.9029188,14.1848907 C24.9029188,14.4353877 24.9029188,14.7972167 24.9029188,14.9642147 C22.249577,14.6441352 19.4037648,14.1848907 17.3690778,13.7952286 C17.3690778,15.4234592 17.3690778,16.2445328 17.3690778,17.8866799 C19.9261844,18.359841 22.6345178,18.749503 24.7791878,18.972167 C24.7791878,19.306163 24.7791878,20.0576541 24.7791878,20.3638171 C22.6895093,20.0854871 19.9261844,19.667992 17.3965736,19.194831 L17.3965736,23.3697813 C19.5137479,23.7733598 22.3595601,24.2047714 24.9441624,24.4691849 C24.9441624,24.6640159 24.9441624,24.9980119 24.9441624,25.2624254 L24.9441624,26 C21.8422509,25.6646249 18.7588669,25.1722925 15.7055838,24.5248509 C15.7055838,22.9801193 15.7055838,20.9483101 15.7055838,18.2763419 C15.7055838,15.6043738 15.7055838,13.4333996 15.7055838,12 C18.7573875,12.658897 21.8411175,13.1559298 24.9441624,13.4890656 L24.9029188,14.1848907 Z" id="Path"></path>
                <path d="M37.8972704,22.1164309 C39.525361,22.3384113 40.0505516,22.7823721 40.6676504,24.5451578 C40.9267595,25.378464 41.2291501,26.1978452 41.5736041,27 L40.0768111,27 C39.7091777,27 39.6435289,26.8563656 39.4597122,26.164309 C38.5668883,23.265506 38.2911633,22.5734494 36.479256,22.5473341 C35.0743714,22.5473341 34.3653642,22.5473341 32.9604795,22.429815 C32.9604795,24.2448313 32.9604795,25.8117519 33.0786474,26.8694233 L31.4111675,26.7519042 C31.4111675,25.0413493 31.4768163,23.383025 31.4768163,20.8759521 C31.4768163,18.3688792 31.4768163,16.6974973 31.4111675,15 C33.4987998,15.1305767 34.5360511,15.1697497 36.6630727,15.2089227 C39.2890253,15.2089227 40.8645969,16.2927095 40.8645969,18.7214363 C40.9407712,19.5390258 40.6785062,20.3521654 40.1383455,20.973143 C39.5981847,21.5941205 38.8268159,21.9692631 38.0023085,22.0119695 L37.8972704,22.1164309 Z M36.4923858,21.3329706 C38.2911633,21.3329706 39.2102467,20.3928183 39.2102467,18.9956474 C39.2102467,17.2328618 38.3568121,16.5930359 36.2166608,16.5538629 C35.13697,16.4785453 34.0533,16.4785453 32.9736093,16.5538629 C32.6322355,16.8933624 32.9736093,19.7529924 32.9736093,21.2415669 C33.4987998,21.1762786 34.9562035,21.2546246 36.4923858,21.2807399 L36.4923858,21.3329706 Z" id="Shape"></path>
                <path d="M54.5844339,26.1156317 C54.4631397,25.5460385 54.0507392,24.24197 53.5655622,22.7280514 L50.7394062,23.0278373 C50.0237701,23.1027837 48.9442513,23.2226981 47.9860267,23.2826552 C47.5129792,24.8865096 47.1005787,26.2805139 46.9307668,26.9100642 L45.2690355,27 C46.3485544,24.0021413 49.1140632,15.1584582 49.6598874,13.2098501 L51.8553133,13 C52.5103022,14.9186296 55.1666463,22.862955 56.3553299,25.9357602 L54.5844339,26.1156317 Z M49.8418287,17.24197 C49.4415577,18.5910064 48.9442513,20.2398287 48.4590743,21.738758 C49.2474869,21.738758 50.1571938,21.6188437 50.763665,21.5588865 C51.3701363,21.4989293 52.3162314,21.3940043 53.1167735,21.2890792 C52.6437259,19.7901499 52.1221606,18.1713062 51.7097602,16.9122056 C51.2973597,15.6531049 50.9456064,14.7087794 50.7515356,14.0342612 C50.5695942,14.738758 50.2906175,15.6980728 49.8175699,17.24197 L49.8418287,17.24197 Z" id="Shape"></path>
                <path d="M62.5557069,14 C62.5557069,14.955289 62.4724918,17.0883315 62.4724918,19.8625954 C62.4724918,21.4591058 62.4724918,23.2911668 62.4724918,24.3249727 C63.9109249,24.1155943 65.8605367,23.7884406 67.4416244,23.474373 L67.4416244,24.953108 C64.8500672,25.4111232 63.5661765,25.6205016 60.9746193,26 C60.9746193,25.0054526 60.9746193,22.6237732 60.9746193,20.1112323 C60.9746193,17.1537623 60.9746193,15.3347874 60.9746193,14.2224646 L62.5557069,14 Z" id="Path"></path>
                <path d="M76.4937474,10.2087824 C80.3178934,9.43140687 82.2233503,10.7558244 82.2233503,15.3480983 C82.2233503,19.9403723 80.3575904,22.3588739 76.4275857,23.1506453 L72.0609137,24 C72.0609137,22.2293113 72.0609137,20.2858725 72.0609137,17.5362665 C72.0609137,14.7866605 72.0609137,12.5840965 72.0609137,11.0581371 L76.4937474,10.2087824 Z M80.6354695,15.751182 C80.6354695,12.080242 79.3122356,11.1876997 76.4672827,11.7491376 C75.5676266,11.8290959 74.6795342,12.0223322 73.8208148,12.3249713 C73.5032387,12.7424508 73.8208148,15.564036 73.8208148,17.2771413 C73.7374995,18.8833994 73.7374995,20.4934906 73.8208148,22.0997487 C74.7173477,22.0687951 75.6066292,21.9139991 76.4672827,21.6390817 C79.2328416,21.1064356 80.6354695,19.4653095 80.6354695,15.751182 L80.6354695,15.751182 Z" id="Shape"></path>
                <path d="M103.875491,14.395373 C103.875491,13.0392793 103.153338,12.4414315 100.401686,12.6455746 C97.3138588,12.8642994 96.267982,11.9019103 96.267982,9.72924394 C96.267982,7.55657757 97.7620918,5.85052412 100.588449,5.20893137 C103.72608,4.50901201 105.045877,5.60263601 105.045877,7.96486387 C105.045877,8.31482355 105.045877,8.54813001 105.045877,8.89808969 L104.348626,9.02932457 L103.626473,9.20430441 C103.626473,8.94183465 103.626473,8.65020158 103.626473,8.46064009 C103.626473,7.00247474 102.754909,6.2004838 100.551097,6.68167837 C98.6834594,7.10454632 97.7745427,7.99402718 97.7745427,9.3647026 C97.7745427,10.4874899 98.2352265,11.2311542 101.061584,11.0561744 C104.174313,10.8520313 105.319797,11.7560938 105.319797,13.9725051 C105.319797,16.1889164 103.813236,18.142858 100.849919,18.7698691 C97.5877789,19.4989517 96.0812183,18.478236 96.0812183,15.95561 C96.0812183,15.6348136 96.0812183,15.4160888 96.0812183,15.0952924 C96.3195554,15.0729652 96.5565435,15.0340117 96.7909204,14.9786392 C97.1146442,14.9786392 97.3761134,14.8328226 97.5877789,14.7599144 C97.5877789,14.9640575 97.5877789,15.1682007 97.5877789,15.3140172 C97.5877789,17.1367239 98.596303,17.8074799 100.837468,17.2971221 C103.078632,16.7867642 103.875491,15.8535384 103.875491,14.395373 Z" id="Path"></path>
                <path d="M117.26329,14.1570474 C118.013208,13.9625011 118.763127,13.7380246 119.37556,13.5584434 C119.987994,13.3788622 120.462942,13.1693508 121.025381,12.9897696 L121.025381,14.8005466 C119.438053,15.0549533 117.388276,15.4889412 115.251009,15.8929989 C112.051357,16.4766377 109.939086,14.6957909 109.939086,9.98178475 C109.939086,5.26777855 112.163844,2.58902583 115.276006,2.08021246 C118.388167,1.57139909 120.587928,3.48693177 120.587928,7.72205479 C120.67972,9.43462131 120.233971,11.1264876 119.338064,12.4659912 C118.757909,13.1756533 118.053592,13.722524 117.275788,14.0672568 L117.26329,14.1570474 Z M115.276006,14.2767682 C117.488265,13.8727105 119.025598,12.0918637 119.025598,8.29072856 C119.025598,4.4895934 117.500764,3.32231568 115.276006,3.80119885 C113.051248,4.28008202 111.526414,5.97113821 111.526414,9.78723846 C111.526414,13.6033387 113.051248,14.6957909 115.276006,14.2767682 Z" id="Shape"></path>
                <path d="M135.807107,0 C135.807107,1.07216699 135.807107,2.14433398 135.807107,3.75258446 C135.807107,4.9140987 135.807107,6.61169644 135.807107,8.13059967 C135.807107,11.6300336 134.394292,13.6701291 131.200103,13.9679533 C128.005913,14.2657774 126.568528,12.4788325 126.568528,8.97939854 C126.568528,7.49027772 126.568528,5.76289757 126.568528,4.60138333 C126.568528,2.99313285 126.568528,1.90607465 126.568528,0.863690075 L128.165623,0.670104369 C128.165623,2.39748452 128.06734,6.62658764 128.06734,8.69646558 C128.06734,11.4364479 129.160736,12.5235061 131.236959,12.3299204 C133.313182,12.1363347 134.332865,10.8407996 134.332865,8.10081726 C134.332865,6.06072173 134.332865,1.78694498 134.259153,0.104238457 L135.807107,0 Z" id="Path"></path>
                <path d="M151.565251,11.8705502 C151.431828,11.3398058 151.031556,10.1488673 150.546379,8.75080906 C149.551767,8.75080906 148.545024,8.62135922 147.744482,8.59546926 L144.991103,8.59546926 C144.505926,9.88996764 144.105655,11.0938511 143.923713,11.6504854 L142.274112,11.6504854 C143.341501,9.06148867 146.10701,1.64401294 146.664964,0 L148.860389,0.0647249191 C149.515378,1.82524272 152.159593,9.12621359 153.360406,12 L151.565251,11.8705502 Z M146.822646,3.54692557 C146.422375,4.66019417 145.925069,6.01941748 145.439892,7.33980583 L147.744482,7.33980583 L150.097591,7.43042071 C149.612414,6.04530744 149.102978,4.59546926 148.678448,3.4433657 C148.253918,2.29126214 147.938553,1.41100324 147.756612,0.854368932 C147.562541,1.44983819 147.283564,2.25242718 146.822646,3.54692557 Z" id="Shape"></path>
                <path d="M164.489395,9.71621622 C166.107036,10.280888 166.628855,10.9179537 167.241993,13.0318533 C167.646403,14.3783784 167.907313,15.4353282 168.142132,16 L166.654946,15.6380309 C166.289672,15.5511583 166.224445,15.3774131 166.041808,14.5666023 C165.154715,11.1351351 164.88076,10.2953668 163.080482,9.94787645 C161.684615,9.68725869 160.980158,9.55694981 159.584291,9.33976834 C159.584291,11.3667954 159.584291,13.1042471 159.7017,14.277027 L157.979695,14.030888 C157.979695,12.1341699 157.979695,10.2953668 157.979695,7.51544402 C157.979695,4.73552124 157.979695,2.88223938 157.979695,1 C160.053928,1.28957529 161.097567,1.46332046 163.197891,1.8542471 C165.806989,2.37548263 167.385494,3.96814672 167.385494,6.66119691 C167.385494,8.68822394 166.472309,9.68725869 164.528531,9.64382239 L164.489395,9.71621622 Z M163.106573,8.58687259 C164.88076,8.93436293 165.793944,8.06563707 165.793944,6.53088803 C165.793944,4.57625483 164.945987,3.63513514 162.819572,3.22972973 C161.75711,2.98553758 160.680293,2.82586508 159.597336,2.7519305 C159.284244,3.07046332 159.597336,6.28474903 159.597336,7.93532819 C160.132201,8.03667954 161.567205,8.28281853 163.106573,8.58687259 Z" id="Shape"></path>
                <path d="M181.972545,7.97876106 C181.972545,8.23362832 181.972545,8.60176991 181.972545,8.77168142 C179.323146,7.66725664 176.481562,6.6619469 174.449899,6.01061947 C174.449899,7.66725664 174.449899,8.50265487 174.449899,10.159292 C177.003206,10.980531 179.693787,11.9716814 181.835271,12.8070796 C181.835271,13.1327434 181.835271,13.8973451 181.835271,14.2230088 C179.748697,13.3451327 176.975751,12.3115044 174.463626,11.5044248 L174.463626,15.7522124 C176.563927,16.4176991 179.419238,17.4088496 182,18.4283186 C182,18.6265487 182,18.980531 182,19.2495575 L182,20 C178.986254,18.7252243 175.901207,17.6377324 172.761421,16.7433628 C172.761421,15.1716814 172.761421,13.1044248 172.761421,10.3858407 C172.761421,7.66725664 172.761421,5.45840708 172.761421,4 C175.899284,4.90078541 178.983968,5.98814949 182,7.25663717 L181.972545,7.97876106 Z" id="Path"></path>
                <path d="M10.1624365,39.5647668 C10.1624365,41.1813472 10.1624365,43.1295337 10.1624365,45.7685665 C10.1624365,48.4075993 10.1624365,50.1899827 10.1624365,52 L8.41843131,51.4749568 C8.41843131,50.0932642 8.49710824,47.5094991 8.49710824,46.1001727 C7.48742099,45.7685665 6.22859014,45.3678756 5.06154904,44.9533679 C3.89450794,44.5388601 2.62256427,44.0829016 1.65221549,43.6960276 C1.65221549,45.0777202 1.65221549,47.6614853 1.7177796,49.1260794 L0,48.4214162 C0.0655641068,46.7081174 0,44.8704663 0,42.2314335 C0,39.5924007 0,37.6580311 0,36 C0.68186671,36.2901554 1.02280007,36.4283247 1.7177796,36.6908463 C1.7177796,37.9896373 1.65221549,40.642487 1.65221549,42.1208981 C2.67501556,42.5492228 3.93384641,43.0189983 5.06154904,43.4058722 C6.18925168,43.7927461 7.48742099,44.2348877 8.49710824,44.5250432 C8.49710824,43.0466321 8.49710824,40.3799655 8.41843131,38.9982729 L10.1624365,39.5647668 Z" id="Path"></path>
                <path d="M24.9031021,43.17 C24.9031021,43.422 24.9031021,43.786 24.9031021,43.954 C22.2615529,43.632 19.4283888,43.17 17.4027449,42.778 C17.4027449,44.416 17.4027449,45.242 17.4027449,46.88 C19.9484866,47.37 22.6447829,47.762 24.779921,47.986 C24.779921,48.322 24.779921,49.078 24.779921,49.386 C22.69953,49.106 19.9484866,48.672 17.4301184,48.196 L17.4301184,52.396 C19.5378831,52.788 22.3710472,53.222 24.9441624,53.502 C24.9441624,53.698 24.9441624,54.034 24.9441624,54.3 L24.9441624,55 C21.8436716,54.6917753 18.7602643,54.2245205 15.7055838,53.6 C15.7055838,52.046 15.7055838,49.988 15.7055838,47.3 C15.7055838,44.612 15.7055838,42.442 15.7055838,41 C18.7455193,41.6300503 21.8155358,42.0973528 24.9031021,42.4 L24.9031021,43.17 Z" id="Path"></path>
                <path d="M37.8972704,51.095082 C39.525361,51.3180328 40.0505516,51.7639344 40.6676504,53.5213115 C40.9273422,54.3623572 41.2297178,55.1896567 41.5736041,56 L40.0768111,56 C39.7091777,56 39.6435289,55.8688525 39.4597122,55.1737705 C38.5668883,52.2491803 38.2911633,51.5672131 36.479256,51.5409836 C35.0743714,51.5409836 34.3653642,51.5409836 32.9604795,51.4229508 C32.9604795,53.2459016 32.9604795,54.8196721 33.0786474,55.8819672 L31.4111675,55.8032787 C31.4111675,54.0852459 31.4768163,52.4196721 31.4768163,49.9016393 C31.4768163,47.3836066 31.4768163,45.704918 31.4111675,44 C33.4987998,44.1311475 34.5360511,44.1704918 36.6630727,44.2098361 C39.2890253,44.2098361 40.8645969,45.2983607 40.8645969,47.7377049 C40.9369955,48.5567192 40.6730138,49.3699505 40.1332537,49.9907071 C39.5934936,50.6114636 38.8243192,50.9864236 38.0023085,51.0295082 L37.8972704,51.095082 Z M36.4923858,50.3081967 C38.2911633,50.3081967 39.2102467,49.3508197 39.2102467,47.947541 C39.2102467,46.1901639 38.3568121,45.547541 36.2166608,45.5081967 C35.13697,45.4325499 34.0533,45.4325499 32.9736093,45.5081967 C32.6322355,45.8491803 32.9736093,48.7213115 32.9736093,50.2163934 C33.4987998,50.2032787 34.9562035,50.2819672 36.4923858,50.3081967 Z" id="Shape"></path>
                <path d="M54.5844339,55.2812834 C54.4631397,54.6973262 54.0507392,53.4096257 53.5655622,51.8823529 L50.763665,52.1518717 L47.9860267,52.286631 C47.5129792,53.8887701 47.1005787,55.2812834 46.9307668,55.8951872 L45.2690355,56 C46.3485544,53.0053476 49.1140632,44.171123 49.6598874,42.2245989 C50.5453354,42.1347594 50.9819947,42.1048128 51.8553133,42 C52.5103022,43.9315508 55.1666463,51.8524064 56.3553299,54.9219251 L54.5844339,55.2812834 Z M49.8175699,46.2973262 C49.4172989,47.6449198 48.9199924,49.2919786 48.4348154,50.7893048 C49.2232281,50.7893048 50.1329349,50.6695187 50.7394062,50.6096257 L53.0925146,50.340107 C52.6194671,48.8427807 52.0979018,47.2256684 51.6855013,45.9679144 C51.2731009,44.7101604 50.9456064,43.7219251 50.7515356,43.0780749 C50.5695942,43.8417112 50.2906175,44.8 49.8175699,46.2973262 Z" id="Shape"></path>
                <path d="M62.5557069,41 C62.5557069,41.9673203 62.4724918,44.0849673 62.4724918,46.869281 C62.4724918,48.4640523 62.4724918,50.2941176 62.4724918,51.3267974 C63.9109249,51.1045752 65.8605367,50.7908497 67.4416244,50.4771242 L67.4416244,51.9542484 C64.8500672,52.4117647 63.5661765,52.620915 60.9746193,53 C60.9746193,52.0065359 60.9746193,49.6143791 60.9746193,47.1045752 C60.9746193,44.1633987 60.9746193,42.3464052 60.9746193,41.2352941 L62.5557069,41 Z" id="Path"></path>
                <path d="M76.4540503,38.2021384 C80.2781964,37.4403814 82.2233503,38.7626765 82.2233503,43.3475909 C82.2233503,47.9325054 80.3575904,50.3615039 76.4275857,51.1376336 L72.0609137,52 C72.0609137,50.232149 72.0609137,48.2774519 72.0609137,45.5466251 C72.0609137,42.8157983 72.0609137,40.5880186 72.0609137,39.0645047 C73.8208148,38.7339309 74.6941492,38.5614577 76.4540503,38.2021384 Z M80.5957725,43.7356558 C80.5957725,40.0849716 79.2725386,39.1938597 76.4275857,39.7543978 C75.5279296,39.834228 74.6398372,40.0271546 73.7811178,40.3293087 C73.4635417,40.7461191 73.7811178,43.5631825 73.7811178,45.2735424 C73.6978024,46.8772264 73.6978024,48.4847373 73.7811178,50.0884213 C74.6776507,50.0575172 75.5669321,49.9029693 76.4275857,49.6284925 C79.1931446,49.0535816 80.5957725,47.4438311 80.5957725,43.7356558 L80.5957725,43.7356558 Z" id="Shape"></path>
                <path d="M103.875491,41.440558 C103.875491,40.0925942 103.153338,39.4918712 100.401686,39.6823443 C97.3138588,39.9167728 96.267982,38.9497553 96.267982,36.7519882 C96.267982,34.5542211 97.7620918,32.8399628 100.588449,32.2099362 C103.72608,31.5066507 105.045877,32.6055343 105.045877,34.9791227 C105.045877,35.3307655 105.045877,35.565194 105.045877,35.9168367 L104.348626,36.0487027 L103.626473,36.2245241 C103.626473,35.960792 103.626473,35.6531046 103.626473,35.4626315 C103.626473,33.9974534 102.754909,33.1916055 100.551097,33.689766 C98.6834594,34.1146677 97.7745427,35.0084263 97.7745427,36.3856937 C97.7745427,37.499229 98.2352265,38.2611216 101.061584,38.0706485 C104.174313,37.8801753 105.319797,38.7885857 105.319797,41.0010046 C105.319797,43.2134235 103.813236,45.1035032 100.849919,45.7628333 C97.5877789,46.5100741 96.0812183,45.4697977 96.0812183,42.9496914 C96.0812183,42.6273523 96.0812183,42.3929238 96.0812183,42.0705846 C96.3198889,42.0610315 96.5573775,42.0267109 96.7909204,41.9680221 C97.1146442,41.9680221 97.3761134,41.8068525 97.5877789,41.7482454 C97.5877789,41.9387186 97.5877789,42.1584953 97.5877789,42.2903613 C97.5877789,44.1218339 98.596303,44.7958158 100.837468,44.2976553 C103.078632,43.7994947 103.875491,42.9057361 103.875491,41.440558 Z" id="Path"></path>
                <path d="M117.26329,42.1814789 C118.013208,41.9731038 118.763127,41.7647287 119.37556,41.5712375 C119.987994,41.3777463 120.462942,41.199139 121.025381,41.0056479 L121.025381,42.8066043 C119.438053,43.0745152 117.388276,43.5061494 115.251009,43.8931317 C112.051357,44.4736053 109.939086,42.7173007 109.939086,37.9395567 C109.939086,33.1618128 112.163844,30.6613113 115.276006,30.0957216 C118.388167,29.530132 120.587928,31.4799278 120.587928,35.7069661 C120.676089,37.4097173 120.230744,39.0908863 119.338064,40.4251743 C118.754582,41.12613 118.051224,41.6692941 117.275788,42.0177556 L117.26329,42.1814789 Z M115.276006,42.3005504 C117.488265,41.8986841 119.025598,40.1126116 119.025598,36.3469754 C119.025598,32.5813392 117.500764,31.4055081 115.276006,31.8073745 C113.051248,32.2092408 111.526414,33.9804293 111.526414,37.7609495 C111.526414,41.5414696 113.051248,42.7321846 115.276006,42.3005504 L115.276006,42.3005504 Z" id="Shape"></path>
                <path d="M135.807107,27 C135.807107,28.072167 135.807107,29.144334 135.807107,30.7525845 C135.807107,31.9140987 135.807107,33.5968052 135.807107,35.1157085 C135.807107,38.6151424 134.394292,40.6701291 131.200103,40.9679533 C128.005913,41.2657774 126.568528,39.4788325 126.568528,35.9793985 C126.568528,34.4902777 126.568528,32.7628976 126.568528,31.6013833 C126.568528,29.9931328 126.568528,28.9060746 126.568528,27.8487989 L128.165623,27.6552132 C128.165623,29.3974845 128.06734,33.6116964 128.06734,35.6964656 C128.06734,38.4364479 129.160736,39.5086149 131.236959,39.3299204 C133.313182,39.1512259 134.332865,37.8407996 134.332865,35.085926 C134.332865,33.0458305 134.332865,28.786945 134.259153,27.0893472 L135.807107,27 Z" id="Path"></path>
                <path d="M151.565251,40.8576052 C151.431828,40.3398058 151.031556,39.1488673 150.546379,37.7508091 C149.551767,37.6731392 148.545024,37.6213592 147.744482,37.5954693 C146.94394,37.5695793 145.949327,37.5954693 144.991103,37.5954693 C144.505926,38.8899676 144.105655,40.0938511 143.923713,40.6504854 L142.274112,40.6504854 C143.341501,38.0614887 146.10701,30.6569579 146.664964,29 L148.860389,29.0647249 C149.515378,30.8122977 152.159593,38.1262136 153.360406,41 L151.565251,40.8576052 Z M146.822646,32.5339806 C146.422375,33.6601942 145.925069,35.0194175 145.439892,36.3398058 L147.744482,36.4045307 L150.097591,36.4822006 C149.612414,35.1100324 149.102978,33.6472492 148.678448,32.5080906 C148.253918,31.368932 147.938553,30.4757282 147.756612,29.9190939 C147.562541,30.4239482 147.283564,31.2524272 146.822646,32.5339806 Z" id="Shape"></path>
                <path d="M164.489395,36.7826087 C166.107036,37.3478261 166.628855,37.9855072 167.241993,40.1014493 C167.646403,41.4492754 167.907313,42.4927536 168.142132,43 L166.654946,42.6376812 C166.289672,42.5507246 166.224445,42.3913043 166.041808,41.5797101 C165.154715,38.1449275 164.88076,37.3043478 163.080482,36.9565217 C161.684615,36.6811594 160.980158,36.5652174 159.584291,36.3478261 C159.584291,38.3623188 159.584291,40.115942 159.7017,41.2898551 L157.979695,41.0289855 C157.979695,39.1449275 157.979695,37.3043478 157.979695,34.5217391 C157.979695,31.7391304 157.979695,29.884058 157.979695,28 C160.053928,28.2753623 161.097567,28.4492754 163.197891,28.8550725 C165.806989,29.3768116 167.385494,30.9710145 167.385494,33.6666667 C167.385494,35.6956522 166.472309,36.6956522 164.528531,36.6521739 L164.489395,36.7826087 Z M163.106573,35.6521739 C164.88076,35.9855072 165.793944,35.1304348 165.793944,33.5797101 C165.793944,31.6376812 164.945987,30.6811594 162.819572,30.2898551 C161.757233,30.0418036 160.680493,29.8771454 159.597336,29.7971014 C159.284244,30.115942 159.597336,33.3478261 159.597336,35 C160.132201,35.1014493 161.567205,35.3478261 163.106573,35.6521739 L163.106573,35.6521739 Z" id="Shape"></path>
                <path d="M181.972626,35.9180766 C181.972626,36.1745325 181.972626,36.5449688 181.972626,36.730187 C179.331077,35.618878 176.497913,34.6073019 174.472269,33.9519145 C174.472269,35.618878 174.472269,36.4594835 174.472269,38.126447 C177.018011,38.9385574 179.70062,39.935886 181.835759,40.7764915 C181.835759,41.1184328 181.835759,41.8878005 181.835759,42.2012467 C179.755368,41.3178985 176.990637,40.2778272 174.485956,39.4657168 L174.485956,43.7399822 C176.580034,44.4096171 179.426885,45.4069457 182,46.4327694 C182,46.6322351 182,46.9741763 182,47.2591273 L182,48 C178.982003,46.7560889 175.897308,45.6952434 172.761421,44.8227961 C172.761421,43.2413179 172.761421,41.1611754 172.761421,38.4256456 C172.761421,35.6901158 172.761421,33.4674978 172.761421,32 C175.889986,32.9064003 178.965531,34.0005422 181.972626,35.2769368 L181.972626,35.9180766 Z" id="Path"></path>
                <path d="M10.1624365,66.5647668 C10.1624365,68.1675302 10.1624365,70.1295337 10.1624365,72.7547496 C10.1624365,75.3799655 10.1624365,77.1899827 10.1624365,79 L8.41843131,78.4749568 C8.41843131,77.0932642 8.49710824,74.5094991 8.49710824,73.1001727 L5.06154904,71.9533679 C3.93384641,71.552677 2.62256427,71.0829016 1.65221549,70.6960276 C1.65221549,72.0777202 1.65221549,74.6614853 1.7177796,76.1260794 L0,75.4214162 C0.0655641068,73.6528497 0,71.8566494 0,69.2314335 C0,66.6062176 0,64.6442142 0,63 L1.7177796,63.6908463 C1.7177796,64.9758204 1.65221549,67.642487 1.65221549,69.1208981 C2.67501556,69.5354059 3.93384641,70.0051813 5.06154904,70.4058722 C6.18925168,70.806563 7.48742099,71.2210708 8.49710824,71.5250432 C8.49710824,70.0466321 8.49710824,67.3799655 8.41843131,65.9982729 L10.1624365,66.5647668 Z" id="Path"></path>
                <path d="M24.9029188,70.1709742 C24.9029188,70.4214712 24.9029188,70.7972167 24.9029188,70.9642147 C22.249577,70.6302187 19.4037648,70.1709742 17.3690778,69.7813121 C17.3690778,71.4234592 17.3690778,72.2306163 17.3690778,73.8727634 C19.9261844,74.3459245 22.6345178,74.749503 24.7791878,74.972167 C24.7791878,75.2922465 24.7791878,76.0437376 24.7791878,76.3638171 C22.6895093,76.0715706 19.9261844,75.6540755 17.3965736,75.1809145 L17.3965736,79.3558648 C19.5137479,79.7594433 22.3595601,80.1908549 24.9441624,80.4552684 C24.9441624,80.6500994 24.9441624,80.9980119 24.9441624,81.2624254 L24.9441624,82 C21.8411175,81.6668642 18.7573875,81.1698314 15.7055838,80.5109344 C15.7055838,78.9662028 15.7055838,76.9343936 15.7055838,74.2624254 C15.7055838,71.5904573 15.7055838,69.4194831 15.7055838,68 C18.7588669,68.6474416 21.8422509,69.139774 24.9441624,69.4751491 L24.9029188,70.1709742 Z" id="Path"></path>
                <path d="M37.8972704,78.095082 C39.525361,78.304918 40.0505516,78.7639344 40.6676504,80.5213115 C40.9273422,81.3623572 41.2297178,82.1896567 41.5736041,83 L40.0768111,83 C39.7091777,83 39.6435289,82.8557377 39.4597122,82.1737705 C38.5668883,79.2491803 38.2911633,78.5672131 36.479256,78.5278689 C35.0743714,78.5278689 34.3653642,78.5278689 32.9604795,78.4098361 C32.9604795,80.2459016 32.9604795,81.8196721 33.0786474,82.8688525 L31.4111675,82.7901639 C31.4111675,81.0852459 31.4768163,79.4196721 31.4768163,76.9016393 C31.4768163,74.3836066 31.4768163,72.6918033 31.4111675,71 C33.4987998,71.1180328 34.5360511,71.157377 36.6630727,71.1967213 C39.2890253,71.1967213 40.8645969,72.2983607 40.8645969,74.7377049 C40.9369955,75.5567192 40.6730138,76.3699505 40.1332537,76.9907071 C39.5934936,77.6114636 38.8243192,77.9864236 38.0023085,78.0295082 L37.8972704,78.095082 Z M36.4923858,77.295082 C38.2911633,77.295082 39.2102467,76.3508197 39.2102467,74.947541 C39.2102467,73.1901639 38.3568121,72.547541 36.2166608,72.495082 C35.1372586,72.4116118 34.0530115,72.4116118 32.9736093,72.495082 C32.6322355,72.8229508 32.9736093,75.695082 32.9736093,77.1901639 C33.4987998,77.1901639 34.9562035,77.2688525 36.4923858,77.295082 Z" id="Shape"></path>
                <path d="M54.5601751,82.1614973 C54.4388808,81.5775401 54.0264804,80.2898396 53.5413034,78.7625668 L50.7394062,79.0320856 L47.9860267,79.286631 C47.5129792,80.8737968 47.1005787,82.2812834 46.9307668,82.8951872 L45.2690355,83 C46.3485544,80.0053476 49.1140632,71.171123 49.6598874,69.2096257 L51.8553133,69 C52.5103022,70.9315508 55.1666463,78.8524064 56.3553299,81.9219251 L54.5601751,82.1614973 Z M49.8175699,73.2973262 C49.4172989,74.6449198 48.9199924,76.2919786 48.4348154,77.7893048 C49.2232281,77.7893048 50.1329349,77.6545455 50.7394062,77.5946524 C51.3458774,77.5347594 52.2919726,77.4449198 53.0925146,77.3251337 C52.6194671,75.8278075 52.0979018,74.2256684 51.6855013,72.9679144 C51.2731009,71.7101604 50.9456064,70.7219251 50.7515356,70.0780749 C50.5453354,70.7818182 50.2663586,71.740107 49.793311,73.2973262 L49.8175699,73.2973262 Z" id="Shape"></path>
                <path d="M62.5557069,70 C62.5557069,70.9683751 62.4724918,73.0883315 62.4724918,75.8625954 C62.4724918,77.4721919 62.4724918,79.304253 62.4724918,80.3380589 C63.9109249,80.1155943 65.8605367,79.7884406 67.4416244,79.4874591 L67.4416244,80.953108 C64.8500672,81.4111232 63.5661765,81.6205016 60.9746193,82 C60.9746193,81.0185387 60.9746193,78.6237732 60.9746193,76.1112323 C60.9746193,73.1668484 60.9746193,71.3347874 60.9746193,70.2355507 L62.5557069,70 Z" id="Path"></path>
                <path d="M76.4540503,66.2023461 C80.2781964,65.4398063 82.2233503,66.7634603 82.2233503,71.3530865 C82.2233503,75.9427128 80.3575904,78.3598201 76.4275857,79.151135 L72.0609137,80 C72.0609137,78.2303322 72.0609137,76.2880139 72.0609137,73.5399931 C72.0609137,70.7919724 72.0609137,68.5906783 72.0609137,67.0655987 C73.8208148,66.7346852 74.6941492,66.5620347 76.4540503,66.2023461 Z M80.5957725,71.7415502 C80.5957725,68.0871142 79.2725386,67.1950866 76.4275857,67.7418132 C75.5281297,67.8317826 74.6405809,68.0296144 73.7811178,68.3317025 C73.4635417,68.7489412 73.7811178,71.5545121 73.7811178,73.2666298 C73.6976974,74.8767582 73.6976974,76.4907158 73.7811178,78.1008443 C74.6773004,78.0555064 75.5655114,77.8961571 76.4275857,77.6260554 C79.1931446,77.0649412 80.5957725,75.4535364 80.5957725,71.7415502 L80.5957725,71.7415502 Z" id="Shape"></path>
                <path d="M103.875491,70.4317443 C103.875491,69.0837536 103.153338,68.4683666 100.401686,68.6734956 C97.3138588,68.8932767 96.267982,67.9408919 96.267982,65.7430811 C96.267982,63.5452702 97.7620918,61.8456298 100.588449,61.2155907 C103.72608,60.4976392 105.045877,61.6111967 105.045877,63.9848324 C105.045877,64.3364821 105.045877,64.5562632 105.045877,64.922565 L104.348626,65.0544337 L103.626473,65.2302585 C103.626473,64.9518692 103.626473,64.6588277 103.626473,64.4683508 C103.626473,63.0031435 102.754909,62.1972796 100.551097,62.69545 C98.6834594,63.1203601 97.7745427,64.0141365 97.7745427,65.3767793 C97.7745427,66.5049888 98.2352265,67.2522445 101.061584,67.0764197 C104.174313,66.8859427 105.319797,67.7943712 105.319797,70.0068342 C105.319797,72.2192971 103.813236,74.1094144 100.849919,74.7687577 C97.5877789,75.5013613 96.0812183,74.4757163 96.0812183,71.9409077 C96.0812183,71.6332142 96.0812183,71.398781 96.0812183,71.0764354 C96.3201934,71.0612523 96.5576266,71.0220371 96.7909204,70.9592189 L97.5877789,70.7540899 C97.5877789,70.9445668 97.5877789,71.1643479 97.5877789,71.2962165 C97.5877789,73.1277256 98.596303,73.8017209 100.837468,73.3035505 C103.078632,72.80538 103.875491,71.8969515 103.875491,70.4317443 Z" id="Path"></path>
                <path d="M117.26329,70.1100402 C118.013208,69.9019293 118.763127,69.6938185 119.37556,69.5005727 C119.987994,69.3073269 120.462942,69.1289462 121.025381,68.9357004 L121.025381,70.8086981 C119.438053,71.0762692 117.388276,71.5073559 115.251009,71.8938475 C112.051357,72.4735849 109.939086,70.7046426 109.939086,65.9478231 C109.939086,61.1910036 112.163844,58.6788083 115.276006,58.0990709 C118.388167,57.5193335 120.587928,59.4963866 120.587928,63.7031989 C120.67972,65.4043173 120.233971,67.0848739 119.338064,68.4154232 C118.758632,69.1249477 118.054373,69.6731945 117.275788,70.0208498 L117.26329,70.1100402 Z M115.276006,70.2289607 C117.488265,69.827604 119.025598,68.0437967 119.025598,64.2829363 C119.025598,60.5220758 117.500764,59.3328709 115.276006,59.823418 C113.051248,60.313965 111.526414,61.9937169 111.526414,65.7694424 C111.526414,69.5451679 113.051248,70.6303173 115.276006,70.2289607 Z" id="Shape"></path>
                <path d="M135.807107,56 C135.807107,57.0710282 135.807107,58.1420564 135.807107,59.7485987 C135.807107,60.9088793 135.807107,62.6046739 135.807107,64.1219639 C135.807107,67.617681 134.394292,69.670485 131.200103,69.9679928 C128.005913,70.2655007 126.568528,68.4804537 126.568528,64.9698612 C126.568528,63.482322 126.568528,61.7567766 126.568528,60.596496 C126.568528,58.9899537 126.568528,57.9040501 126.568528,56.8627727 L128.165623,56.6693926 C128.165623,58.4098135 128.06734,62.6195493 128.06734,64.6872288 C128.06734,67.4391762 129.160736,68.5102045 131.236959,68.3168244 C133.313182,68.1234443 134.332865,66.8292852 134.332865,64.0922131 C134.332865,62.0542844 134.332865,57.7999224 134.259153,56.1041277 L135.807107,56 Z" id="Path"></path>
                <path d="M151.565251,67.8448276 C151.431828,67.3275862 151.031556,66.137931 150.546379,64.7413793 C149.551767,64.6637931 148.545024,64.612069 147.744482,64.5862069 C146.94394,64.5603448 145.949327,64.5862069 144.991103,64.5862069 C144.505926,65.8793103 144.105655,67.0818966 143.923713,67.637931 L142.274112,67.637931 C143.341501,65.0517241 146.10701,57.6551724 146.664964,56 L148.860389,56.0775862 C149.515378,57.8232759 152.159593,65.1293103 153.360406,68 L151.565251,67.8448276 Z M146.822646,59.5301724 C146.422375,60.6551724 145.925069,62.012931 145.439892,63.3189655 L147.744482,63.3189655 L150.097591,63.4094828 C149.612414,62.0387931 149.102978,60.5775862 148.678448,59.4396552 C148.253918,58.3017241 147.938553,57.4094828 147.756612,56.8534483 L146.822646,59.5301724 Z" id="Shape"></path>
                <path d="M164.489395,64.7826087 C166.107036,65.3478261 166.628855,66 167.241993,68.1014493 C167.646403,69.4637681 167.907313,70.5072464 168.142132,71 L166.654946,70.6376812 C166.289672,70.5507246 166.224445,70.3768116 166.041808,69.5797101 C165.154715,66.1449275 164.88076,65.2318841 163.080482,64.9565217 C161.684615,64.6811594 160.980158,64.5652174 159.584291,64.3478261 C159.584291,66.3623188 159.584291,68.1014493 159.7017,69.2753623 L157.979695,69.0289855 C157.979695,67.1449275 157.979695,65.3043478 157.979695,62.5217391 C157.979695,59.7391304 157.979695,57.8695652 157.979695,56 C160.053928,56.2753623 161.097567,56.4492754 163.197891,56.8550725 C165.806989,57.3768116 167.385494,58.9710145 167.385494,61.6521739 C167.385494,63.6956522 166.472309,64.6811594 164.528531,64.6521739 L164.489395,64.7826087 Z M163.106573,63.6521739 C164.88076,64 165.793944,63.1449275 165.793944,61.5942029 C165.793944,59.6521739 164.945987,58.6956522 162.819572,58.3043478 C161.758366,58.0491109 160.681149,57.8843796 159.597336,57.8115942 C159.284244,58.1304348 159.597336,61.3623188 159.597336,63.0144928 L163.106573,63.6521739 Z" id="Shape"></path>
                <path d="M181.972545,64.0389725 C181.972545,64.2940655 181.972545,64.6625332 181.972545,64.8325952 C179.323146,63.741364 176.481562,62.7351639 174.449899,61.9982285 C174.449899,63.6705049 174.449899,64.4924712 174.449899,66.1647476 C177.003206,66.9725421 179.693787,67.9645704 181.835271,68.8007086 C181.835271,69.1408326 181.835271,69.9061116 181.835271,70.2178919 C179.748697,69.3250664 176.975751,68.2905226 174.463626,67.4968999 L174.463626,71.74845 C176.563927,72.428698 179.419238,73.4065545 182,74.4410983 C182,74.639504 182,74.979628 182,75.2488928 L182,76 C178.983968,74.7303888 175.899284,73.6420616 172.761421,72.7404783 C172.761421,71.1815766 172.761421,69.0983171 172.761421,66.3914969 C172.761421,63.6846767 172.761421,61.4596988 172.761421,60 C175.901207,60.8951617 178.986254,61.9836169 182,63.2595217 L181.972545,64.0389725 Z" id="Path"></path>
                <path d="M10.1624365,95.6213425 C10.1624365,97.2185886 10.1624365,99.1600688 10.1624365,101.790017 C10.1624365,104.419966 10.1624365,106.209983 10.1624365,108 L8.41843131,107.490534 C8.41843131,106.113597 8.49710824,103.524957 8.49710824,102.120482 C7.48742099,101.803787 6.22859014,101.390706 5.06154904,100.977625 C3.89450794,100.564544 2.67501556,100.110155 1.65221549,99.7246127 C1.65221549,101.101549 1.65221549,103.67642 1.7177796,105.135972 C1.02280007,104.874355 0.68186671,104.722892 0,104.392427 C0.0655641068,102.629948 0,100.839931 0,98.2099828 C0,95.5800344 0,93.6523236 0,92 L1.7177796,92.7022375 C1.7177796,93.9827883 1.65221549,96.6402754 1.65221549,98.0998279 C2.67501556,98.5266781 3.93384641,98.9948365 5.06154904,99.394148 C6.18925168,99.7934596 7.48742099,100.20654 8.49710824,100.495697 C8.49710824,99.0361446 8.49710824,96.3648881 8.41843131,94.9879518 L10.1624365,95.6213425 Z" id="Path"></path>
                <path d="M24.9029188,99.1848907 C24.9029188,99.4353877 24.9029188,99.7972167 24.9029188,99.9642147 C22.249577,99.6441352 19.4037648,99.1848907 17.3690778,98.7952286 C17.3690778,100.423459 17.3690778,101.244533 17.3690778,102.88668 C19.9261844,103.359841 22.6345178,103.763419 24.7791878,103.972167 C24.7791878,104.306163 24.7791878,105.057654 24.7791878,105.363817 C22.6895093,105.085487 19.9261844,104.667992 17.3965736,104.194831 L17.3965736,108.369781 C19.5137479,108.77336 22.3595601,109.204771 24.9441624,109.469185 C24.9441624,109.664016 24.9441624,109.998012 24.9441624,110.262425 L24.9441624,111 C21.8413488,110.671563 18.7576156,110.179175 15.7055838,109.524851 C15.7055838,107.980119 15.7055838,105.94831 15.7055838,103.276342 C15.7055838,100.604374 15.7055838,98.4333996 15.7055838,97 C18.7573875,97.658897 21.8411175,98.1559298 24.9441624,98.4890656 L24.9029188,99.1848907 Z" id="Path"></path>
                <path d="M37.8972704,106.095082 C39.525361,106.318033 40.0505516,106.763934 40.6676504,108.534426 C40.9267595,109.371375 41.2291501,110.194339 41.5736041,111 L40.0768111,111 C39.7091777,111 39.6435289,110.855738 39.4597122,110.160656 C38.5668883,107.24918 38.2911633,106.554098 36.479256,106.527869 C35.0743714,106.527869 34.3653642,106.527869 32.9604795,106.409836 C32.9604795,108.232787 32.9604795,109.806557 33.0786474,110.868852 L31.4111675,110.803279 C31.4111675,109.085246 31.4768163,107.419672 31.4768163,104.901639 C31.4768163,102.383607 31.4768163,100.704918 31.4111675,99 C33.4987998,99.1311475 34.5360511,99.1704918 36.6630727,99.2098361 C39.2890253,99.2098361 40.8645969,100.298361 40.8645969,102.737705 C40.9407712,103.558869 40.6785062,104.375563 40.1383455,104.999255 C39.5981847,105.622947 38.8268159,105.99973 38.0023085,106.042623 L37.8972704,106.095082 Z M36.4923858,105.308197 C38.2911633,105.308197 39.2102467,104.363934 39.2102467,102.960656 C39.2102467,101.190164 38.3568121,100.547541 36.2166608,100.508197 C35.13697,100.43255 34.0533,100.43255 32.9736093,100.508197 C32.6322355,100.84918 32.9736093,103.721311 32.9736093,105.216393 C33.4987998,105.242623 34.9562035,105.242623 36.4923858,105.308197 L36.4923858,105.308197 Z" id="Shape"></path>
                <path d="M54.5805504,111.157895 C54.4589901,110.586466 54.0456853,109.278195 53.5594443,107.759398 L50.7514026,108.015038 C50.0341972,108.015038 48.952311,108.210526 47.991985,108.270677 C47.5179001,109.879699 47.1045952,111.278195 46.9344109,111.909774 L45.2690355,112 C46.3509217,108.992481 49.1224953,100.120301 49.6695164,98.1654135 L51.8454448,98 C52.5018702,99.924812 55.1640395,107.894737 56.3553299,110.977444 L54.5805504,111.157895 Z M49.8275448,102.255639 C49.4263959,103.609023 48.9279989,105.263158 48.4417579,106.766917 C49.2318995,106.766917 50.1436014,106.646617 50.7514026,106.586466 C51.3592038,106.526316 52.3073738,106.421053 53.1096714,106.315789 C52.6355864,104.81203 52.1128774,103.18797 51.6995725,101.924812 C51.2862677,100.661654 50.958055,99.6842105 50.7635586,99.0225564 C50.5569062,99.7443609 50.2773177,100.706767 49.8032327,102.255639 L49.8275448,102.255639 Z" id="Shape"></path>
                <path d="M62.5557069,97 C62.5557069,97.9683751 62.4724918,100.088332 62.4724918,102.862595 C62.4724918,104.459106 62.4724918,106.304253 62.4724918,107.338059 C63.9109249,107.115594 65.8605367,106.788441 67.4416244,106.474373 L67.4416244,107.953108 C64.8500672,108.411123 63.5661765,108.620502 60.9746193,109 C60.9746193,108.018539 60.9746193,105.623773 60.9746193,103.111232 C60.9746193,100.153762 60.9746193,98.3347874 60.9746193,97.2355507 L62.5557069,97 Z" id="Path"></path>
                <path d="M76.4540503,94.2074076 C80.2781964,93.4307652 82.2233503,94.7683159 82.2233503,99.3562585 C82.2233503,103.944201 80.3575904,106.360422 76.4275857,107.151446 L72.0609137,108 C72.0609137,106.230981 72.0609137,104.289376 72.0609137,101.542363 C72.0609137,98.7953502 72.0609137,96.5948636 72.0609137,95.0703435 L76.4540503,94.2074076 Z M80.5957725,99.7877265 C80.5957725,96.1202489 79.2725386,95.2285484 76.4275857,95.7894568 C75.5298296,95.8836685 74.6431538,96.0764146 73.7811178,96.3647474 C73.4635417,96.7818331 73.7811178,99.6007571 73.7811178,101.312247 C73.6978024,102.91699 73.6978024,104.525562 73.7811178,106.130306 C74.6776507,106.099381 75.5669321,105.944731 76.4275857,105.670073 C79.1931446,105.066018 80.5957725,103.455204 80.5957725,99.7877265 Z" id="Shape"></path>
                <path d="M103.875491,97.4342195 C103.875491,96.0723151 103.153338,95.4719056 100.401686,95.6769235 C97.3138588,95.8965855 96.267982,94.9300727 96.267982,92.7480968 C96.267982,90.5661209 97.7620918,88.8527573 100.588449,88.2084155 C103.72608,87.5054971 105.045877,88.6184512 105.045877,90.9761567 C105.045877,91.3276159 105.045877,91.561922 105.045877,91.9133812 L104.348626,92.0451784 L103.626473,92.220908 C103.626473,91.9573136 103.626473,91.6644309 103.626473,91.4740572 C103.626473,89.9364232 102.754909,89.2042165 100.551097,89.6874729 C98.6834594,90.1121528 97.7745427,91.0054449 97.7745427,92.3819935 C97.7745427,93.5095918 98.2352265,94.2564426 101.061584,94.080713 C104.174313,93.8756951 105.319797,94.7836314 105.319797,97.0095396 C105.319797,99.2354479 103.813236,101.095253 100.849919,101.768883 C97.5877789,102.50109 96.0812183,101.476 96.0812183,98.9425652 C96.0812183,98.6203943 96.0812183,98.4007323 96.0812183,98.0785614 C96.3195554,98.0561385 96.5565435,98.0170181 96.7909204,97.9614083 C97.1146442,97.8881876 97.3761134,97.814967 97.5877789,97.7417463 C97.5877789,97.9467642 97.5877789,98.151782 97.5877789,98.2982234 C97.5877789,100.12874 98.596303,100.80237 100.837468,100.289826 C103.078632,99.7772809 103.875491,98.8839887 103.875491,97.4342195 Z" id="Path"></path>
                <path d="M117.26329,97.1689807 C118.013208,96.9756801 118.763127,96.7526409 119.37556,96.5742095 C119.987994,96.3957781 120.462942,96.2024775 121.025381,96.0091768 L121.025381,97.8083598 C119.438053,98.0611376 117.388276,98.4923468 115.251009,98.8938174 C112.051357,99.4737194 109.939086,97.7042749 109.939086,92.9461048 C109.939086,88.1879348 112.163844,85.6601569 115.276006,85.0951242 C118.388167,84.5300915 120.587928,86.4928367 120.587928,90.7008433 C120.67972,92.4024447 120.233971,94.0834785 119.338064,95.4144055 C118.757909,96.1195239 118.053592,96.6628931 117.275788,97.0054187 L117.26329,97.1689807 Z M115.276006,97.287935 C117.488265,96.8864644 119.025598,95.1170199 119.025598,91.3402224 C119.025598,87.5634249 117.500764,86.3887517 115.276006,86.8050916 C113.051248,87.2214315 111.526414,88.9611374 111.526414,92.7528042 C111.526414,96.5444709 113.051248,97.7042749 115.276006,97.287935 Z" id="Shape"></path>
                <path d="M135.807107,83 C135.807107,84.072167 135.807107,85.144334 135.807107,86.7525845 C135.807107,87.9140987 135.807107,89.6116964 135.807107,91.1305997 C135.807107,94.6300336 134.394292,96.6701291 131.200103,96.9679533 C128.005913,97.2657774 126.568528,95.4788325 126.568528,91.9793985 C126.568528,90.4902777 126.568528,88.7628976 126.568528,87.6013833 C126.568528,85.9931328 126.568528,84.9060746 126.568528,83.8636901 L128.165623,83.6701044 C128.165623,85.3974845 128.06734,89.6265876 128.06734,91.6964656 C128.06734,94.4513391 129.160736,95.5235061 131.236959,95.3299204 C133.313182,95.1363347 134.332865,93.8407996 134.332865,91.1008173 C134.332865,89.0607217 134.332865,84.786945 134.259153,83.1042385 L135.807107,83 Z" id="Path"></path>
                <path d="M151.565251,96.8705502 C151.431828,96.3398058 151.031556,95.1488673 150.546379,93.763754 C149.551767,93.6860841 148.545024,93.6213592 147.744482,93.5954693 L144.991103,93.5954693 C144.505926,94.8899676 144.105655,96.0938511 143.923713,96.6504854 L142.274112,96.6504854 C143.341501,94.0614887 146.10701,86.6440129 146.664964,85 L148.860389,85.0776699 C149.515378,86.8252427 152.159593,94.1391586 153.360406,97 L151.565251,96.8705502 Z M146.822646,88.5469256 C146.422375,89.6731392 145.925069,91.0194175 145.439892,92.3398058 L147.744482,92.3398058 L150.097591,92.4304207 C149.612414,91.0453074 149.102978,89.5954693 148.678448,88.4433657 C148.253918,87.2912621 147.938553,86.4110032 147.756612,85.8543689 L146.822646,88.5469256 Z" id="Shape"></path>
                <path d="M164.489395,92.78861 C166.107036,93.3532819 166.628855,93.9903475 167.241993,96.1042471 C167.646403,97.4507722 167.907313,98.507722 168.142132,99 L166.654946,98.6380309 C166.289672,98.5511583 166.224445,98.3774131 166.041808,97.5666023 C165.154715,94.1351351 164.88076,93.222973 163.080482,92.9478764 C161.684615,92.6872587 160.980158,92.5569498 159.584291,92.3397683 C159.584291,94.3667954 159.584291,96.1042471 159.7017,97.277027 L157.979695,97.030888 C157.979695,95.1341699 157.979695,93.2953668 157.979695,90.5299228 C157.979695,87.7644788 157.979695,85.8822394 157.979695,84 C160.053928,84.2895753 161.097567,84.4633205 163.197891,84.8542471 C165.806989,85.3754826 167.385494,86.9681467 167.385494,89.6611969 C167.385494,91.6882239 166.472309,92.6872587 164.528531,92.6438224 L164.489395,92.78861 Z M163.106573,91.6592664 C164.88076,92.0067568 165.793944,91.1380309 165.793944,89.6032819 C165.793944,87.6486486 164.945987,86.707529 162.819572,86.3021236 C161.75711,86.0579314 160.680293,85.8982589 159.597336,85.8243243 C159.284244,86.1428571 159.597336,89.3571429 159.597336,91.007722 C160.132201,91.1090734 161.567205,91.3552124 163.106573,91.6592664 Z" id="Shape"></path>
                <path d="M181.972545,92.0353982 C181.972545,92.2902655 181.972545,92.6584071 181.972545,92.8283186 C179.323146,91.7238938 176.481562,90.7185841 174.449899,89.9964602 C174.449899,91.6530973 174.449899,92.4884956 174.449899,94.1451327 C177.003206,94.9663717 179.693787,95.9575221 181.835271,96.7929204 C181.835271,97.1185841 181.835271,97.8831858 181.835271,98.2088496 C179.748697,97.3309735 176.975751,96.2973451 174.463626,95.5044248 L174.463626,99.7522124 C176.563927,100.417699 179.419238,101.40885 182,102.428319 C182,102.626549 182,102.980531 182,103.249558 L182,104 C178.983968,102.731512 175.899284,101.644148 172.761421,100.743363 C172.761421,99.1716814 172.761421,97.1044248 172.761421,94.3858407 C172.761421,91.6672566 172.761421,89.4584071 172.761421,88 C175.89736,88.9071798 178.981696,89.9944208 182,91.2566372 L181.972545,92.0353982 Z" id="Path"></path>
                <path d="M10.1624365,122.564767 C10.1624365,124.181347 10.1624365,126.129534 10.1624365,128.768566 C10.1624365,131.407599 10.1624365,133.189983 10.1624365,135 L8.41843131,134.474957 C8.41843131,133.093264 8.49710824,130.509499 8.49710824,129.100173 C7.48742099,128.768566 6.22859014,128.367876 5.06154904,127.953368 C3.89450794,127.53886 2.67501556,127.082902 1.65221549,126.696028 C1.65221549,128.07772 1.65221549,130.661485 1.7177796,132.126079 L0,131.421416 C0.0655641068,129.666667 0,127.870466 0,125.231434 C0,122.592401 0,120.658031 0,119 C0.68186671,119.290155 1.02280007,119.428325 1.7177796,119.690846 C1.7177796,120.989637 1.65221549,123.642487 1.65221549,125.120898 C2.67501556,125.549223 3.93384641,126.018998 5.06154904,126.419689 C6.18925168,126.82038 7.48742099,127.234888 8.49710824,127.525043 C8.49710824,126.046632 8.49710824,123.379965 8.41843131,121.998273 L10.1624365,122.564767 Z" id="Path"></path>
                <path d="M24.9029188,126.198807 C24.9029188,126.449304 24.9029188,126.811133 24.9029188,126.978131 C22.249577,126.658052 19.4037648,126.198807 17.3690778,125.809145 C17.3690778,127.437376 17.3690778,128.258449 17.3690778,129.88668 C19.9261844,130.373757 22.6345178,130.763419 24.7791878,130.986083 C24.7791878,131.32008 24.7791878,132.071571 24.7791878,132.377734 C22.6895093,132.099404 19.9261844,131.681909 17.3965736,131.194831 L17.3965736,135.369781 C19.5137479,135.759443 22.3595601,136.190855 24.9441624,136.469185 C24.9441624,136.664016 24.9441624,136.998012 24.9441624,137.262425 L24.9441624,138 C21.8422509,137.664625 18.7588669,137.172293 15.7055838,136.524851 C15.7055838,134.980119 15.7055838,132.934394 15.7055838,130.276342 C15.7055838,127.61829 15.7055838,125.4334 15.7055838,124 C18.7576156,124.654324 21.8413488,125.146712 24.9441624,125.475149 L24.9029188,126.198807 Z" id="Path"></path>
                <path d="M37.8972704,134.095082 C39.525361,134.318033 40.0505516,134.763934 40.6676504,136.521311 C40.9273422,137.362357 41.2297178,138.189657 41.5736041,139 L40.0768111,139 C39.7091777,139 39.6435289,138.868852 39.4597122,138.17377 C38.5668883,135.24918 38.2911633,134.567213 36.479256,134.540984 C35.0743714,134.540984 34.3653642,134.540984 32.9604795,134.422951 C32.9604795,136.245902 32.9604795,137.819672 33.0786474,138.881967 L31.4111675,138.803279 C31.4111675,137.085246 31.4768163,135.419672 31.4768163,132.901639 C31.4768163,130.383607 31.4768163,128.704918 31.4111675,127 C33.4987998,127.131148 34.5360511,127.170492 36.6630727,127.209836 C39.2890253,127.209836 40.8645969,128.298361 40.8645969,130.737705 C40.9369955,131.556719 40.6730138,132.369951 40.1332537,132.990707 C39.5934936,133.611464 38.8243192,133.986424 38.0023085,134.029508 L37.8972704,134.095082 Z M36.4923858,133.37377 C38.2911633,133.37377 39.2102467,132.416393 39.2102467,131.013115 C39.2102467,129.255738 38.3568121,128.613115 36.2166608,128.57377 C35.13697,128.498124 34.0533,128.498124 32.9736093,128.57377 C32.6322355,128.914754 32.9736093,131.786885 32.9736093,133.281967 C33.4987998,133.203279 34.9562035,133.281967 36.4923858,133.37377 Z" id="Shape"></path>
                <path d="M54.5601751,138.161497 C54.4388808,137.592513 54.0264804,136.28984 53.5413034,134.762567 L50.7394062,135.032086 L47.9860267,135.286631 C47.5129792,136.88877 47.1005787,138.281283 46.9307668,138.895187 L45.2690355,139 C46.3485544,136.005348 49.1140632,127.171123 49.6598874,125.224599 C50.5453354,125.134759 50.9819947,125.104813 51.8553133,125 C52.5103022,126.931551 55.1666463,134.852406 56.3553299,137.921925 L54.5601751,138.161497 Z M49.8175699,129.297326 C49.4172989,130.64492 48.9199924,132.291979 48.4348154,133.789305 C49.2232281,133.789305 50.1329349,133.669519 50.7394062,133.609626 L53.0925146,133.340107 C52.6194671,131.842781 52.0979018,130.225668 51.6855013,128.967914 C51.2731009,127.71016 50.9213476,126.706952 50.7272768,126.122995 C50.5453354,126.781818 50.2663586,127.75508 49.793311,129.297326 L49.8175699,129.297326 Z" id="Shape"></path>
                <path d="M62.5557069,126 C62.5557069,126.96732 62.4724918,129.084967 62.4724918,131.869281 C62.4724918,133.464052 62.4724918,135.294118 62.4724918,136.326797 C63.9109249,136.104575 65.8605367,135.79085 67.4416244,135.477124 L67.4416244,136.954248 C64.8500672,137.411765 63.5661765,137.620915 60.9746193,138 C60.9746193,137.006536 60.9746193,134.614379 60.9746193,132.104575 C60.9746193,129.163399 60.9746193,127.346405 60.9746193,126.235294 L62.5557069,126 Z" id="Path"></path>
                <path d="M76.4540503,121.208354 C80.2781964,120.432574 82.2233503,121.754273 82.2233503,126.337122 C82.2233503,130.919971 80.3575904,133.376608 76.4275857,134.138022 C74.6809169,134.49718 73.7811178,134.669575 72.0609137,135 C72.0609137,133.232945 72.0609137,131.279129 72.0609137,128.549532 C72.0609137,125.819936 72.0609137,123.593159 72.0609137,122.070332 L76.4540503,121.208354 Z M80.5957725,126.725012 C80.5957725,123.075973 79.2725386,122.185262 76.4275857,122.745548 C75.5279296,122.825342 74.6398372,123.018182 73.7811178,123.3202 C73.4635417,123.736822 73.7811178,126.552617 73.7811178,128.262206 C73.6978024,129.865168 73.6978024,131.471955 73.7811178,133.074916 C74.6776507,133.044026 75.5669321,132.889548 76.4275857,132.615195 C79.1931446,132.069275 80.5957725,130.46025 80.5957725,126.753745 L80.5957725,126.725012 Z" id="Shape"></path>
                <path d="M103.875491,125.435719 C103.875491,124.088446 103.153338,123.488031 100.401686,123.678406 C97.3138588,123.912715 96.267982,122.946193 96.267982,120.749552 C96.267982,118.552912 97.7620918,116.839532 100.588449,116.209829 C103.72608,115.506904 105.045877,116.605224 105.045877,118.977596 C105.045877,119.329058 105.045877,119.563366 105.045877,119.914829 L104.348626,120.046627 L103.626473,120.222359 C103.626473,119.958762 103.626473,119.651232 103.626473,119.460857 C103.626473,117.99643 102.754909,117.190995 100.551097,117.6889 C98.6834594,118.113584 97.7745427,119.006884 97.7745427,120.383446 C97.7745427,121.49641 98.2352265,122.257912 101.061584,122.067537 C104.174313,121.877161 105.319797,122.785106 105.319797,124.996391 C105.319797,127.207675 103.813236,129.096786 100.849919,129.770423 C97.5877789,130.502636 96.0812183,129.462893 96.0812183,126.944078 C96.0812183,126.621905 96.0812183,126.387596 96.0812183,126.065422 C96.3198889,126.055874 96.5573775,126.021571 96.7909204,125.962912 C97.1146442,125.962912 97.3761134,125.801825 97.5877789,125.743248 C97.5877789,125.933624 97.5877789,126.153288 97.5877789,126.299731 C97.5877789,128.11562 98.596303,128.789256 100.837468,128.291351 C103.078632,127.793446 103.875491,126.900146 103.875491,125.435719 Z" id="Path"></path>
                <path d="M117.26329,125.177742 C118.013208,124.969422 118.763127,124.761102 119.37556,124.567662 C119.987994,124.374222 120.462942,124.195663 121.025381,124.002223 L121.025381,125.802701 C119.438053,126.070541 117.388276,126.502061 115.251009,126.88894 C112.051357,127.48414 109.939086,125.713421 109.939086,120.936946 C109.939086,116.16047 112.163844,113.660632 115.276006,113.095193 C118.388167,112.529753 120.587928,114.493911 120.587928,118.704948 C120.883153,121.482223 119.492117,124.12197 117.26329,125.014062 L117.26329,125.177742 Z M115.276006,125.296782 C117.488265,124.895022 119.025598,123.109424 119.025598,119.344787 C119.025598,115.58015 117.500764,114.404632 115.276006,114.806391 C113.051248,115.208151 111.526414,116.978869 111.526414,120.758386 C111.526414,124.537902 113.051248,125.713421 115.276006,125.296782 L115.276006,125.296782 Z" id="Shape"></path>
                <path d="M135.807107,112 C135.807107,113.072167 135.807107,114.144334 135.807107,115.752584 C135.807107,116.914099 135.807107,118.596805 135.807107,120.115708 C135.807107,123.615142 134.394292,125.670129 131.200103,125.967953 C128.005913,126.265777 126.568528,124.478832 126.568528,120.979399 C126.568528,119.490278 126.568528,117.762898 126.568528,116.601383 C126.568528,114.993133 126.568528,113.906075 126.568528,112.848799 L128.165623,112.655213 C128.165623,114.397485 128.06734,118.611696 128.06734,120.696466 C128.06734,123.436448 129.160736,124.523506 131.236959,124.32992 C133.313182,124.136335 134.332865,122.8408 134.332865,120.085926 C134.332865,118.060722 134.332865,113.786945 134.259153,112.089347 L135.807107,112 Z" id="Path"></path>
                <path d="M151.565251,123.921909 C151.431828,123.401302 151.031556,122.203905 150.546379,120.798265 C149.551767,120.798265 148.545024,120.668113 147.744482,120.642082 C146.94394,120.616052 145.949327,120.642082 144.991103,120.642082 C144.505926,121.943601 144.105655,123.154013 143.923713,123.713666 L142.274112,123.713666 C143.341501,121.110629 146.10701,113.665944 146.664964,112 L148.860389,112 C149.515378,113.75705 152.159593,121.110629 153.360406,124 L151.565251,123.921909 Z M146.822646,115.553145 C146.422375,116.685466 145.925069,118.052061 145.439892,119.37961 L147.744482,119.37961 L150.097591,119.457701 C149.612414,118.078091 149.102978,116.607375 148.678448,115.462039 C148.253918,114.316703 147.938553,113.418655 147.756612,112.859002 C147.562541,113.457701 147.283564,114.264642 146.822646,115.553145 Z" id="Shape"></path>
                <path d="M164.489395,120.782609 C166.107036,121.347826 166.628855,121.985507 167.241993,124.101449 C167.646403,125.449275 167.907313,126.492754 168.142132,127 L166.654946,126.637681 C166.289672,126.550725 166.224445,126.391304 166.041808,125.57971 C165.154715,122.144928 164.88076,121.304348 163.080482,120.956522 C161.684615,120.681159 160.980158,120.565217 159.584291,120.347826 C159.584291,122.362319 159.584291,124.115942 159.7017,125.289855 L157.979695,125.028986 C157.979695,123.144928 157.979695,121.304348 157.979695,118.521739 C157.979695,115.73913 157.979695,113.884058 157.979695,112 C160.053928,112.289855 161.097567,112.449275 163.197891,112.855072 C165.806989,113.376812 167.385494,114.971014 167.385494,117.666667 C167.385494,119.695652 166.472309,120.695652 164.528531,120.652174 L164.489395,120.782609 Z M163.106573,119.652174 C164.88076,119.985507 165.793944,119.130435 165.793944,117.57971 C165.793944,115.637681 164.945987,114.681159 162.819572,114.289855 C161.757233,114.041804 160.680493,113.877145 159.597336,113.797101 C159.284244,114.115942 159.597336,117.347826 159.597336,119 C160.132201,119.101449 161.567205,119.347826 163.106573,119.652174 Z" id="Shape"></path>
                <path d="M181.972545,119.053144 C181.972545,119.308237 181.972545,119.676705 181.972545,119.860939 C179.323146,118.755536 176.481562,117.749336 174.449899,117.026572 C174.449899,118.684677 174.449899,119.520815 174.449899,121.178919 C177.003206,121.986714 179.693787,122.978742 181.835271,123.81488 C181.835271,124.155004 181.835271,124.920283 181.835271,125.232064 C179.748697,124.35341 176.975751,123.318866 174.463626,122.511072 L174.463626,126.762622 C176.563927,127.428698 179.419238,128.420726 182,129.441098 C182,129.639504 182,129.979628 182,130.263065 L182,131 C178.98377,129.734924 175.899075,128.651325 172.761421,127.75465 C172.761421,126.181577 172.761421,124.112489 172.761421,121.391497 C172.761421,118.670505 172.761421,116.459699 172.761421,115 C175.899284,115.901583 178.983968,116.98991 182,118.259522 L181.972545,119.053144 Z" id="Path"></path>
            </g>
        </g>
    </g>
</svg>