<?xml version="1.0" encoding="UTF-8"?>
<svg width="182px" height="135px" viewBox="0 0 182 135" version="1.1" xmlns="http://www.w3.org/2000/svg" xmlns:xlink="http://www.w3.org/1999/xlink">
    <!-- Generator: Sketch 63.1 (92452) - https://sketch.com -->
    <title>1Asset 6</title>
    <desc>Created with Sketch.</desc>
    <g id="Home-&amp;-Utility-Pages" stroke="none" stroke-width="1" fill="none" fill-rule="evenodd">
        <g id="Homepage-2" transform="translate(-1170.000000, -957.000000)" fill="#8BA48A" fill-rule="nonzero">
            <g id="1Asset-6" transform="translate(1170.000000, 956.000000)">
                <path d="M10.3822727,12.6159091 C10.3822727,13.994697 10.3822727,16.1731818 10.3822727,18.7928788 C10.3822727,21.4125758 10.3822727,23.3842424 10.3822727,25.025 L8.61742424,24.4872727 C7.88666667,22.9981818 5.10151515,18.1448485 2.9230303,14.2428788 C2.39909091,13.2363636 1.88893939,12.1884848 1.54424242,11.2509091 L1.54424242,11.2509091 C1.54424242,12.285 1.64075758,13.305303 1.65454545,14.215303 C1.65454545,18.1448485 1.65454545,20.9024242 1.65454545,21.9916667 L0,21.3436364 C0,19.7442424 0,17.8001515 0,15.1666667 C0,12.5331818 0,10.4236364 0,8.93454545 C0.827272727,9.2930303 1.25469697,9.45848485 2.0819697,9.78939394 C2.70242424,11.0854545 5.6530303,16.2559091 7.59712121,19.8269697 C8.02454545,20.6128788 8.52090909,21.6193939 8.89318182,22.5018182 L8.89318182,22.5018182 C8.81045455,21.5228788 8.78287879,20.585303 8.78287879,19.7442424 C8.78287879,16.8074242 8.78287879,13.4156061 8.67257576,12.1471212 C9.41712121,12.4090909 9.73424242,12.4090909 10.3822727,12.6159091 Z" id="Path"></path>
                <path d="M26.4175758,16.4351515 C26.4175758,16.6833333 26.4175758,17.0418182 26.4175758,17.2072727 C23.7565152,16.9039394 20.9024242,16.4627273 18.8618182,16.0628788 L18.8618182,20.1165152 C21.4263636,20.5990909 24.1287879,20.9851515 26.279697,21.1781818 C26.279697,21.5090909 26.279697,22.2536364 26.279697,22.5569697 C24.1839394,22.295 21.3987879,21.8951515 18.8756061,21.4125758 L18.8756061,25.5489394 C20.9851515,25.935 23.8530303,26.3624242 26.4451515,26.6106061 C26.4451515,26.8036364 26.4451515,27.1345455 26.4451515,27.3965152 L26.4451515,28.1272727 C23.3263806,27.8268934 20.2279582,27.3434843 17.1659091,26.6795455 C17.1659091,25.1490909 17.1659091,23.1360606 17.1659091,20.4887879 C17.1659091,17.8415152 17.1659091,15.6906061 17.1659091,14.2704545 C20.2277156,14.9388392 23.3261293,15.4268509 26.4451515,15.7319697 L26.4175758,16.4351515 Z" id="Path"></path>
                <path d="M48.2575758,15.9939394 C47.3889394,18.6687879 45.155303,26.3072727 44.4521212,28.6236364 L43.569697,28.6236364 C43.0733333,28.6236364 42.659697,28.6236364 42.4390909,28.6236364 C42.0530303,27.3275758 41.1292424,23.8116667 40.4260606,21.0127273 C40.1365152,19.8545455 39.8883333,18.765303 39.7228788,17.9242424 L39.7228788,17.9242424 C39.5298485,18.7928788 39.2816667,19.9648485 38.9921212,21.0540909 C38.2337879,23.8116667 37.2548485,27.2448485 36.855,28.6787879 L35.9174242,28.6787879 L34.9384848,28.6787879 C34.1801515,26.1693939 32.1809091,18.7790909 31.2157576,16.1042424 L33.2012121,16.2007576 C33.3942424,17.2762121 34.58,21.4815152 35.2969697,24.3631818 C35.6416667,25.6178788 35.8622727,26.5416667 36.0139394,27.2310606 L36.0828788,27.2310606 C36.2483333,26.5278788 36.4965152,25.6040909 36.8274242,24.3631818 C37.5168182,21.6056061 38.5922727,17.7587879 38.8680303,16.3248485 L40.8121212,16.3248485 C41.1292424,17.7036364 42.0392424,21.4401515 42.7975758,24.3631818 C43.1284848,25.5489394 43.3490909,26.5416667 43.5145455,27.2034848 L43.6110606,27.2034848 C43.7627273,26.5278788 44.024697,25.5489394 44.3418182,24.3493939 C45.045,21.5090909 46.2307576,17.3313636 46.4651515,16.0766667 L48.2575758,15.9939394 Z" id="Path"></path>
                <path d="M71.1040909,12.9192424 C69.959697,14.8633333 67.2434848,20.4060606 66.3472727,22.2398485 C66.3472727,23.8668182 66.3472727,25.6454545 66.3472727,26.1556061 L65.4924242,26.2934848 L64.5962121,26.4313636 C64.5962121,25.9212121 64.5962121,24.1839394 64.5962121,22.5431818 C63.1423932,19.8580233 61.5452913,17.2529522 59.8118182,14.7392424 L62.0454545,14.4221212 C62.3487879,15.1115152 63.6724242,17.3589394 64.4445455,18.8342424 C64.8306061,19.5512121 65.2166667,20.2819697 65.4648485,20.8059091 L65.6165152,20.8059091 C65.864697,20.2406061 66.2093939,19.4271212 66.6092424,18.5998485 C67.4089394,16.8625758 68.815303,14.0498485 69.0910606,13.305303 L71.1040909,12.9192424 Z" id="Path"></path>
                <path d="M80.5212121,23.7151515 C76.8536364,24.4734848 74.5648485,22.5707576 74.5648485,18.3930303 C74.3024194,14.7173693 76.8847931,11.4475582 80.5212121,10.8510606 C84.0922727,10.120303 86.4775758,11.7610606 86.4775758,15.9663636 C86.7655808,19.6923627 84.1959575,23.0352524 80.5212121,23.7151515 L80.5212121,23.7151515 Z M84.7540909,16.38 C84.7540909,13.0984848 83.1409091,11.8437879 80.5212121,12.3815152 C77.9015152,12.9192424 76.2745455,14.8219697 76.2745455,18.1034848 C76.2745455,21.385 77.8877273,22.7362121 80.5212121,22.2398485 C83.154697,21.7434848 84.7540909,19.6477273 84.7540909,16.38 L84.7540909,16.38 Z" id="Shape"></path>
                <path d="M99.2727273,14.3531818 C100.982424,14.215303 101.547727,14.6013636 102.195758,16.3248485 C102.462246,17.1507796 102.775272,17.9609643 103.133333,18.7515152 L101.561515,19.0686364 C101.175455,19.1375758 101.120303,19.0686364 100.913485,18.3240909 C100.031061,15.4424242 99.7415152,14.7668182 97.8939394,15.1666667 L94.185,15.9387879 C94.185,17.855303 94.185,19.5098485 94.3228788,20.5990909 L92.5028788,20.9851515 C92.5028788,19.1651515 92.5028788,17.4140909 92.5028788,14.7668182 C92.5028788,12.1195455 92.5028788,10.354697 92.5028788,8.57606061 L98.0180303,7.41787879 C100.775606,6.83878788 102.430152,7.65227273 102.430152,10.1754545 C102.500809,12.0864704 101.25227,13.7967971 99.4106061,14.3118182 L99.2727273,14.3531818 Z M97.8939394,13.8568182 C99.4540513,13.657798 100.629819,12.3409386 100.651515,10.7683333 C100.651515,8.92075758 99.755303,8.39681818 97.5078788,8.86560606 C96.3684387,9.01950856 95.2464506,9.28269097 94.1574242,9.65151515 C93.7437879,10.1754545 94.1574242,13.0295455 94.1574242,14.6013636 L97.8939394,13.8568182 Z" id="Shape"></path>
                <path d="M119.251364,3.47454545 C117.610606,5.25318182 114.439394,8.96212121 112.57803,11.030303 C113.217275,11.3902879 113.838477,11.7814145 114.439394,12.2022727 C117.19697,14.0912121 118.906667,15.4148485 119.540909,15.8284848 L117.58303,16.1318182 C117.257584,16.2200121 116.909594,16.1483671 116.645455,15.9387879 C115.059848,14.7254545 112.316061,12.6572727 110.909697,11.8024242 L110.578788,11.8024242 C110.578788,13.8981818 110.578788,15.6216667 110.647727,17.2072727 L108.924242,17.634697 C108.924242,15.8284848 108.924242,14.0498485 108.924242,11.4301515 C108.924242,8.81045455 108.924242,7.00424242 108.924242,5.23939394 L110.730455,4.90848485 C110.661515,6.6319697 110.661515,8.54848485 110.661515,11.0027273 L110.964848,11.0027273 C111.681818,10.1340909 112.453939,9.23787879 113.239848,8.27272727 C114.756515,6.53545455 115.997424,5.03257576 117.031515,3.76409091 L119.251364,3.47454545 Z" id="Path"></path>
                <path d="M141.891061,6.1769697 C141.891061,3.84681818 140.650152,2.81272727 138.251061,2.90924242 C135.85197,3.00575758 134.114697,4.46727273 134.114697,7.90045455 C134.114697,11.3336364 135.85197,12.7675758 138.251061,12.6848485 C140.650152,12.6021212 141.849697,11.3060606 141.849697,9.25166667 L141.849697,8.86560606 L143.51803,8.86560606 C143.51803,9.03106061 143.51803,9.16893939 143.51803,9.3619697 C143.51803,12.3125758 141.780758,14.0774242 138.237273,14.215303 C134.693788,14.3531818 132.363636,12.4780303 132.363636,8.06590909 C132.363636,4.01227273 134.611061,1.53045455 138.32,1.37878788 C142.028939,1.22712121 143.559394,3.185 143.559394,5.90121212 C143.559394,6.13560606 143.559394,6.30106061 143.559394,6.53545455 L141.904848,6.53545455 L141.891061,6.1769697 Z" id="Path"></path>
                <path d="M149.846667,14.0912121 C149.846667,12.3125758 149.846667,10.5477273 149.846667,7.90045455 C149.846667,5.25318182 149.846667,3.46075758 149.846667,1.69590909 L151.639091,1.80621212 C151.639091,3.55727273 151.639091,5.33590909 151.639091,8.01075758 C151.639091,10.6856061 151.639091,12.4090909 151.639091,14.215303 L149.846667,14.0912121 Z" id="Path"></path>
                <path d="M166.72303,4.13636364 L166.72303,5.59787879 C165.344242,5.22560606 163.965455,4.92227273 162.738333,4.70166667 C162.738333,9.62393939 162.738333,14.56 162.738333,15.7319697 C162.462576,15.7319697 162.104091,15.5940909 161.842121,15.5527273 C161.580152,15.5113636 161.249242,15.4424242 160.973485,15.4148485 C160.973485,14.3531818 160.973485,9.40333333 160.973485,4.48106061 C159.801515,4.27424242 158.408939,4.08121212 156.975,3.92954545 L156.975,2.35772727 C160.258332,2.74622967 163.514067,3.34027452 166.72303,4.13636364 Z" id="Path"></path>
                <path d="M181.545,8.93454545 C179.847933,11.058319 178.260266,13.2672476 176.788182,15.5527273 C176.788182,17.1934848 176.788182,18.9583333 176.788182,19.4822727 L175.933333,19.1789394 L175.037121,18.8756061 C175.037121,18.3654545 175.037121,16.6419697 175.037121,15.0012121 C174.209848,13.0157576 171.397121,6.94909091 170.252727,5.01878788 C171.121364,5.25318182 171.548788,5.37727273 172.417424,5.63924242 C172.720758,6.46651515 174.044394,9.32060606 174.816515,11.1543939 C175.202576,12.0506061 175.588636,12.9881818 175.836818,13.6362121 L175.988485,13.6362121 C176.236667,13.1812121 176.581364,12.5469697 176.981212,11.940303 C177.780909,10.5615152 179.187273,8.60363636 179.46303,8.01075758 C180.345455,8.42439394 180.745303,8.58984848 181.545,8.93454545 Z" id="Path"></path>
                <path d="M10.3822727,39.2127273 C10.3822727,40.5915152 10.3822727,42.7562121 10.3822727,45.389697 C10.3822727,48.0231818 10.3822727,49.9672727 10.3822727,51.6080303 L8.61742424,51.0840909 C7.88666667,49.5812121 5.10151515,44.7416667 2.9230303,40.839697 C2.39909091,39.8193939 1.88893939,38.7715152 1.54424242,37.8477273 L1.54424242,37.8477273 C1.54424242,38.8818182 1.64075758,39.9159091 1.65454545,40.8259091 C1.65454545,44.7554545 1.65454545,47.4992424 1.65454545,48.6022727 L0,47.9266667 C0,46.3272727 0,44.3831818 0,41.7359091 C0,39.0886364 0,37.0066667 0,35.5313636 L2.0819697,36.3862121 C2.70242424,37.6822727 5.6530303,42.8389394 7.59712121,46.4237879 C8.02454545,47.1959091 8.52090909,48.2162121 8.89318182,49.0848485 L8.89318182,49.0848485 C8.81045455,48.119697 8.78287879,47.1821212 8.78287879,46.3272727 C8.78287879,43.3766667 8.78287879,39.9848485 8.67257576,38.7301515 L10.3822727,39.2127273 Z" id="Path"></path>
                <path d="M26.4175758,43.0181818 C26.4175758,43.2663636 26.4175758,43.6386364 26.4175758,43.8040909 C23.7565152,43.5007576 20.9024242,43.0457576 18.8618182,42.659697 L18.8618182,46.6995455 C21.4263636,47.1821212 24.1287879,47.5681818 26.279697,47.775 C26.279697,48.1059091 26.279697,48.8504545 26.279697,49.1537879 C24.1839394,48.8918182 21.3987879,48.4781818 18.8756061,48.0093939 L18.8756061,52.1457576 C20.9851515,52.5456061 23.8530303,52.9592424 26.4451515,53.2074242 C26.4451515,53.4142424 26.4451515,53.7451515 26.4451515,54.0071212 L26.4451515,54.7378788 C23.3261293,54.43276 20.2277156,53.9447483 17.1659091,53.2763636 C17.1659091,51.759697 17.1659091,49.7328788 17.1659091,47.0856061 C17.1659091,44.4383333 17.1659091,42.3012121 17.1659091,40.8810606 C20.2279582,41.5449995 23.3263806,42.0284086 26.4451515,42.3287879 L26.4175758,43.0181818 Z" id="Path"></path>
                <path d="M48.2575758,42.5907576 C47.3889394,45.2656061 45.155303,52.9040909 44.4521212,55.2066667 L43.569697,55.2066667 C43.0733333,55.2066667 42.659697,55.2066667 42.4390909,55.2066667 C42.0530303,53.9106061 41.1292424,50.394697 40.4260606,47.5957576 C40.1365152,46.4513636 39.8883333,45.3621212 39.7228788,44.5210606 L39.7228788,44.5210606 C39.5298485,45.3759091 39.2816667,46.5616667 38.9921212,47.6509091 C38.2337879,50.4084848 37.2548485,53.8278788 36.855,55.2618182 L35.9174242,55.2618182 L34.9384848,55.2618182 C34.1801515,52.7662121 32.1809091,45.3621212 31.2157576,42.6872727 L33.2012121,42.7975758 C33.3942424,43.8592424 34.58,48.0783333 35.2969697,50.96 C35.6416667,52.2009091 35.8622727,53.1384848 36.0139394,53.8140909 L36.0828788,53.8140909 C36.2483333,53.1109091 36.4965152,52.1871212 36.8274242,50.96 C37.5168182,48.2024242 38.5922727,44.3556061 38.8680303,42.9078788 L40.8121212,42.9078788 C41.1292424,44.2866667 42.0392424,48.0231818 42.7975758,50.9324242 C43.1284848,52.1319697 43.3490909,53.1109091 43.5145455,53.7865152 L43.6110606,53.7865152 C43.7627273,53.0971212 44.024697,52.1319697 44.3418182,50.9186364 C45.045,48.0783333 46.2307576,43.9143939 46.4651515,42.6459091 L48.2575758,42.5907576 Z" id="Path"></path>
                <path d="M71.1040909,39.5160606 C69.959697,41.4601515 67.2434848,46.9890909 66.3472727,48.8228788 C66.3472727,50.4636364 66.3472727,52.2284848 66.3472727,52.7386364 L65.4924242,52.8765152 L64.5962121,53.0281818 C64.5962121,52.5042424 64.5962121,50.7669697 64.5962121,49.1262121 C63.1683375,46.4568096 61.598879,43.8655922 59.8945455,41.3636364 L62.0454545,41.0189394 C62.3487879,41.7083333 63.6724242,43.9419697 64.4445455,45.4310606 C64.8306061,46.1480303 65.2166667,46.8787879 65.4648485,47.4027273 L65.6165152,47.4027273 C65.864697,46.8236364 66.2093939,46.0239394 66.6092424,45.1828788 C67.4089394,43.4456061 68.815303,40.6466667 69.0910606,39.9021212 L71.1040909,39.5160606 Z" id="Path"></path>
                <path d="M80.5212121,50.3119697 C76.8536364,51.0565152 74.5648485,49.1675758 74.5648485,44.9760606 C74.3098545,41.3055012 76.8904117,38.0439636 80.5212121,37.4478788 C84.0922727,36.7171212 86.4775758,38.3578788 86.4775758,42.5493939 C86.4775758,46.7409091 84.175,49.6363636 80.5212121,50.3119697 Z M84.7540909,42.9630303 C84.7540909,39.695303 83.1409091,38.4268182 80.5212121,38.9645455 C77.9015152,39.5022727 76.2745455,41.3636364 76.2745455,44.700303 C76.2745455,48.0369697 77.8877273,49.3330303 80.5212121,48.8366667 C83.154697,48.340303 84.7540909,46.2445455 84.7540909,42.9630303 L84.7540909,42.9630303 Z" id="Shape"></path>
                <path d="M99.2727273,40.95 C100.982424,40.8121212 101.547727,41.1843939 102.195758,42.9216667 C102.464121,43.7424294 102.777112,44.547922 103.133333,45.3345455 L101.561515,45.6516667 C101.175455,45.7343939 101.120303,45.6516667 100.913485,44.9071212 C99.9759091,42.0254545 99.6863636,41.3498485 97.7974242,41.749697 L94.0884848,42.5356061 C94.0884848,44.4521212 94.0884848,46.0928788 94.2263636,47.1821212 L92.4063636,47.5681818 C92.4063636,45.7619697 92.4063636,43.9971212 92.4063636,41.3498485 C92.4063636,38.7025758 92.4063636,36.9515152 92.4063636,35.1728788 L97.9215152,34.014697 C100.679091,33.4218182 102.333636,34.2490909 102.333636,36.7722727 C102.38649,38.684985 101.12056,40.3842957 99.2727273,40.8810606 L99.2727273,40.95 Z M97.8939394,40.4398485 C99.4540513,40.2408283 100.629819,38.9239689 100.651515,37.3513636 C100.651515,35.5037879 99.755303,34.9936364 97.5078788,35.4624242 C96.3485534,35.6059182 95.2072424,35.8692977 94.1022727,36.2483333 C93.6886364,36.7722727 94.1022727,39.6263636 94.1022727,41.1981818 L97.8939394,40.4398485 Z" id="Shape"></path>
                <path d="M119.251364,30.0713636 C117.610606,31.85 114.39803,35.5865152 112.57803,37.5719697 C113.074394,37.8615152 113.791364,38.2889394 114.494545,38.7990909 C117.252121,40.6880303 118.961818,41.9978788 119.596061,42.4115152 L117.638182,42.7424242 C117.314903,42.8344645 116.967136,42.7679796 116.700606,42.5631818 C115.115,41.3498485 112.371212,39.2678788 110.964848,38.4268182 L110.633939,38.4268182 C110.633939,40.5225758 110.633939,42.2460606 110.702879,43.8454545 L108.924242,44.2315152 C108.924242,42.425303 108.924242,40.6466667 108.924242,38.0131818 C108.924242,35.379697 108.924242,33.5872727 108.924242,31.8224242 L110.730455,31.4915152 C110.661515,33.2287879 110.661515,35.145303 110.661515,37.5857576 L110.964848,37.5857576 C111.709394,36.7722727 112.481515,35.8760606 113.267424,34.9660606 C114.784091,33.2287879 116.025,31.7259091 117.059091,30.4574242 L119.251364,30.0713636 Z" id="Path"></path>
                <path d="M141.891061,32.7737879 C141.891061,30.4298485 140.650152,29.4095455 138.251061,29.5060606 C135.85197,29.6025758 134.114697,31.0640909 134.114697,34.4972727 C134.114697,37.9304545 135.85197,39.3643939 138.251061,39.2678788 C140.650152,39.1713636 141.849697,37.8890909 141.849697,35.8484848 L141.849697,35.4624242 L143.51803,35.4624242 C143.51803,35.6278788 143.51803,35.7519697 143.51803,35.9587879 C143.51803,38.8956061 141.780758,40.6604545 138.237273,40.8121212 C134.693788,40.9637879 132.363636,39.0748485 132.363636,34.6489394 C132.363636,30.6090909 134.555909,28.1134848 138.264848,27.9756061 C141.973788,27.8377273 143.504242,29.7680303 143.504242,32.4980303 C143.504242,32.7324242 143.504242,32.8978788 143.504242,33.1184848 L142.67697,33.1184848 L141.849697,33.1184848 L141.891061,32.7737879 Z" id="Path"></path>
                <path d="M149.846667,40.6880303 C149.846667,38.9093939 149.846667,37.1307576 149.846667,34.4834848 C149.846667,31.8362121 149.846667,30.0575758 149.846667,28.2789394 L151.639091,28.4030303 C151.639091,30.1540909 151.639091,31.9189394 151.639091,34.5937879 C151.639091,37.2686364 151.639091,39.0059091 151.639091,40.8121212 L149.846667,40.6880303 Z" id="Path"></path>
                <path d="M166.72303,30.6780303 L166.72303,32.1809091 C165.344242,31.8224242 163.965455,31.5190909 162.738333,31.2984848 C162.738333,36.2069697 162.738333,41.1568182 162.738333,42.3287879 L161.842121,42.1357576 L160.973485,42.0116667 C160.973485,40.9362121 160.973485,36.0001515 160.973485,31.0640909 C159.801515,30.8710606 158.408939,30.6780303 156.975,30.5263636 L156.975,28.9545455 C160.257171,29.324741 163.512901,29.9003652 166.72303,30.6780303 L166.72303,30.6780303 Z" id="Path"></path>
                <path d="M181.545,35.5313636 C179.844811,37.6479921 178.257016,39.8524959 176.788182,42.1357576 C176.788182,43.7765152 176.788182,45.5551515 176.788182,46.065303 L175.933333,45.7619697 L175.106061,45.5 C175.106061,45.0036364 175.106061,43.2663636 175.106061,41.6256061 C174.278788,39.6539394 171.466061,33.5872727 170.321667,31.6431818 L172.486364,32.2774242 C172.789697,33.0909091 174.113333,35.9587879 174.885455,37.7925758 C175.271515,38.7025758 175.657576,39.6263636 175.905758,40.2743939 L176.057424,40.2743939 C176.305606,39.8331818 176.650303,39.1989394 177.050152,38.5784848 C177.849848,37.199697 179.256212,35.2418182 179.53197,34.6627273 C180.345455,35.0212121 180.745303,35.1866667 181.545,35.5313636 Z" id="Path"></path>
                <path d="M10.3822727,65.7957576 C10.3822727,67.1745455 10.3822727,69.3530303 10.3822727,71.9727273 C10.3822727,74.5924242 10.3822727,76.5640909 10.3822727,78.2048485 L8.61742424,77.6671212 C7.88666667,76.1780303 5.10151515,71.324697 2.9230303,67.4227273 C2.39909091,66.4162121 1.88893939,65.3683333 1.54424242,64.4307576 L1.54424242,64.4307576 C1.54424242,65.4648485 1.64075758,66.4851515 1.65454545,67.3951515 C1.65454545,71.324697 1.65454545,74.0822727 1.65454545,75.1715152 L0,74.5234848 C0,72.9240909 0,70.98 0,68.3327273 C0,65.6854545 0,63.6034848 0,62.1143939 C0.827272727,62.4728788 1.25469697,62.6383333 2.0819697,62.9692424 C2.70242424,64.265303 5.6530303,69.4357576 7.59712121,73.0068182 C8.02454545,73.7927273 8.52090909,74.7992424 8.89318182,75.6816667 L8.89318182,75.6816667 C8.81045455,74.7027273 8.78287879,73.7651515 8.78287879,72.9240909 C8.78287879,69.9872727 8.78287879,66.5954545 8.67257576,65.3269697 C9.41712121,65.52 9.73424242,65.6165152 10.3822727,65.7957576 Z" id="Path"></path>
                <path d="M26.4175758,69.615 C26.4175758,69.8631818 26.4175758,70.2216667 26.4175758,70.3871212 C23.7565152,70.0837879 20.9024242,69.6425758 18.8618182,69.2427273 L18.8618182,73.2963636 C21.4263636,73.7789394 24.1287879,74.165 26.279697,74.3580303 C26.279697,74.6889394 26.279697,75.4334848 26.279697,75.7368182 C24.1839394,75.4748485 21.3987879,75.075 18.8756061,74.5924242 L18.8756061,78.7287879 C20.9851515,79.1148485 23.8530303,79.5422727 26.4451515,79.7904545 C26.4451515,79.9834848 26.4451515,80.3143939 26.4451515,80.5763636 L26.4451515,81.3484848 C23.3277551,81.0708634 20.2293446,80.6104755 17.1659091,79.969697 C17.1659091,78.4392424 17.1659091,76.4262121 17.1659091,73.7789394 C17.1659091,71.1316667 17.1659091,68.9807576 17.1659091,67.5606061 C20.2202879,68.2001339 23.3094489,68.6605156 26.4175758,68.9393939 L26.4175758,69.615 Z" id="Path"></path>
                <path d="M48.2575758,69.1737879 C47.3889394,71.8486364 45.155303,79.4871212 44.4521212,81.8034848 L43.569697,81.8034848 C43.0733333,81.8034848 42.659697,81.8034848 42.4390909,81.8034848 C42.0530303,80.5074242 41.1292424,76.9915152 40.4260606,74.1925758 C40.1365152,73.0343939 39.8883333,71.9451515 39.7228788,71.1040909 L39.7228788,71.1040909 C39.5298485,71.9727273 39.2816667,73.144697 38.9921212,74.2339394 C38.2337879,76.9915152 37.2548485,80.424697 36.855,81.8586364 L35.9174242,81.8586364 L34.9384848,81.8586364 C34.1801515,79.3492424 32.1809091,71.9589394 31.2157576,69.2840909 L33.2012121,69.3806061 C33.3942424,70.4560606 34.58,74.6613636 35.2969697,77.5430303 C35.6416667,78.7977273 35.8622727,79.7215152 36.0139394,80.4109091 L36.0828788,80.4109091 C36.2483333,79.7077273 36.4965152,78.7839394 36.8274242,77.5430303 C37.5168182,74.7854545 38.5922727,70.9386364 38.8680303,69.504697 L40.8121212,69.504697 C41.1292424,70.8834848 42.0392424,74.62 42.7975758,77.5430303 C43.1284848,78.7287879 43.3490909,79.7215152 43.5145455,80.3833333 L43.6110606,80.3833333 C43.7627273,79.7077273 44.024697,78.7287879 44.3418182,77.5292424 C45.045,74.6889394 46.2307576,70.5112121 46.4651515,69.2565152 L48.2575758,69.1737879 Z" id="Path"></path>
                <path d="M71.1040909,66.0990909 C69.959697,68.0431818 67.2434848,73.5859091 66.3472727,75.419697 C66.3472727,77.0466667 66.3472727,78.825303 66.3472727,79.3354545 L65.4924242,79.4733333 L64.5962121,79.6112121 C64.5962121,79.1010606 64.5962121,77.3637879 64.5962121,75.7230303 C63.1423932,73.0378718 61.5452913,70.4328006 59.8118182,67.9190909 L62.0454545,67.5606061 C62.3487879,68.25 63.6724242,70.4974242 64.4445455,71.9727273 C64.8306061,72.689697 65.2166667,73.4204545 65.4648485,73.9443939 L65.6165152,73.9443939 C65.864697,73.3790909 66.2093939,72.5656061 66.6092424,71.7383333 C67.4089394,70.0010606 68.815303,67.1883333 69.0910606,66.4437879 L71.1040909,66.0990909 Z" id="Path"></path>
                <path d="M80.5212121,76.895 C76.8536364,77.6533333 74.5648485,75.7506061 74.5648485,71.5728788 C74.3024194,67.8972178 76.8847931,64.6274067 80.5212121,64.0309091 C84.0922727,63.3001515 86.4775758,64.9409091 86.4775758,69.1462121 C86.7655808,72.8722112 84.1959575,76.2151008 80.5212121,76.895 L80.5212121,76.895 Z M84.7540909,69.5598485 C84.7540909,66.2783333 83.1409091,65.0236364 80.5212121,65.5613636 C77.9015152,66.0990909 76.2745455,68.0018182 76.2745455,71.2833333 C76.2745455,74.5648485 77.8877273,75.9160606 80.5212121,75.419697 C83.154697,74.9233333 84.7540909,72.8275758 84.7540909,69.5598485 Z" id="Shape"></path>
                <path d="M99.2727273,67.5606061 C100.982424,67.4227273 101.547727,67.8087879 102.195758,69.5322727 C102.462246,70.3582039 102.775272,71.1683886 103.133333,71.9589394 L101.561515,72.2760606 C101.175455,72.345 101.120303,72.2760606 100.913485,71.5315152 C99.9759091,68.6498485 99.6863636,67.9742424 97.7974242,68.3740909 L94.0884848,69.1462121 C94.0884848,71.0627273 94.0884848,72.7172727 94.2263636,73.8065152 L92.4063636,74.1925758 C92.4063636,72.3725758 92.4063636,70.6215152 92.4063636,67.9742424 C92.4063636,65.3269697 92.4063636,63.5621212 92.4063636,61.7834848 L97.8939394,60.6666667 C100.651515,60.0875758 102.306061,60.9010606 102.306061,63.4242424 C102.376718,65.3352583 101.128179,67.045585 99.2865152,67.5606061 L99.2727273,67.5606061 Z M97.8939394,67.0366667 C99.4540513,66.8376465 100.629819,65.5207871 100.651515,63.9481818 C100.651515,62.1006061 99.755303,61.5766667 97.5078788,62.0454545 C96.3497852,62.1958559 95.209162,62.4590767 94.1022727,62.8313636 C93.6886364,63.355303 94.1022727,66.2093939 94.1022727,67.7812121 L97.8939394,67.0366667 Z" id="Shape"></path>
                <path d="M119.251364,56.6543939 C117.610606,58.4330303 114.39803,62.1695455 112.57803,64.1687879 C113.236921,64.5406547 113.876577,64.9456167 114.494545,65.3821212 C117.252121,67.2710606 118.961818,68.594697 119.596061,69.0083333 L117.638182,69.3116667 C117.312736,69.3998606 116.964746,69.3282156 116.700606,69.1186364 C115.115,67.905303 112.371212,65.8371212 110.964848,64.9822727 L110.633939,65.0512121 C110.633939,67.1469697 110.633939,68.8704545 110.702879,70.4560606 L108.924242,70.8145455 C108.924242,69.0083333 108.924242,67.229697 108.924242,64.61 C108.924242,61.990303 108.924242,60.1840909 108.924242,58.4192424 L110.730455,58.0883333 C110.661515,59.8118182 110.661515,61.7283333 110.661515,64.1825758 L110.964848,64.1825758 C111.709394,63.3690909 112.481515,62.4728788 113.267424,61.5628788 C114.784091,59.8256061 116.025,58.3227273 117.059091,57.0542424 L119.251364,56.6543939 Z" id="Path"></path>
                <path d="M141.891061,59.3568182 C141.891061,57.0266667 140.650152,55.9925758 138.251061,56.0890909 C135.85197,56.1856061 134.114697,57.6471212 134.114697,61.080303 C134.114697,64.5134848 135.85197,65.9474242 138.251061,65.864697 C140.650152,65.7819697 141.849697,64.4859091 141.849697,62.4315152 L141.849697,62.0454545 L143.51803,62.0454545 C143.51803,62.2109091 143.51803,62.3487879 143.51803,62.5418182 C143.51803,65.4924242 141.780758,67.2572727 138.237273,67.3951515 C134.693788,67.5330303 132.363636,65.6578788 132.363636,61.2457576 C132.363636,57.1921212 134.555909,54.710303 138.264848,54.5724242 C141.973788,54.4345455 143.504242,56.3648485 143.504242,59.0810606 C143.504242,59.3154545 143.504242,59.4809091 143.504242,59.715303 L141.849697,59.715303 L141.891061,59.3568182 Z" id="Path"></path>
                <path d="M149.846667,67.2710606 C149.846667,65.4924242 149.846667,63.7275758 149.846667,61.080303 C149.846667,58.4330303 149.846667,56.6406061 149.846667,54.8757576 L151.639091,54.9860606 C151.639091,56.7371212 151.639091,58.5157576 151.639091,61.1906061 C151.639091,63.8654545 151.639091,65.5889394 151.639091,67.3951515 L149.846667,67.2710606 Z" id="Path"></path>
                <path d="M166.72303,57.2748485 L166.72303,58.7777273 C165.344242,58.4054545 163.965455,58.1021212 162.738333,57.8815152 C162.738333,62.8037879 162.738333,67.7398485 162.738333,68.9118182 L161.842121,68.7325758 C161.607727,68.7325758 161.249242,68.6222727 160.973485,68.594697 C160.973485,67.5330303 160.973485,62.5831818 160.973485,57.6609091 C159.801515,57.4540909 158.408939,57.2610606 156.975,57.1093939 L156.975,55.5375758 C160.257445,55.912456 163.51317,56.4926841 166.72303,57.2748485 Z" id="Path"></path>
                <path d="M181.545,62.1143939 C179.847933,64.2381674 178.260266,66.4470961 176.788182,68.7325758 C176.788182,70.3733333 176.788182,72.1381818 176.788182,72.6621212 L175.933333,72.3587879 L175.037121,72.0554545 C175.037121,71.545303 175.037121,69.8218182 175.037121,68.1810606 C174.209848,66.1956061 171.397121,60.1289394 170.252727,58.1986364 C171.121364,58.4330303 171.548788,58.5571212 172.417424,58.8190909 C172.720758,59.6463636 174.044394,62.5004545 174.816515,64.3342424 C175.202576,65.2304545 175.588636,66.1680303 175.836818,66.8160606 L175.988485,66.8160606 C176.236667,66.3610606 176.581364,65.7268182 176.981212,65.1201515 C177.780909,63.7413636 179.187273,61.7834848 179.46303,61.1906061 C180.345455,61.6042424 180.745303,61.769697 181.545,62.1143939 Z" id="Path"></path>
                <path d="M10.3822727,92.3787879 C10.3822727,93.7575758 10.3822727,95.9222727 10.3822727,98.5557576 C10.3822727,101.189242 10.3822727,103.133333 10.3822727,104.774091 L8.61742424,104.250152 C7.88666667,102.747273 5.10151515,97.9077273 2.9230303,94.0057576 C2.39909091,92.9854545 1.88893939,91.9375758 1.54424242,91.0137879 L1.54424242,91.0137879 C1.54424242,92.0478788 1.64075758,93.0819697 1.65454545,93.9919697 C1.65454545,97.9215152 1.65454545,100.665303 1.65454545,101.768333 L0,101.106515 C0,99.5071212 0,97.5630303 0,94.9157576 C0,92.2684848 0,90.1865152 0,88.7112121 L2.0819697,89.6212121 C2.70242424,90.9172727 5.6530303,96.0877273 7.59712121,99.6587879 C8.02454545,100.430909 8.52090909,101.451212 8.89318182,102.319848 L8.89318182,102.319848 C8.81045455,101.354697 8.78287879,100.417121 8.78287879,99.5622727 C8.78287879,96.6116667 8.78287879,93.2198485 8.67257576,91.9651515 L10.3822727,92.3787879 Z" id="Path"></path>
                <path d="M26.4175758,96.1980303 C26.4175758,96.4462121 26.4175758,96.8184848 26.4175758,96.9839394 C23.7565152,96.6806061 20.9024242,96.2256061 18.8618182,95.8395455 L18.8618182,99.8793939 C21.4263636,100.36197 24.1287879,100.74803 26.279697,100.954848 C26.279697,101.285758 26.279697,102.030303 26.279697,102.333636 C24.1839394,102.071667 21.3987879,101.65803 18.8756061,101.189242 L18.8756061,105.325606 C20.9851515,105.725455 23.8530303,106.139091 26.4451515,106.387273 C26.4451515,106.594091 26.4451515,106.925 26.4451515,107.18697 L26.4451515,107.917727 C23.3261293,107.612608 20.2277156,107.124597 17.1659091,106.456212 C17.1659091,104.939545 17.1659091,102.912727 17.1659091,100.265455 C17.1659091,97.6181818 17.1659091,95.4810606 17.1659091,94.0609091 C20.2293446,94.7016876 23.3277551,95.1620755 26.4451515,95.439697 L26.4175758,96.1980303 Z" id="Path"></path>
                <path d="M48.2575758,95.7706061 C47.3889394,98.4454545 45.155303,106.083939 44.4521212,108.386515 L43.569697,108.386515 C43.0733333,108.386515 42.659697,108.386515 42.4390909,108.386515 C42.0530303,107.090455 41.1292424,103.574545 40.4260606,100.775606 C40.1365152,99.6312121 39.8883333,98.5419697 39.7228788,97.7009091 L39.7228788,97.7009091 C39.5298485,98.5557576 39.2816667,99.7415152 38.9921212,100.830758 C38.2337879,103.588333 37.2548485,107.007727 36.855,108.441667 L35.9174242,108.441667 L34.9384848,108.441667 C34.1801515,105.946061 32.1809091,98.5419697 31.2157576,95.8671212 L33.2012121,95.9774242 C33.3942424,97.0390909 34.58,101.258182 35.2969697,104.139848 C35.6416667,105.380758 35.8622727,106.318333 36.0139394,106.993939 L36.0828788,106.993939 C36.2483333,106.290758 36.4965152,105.36697 36.8274242,104.139848 C37.5168182,101.382273 38.5922727,97.5354545 38.8680303,96.0877273 L40.8121212,96.0877273 C41.1292424,97.4665152 42.0392424,101.20303 42.7975758,104.112273 C43.1284848,105.311818 43.3490909,106.290758 43.5145455,106.966364 L43.6110606,106.966364 C43.7627273,106.27697 44.024697,105.311818 44.3418182,104.098485 C45.045,101.258182 46.2307576,97.0942424 46.4651515,95.8257576 L48.2575758,95.7706061 Z" id="Path"></path>
                <path d="M71.1040909,92.6959091 C69.959697,94.64 67.2434848,100.168939 66.3472727,102.002727 C66.3472727,103.643485 66.3472727,105.408333 66.3472727,105.918485 L65.4924242,106.056364 L64.5962121,106.20803 C64.5962121,105.684091 64.5962121,103.946818 64.5962121,102.306061 C63.142309,99.6254007 61.5452018,97.0249235 59.8118182,94.5159091 L62.0454545,94.1987879 C62.3487879,94.8881818 63.6724242,97.1218182 64.4445455,98.6109091 C64.8306061,99.3278788 65.2166667,99.989697 65.4648485,100.582576 L65.6165152,100.582576 C65.864697,100.003485 66.2093939,99.2037879 66.6092424,98.3627273 C67.4089394,96.6254545 68.815303,93.8265152 69.0910606,93.0819697 L71.1040909,92.6959091 Z" id="Path"></path>
                <path d="M80.5212121,103.491818 C76.8536364,104.236364 74.5648485,102.347424 74.5648485,98.1559091 C74.3098545,94.4853497 76.8904117,91.2238121 80.5212121,90.6277273 C84.0922727,89.8969697 86.4775758,91.5377273 86.4775758,95.7292424 C86.4775758,99.9207576 84.175,102.747273 80.5212121,103.491818 Z M84.7540909,96.1428788 C84.7540909,92.8751515 83.1409091,91.6066667 80.5212121,92.1443939 C77.9015152,92.6821212 76.2745455,94.5848485 76.2745455,97.8939394 C76.2745455,101.20303 77.8877273,102.526667 80.5212121,102.030303 C83.154697,101.533939 84.7540909,99.4243939 84.7540909,96.1428788 Z" id="Shape"></path>
                <path d="M99.2727273,94.1298485 C100.982424,93.9919697 101.547727,94.3642424 102.195758,96.1015152 C102.464121,96.9222779 102.777112,97.7277705 103.133333,98.5143939 L101.561515,98.8315152 C101.175455,98.9142424 101.120303,98.8315152 100.913485,98.0869697 C99.9759091,95.205303 99.6863636,94.529697 97.7974242,94.9295455 L94.0884848,95.7154545 C94.0884848,97.6319697 94.0884848,99.2727273 94.2263636,100.36197 L92.4063636,100.74803 C92.4063636,98.9418182 92.4063636,97.1769697 92.4063636,94.529697 C92.4063636,91.8824242 92.4063636,90.1313636 92.4063636,88.3527273 L97.9215152,87.1945455 C100.679091,86.6016667 102.333636,87.4289394 102.333636,89.9521212 C102.404294,91.8631371 101.155755,93.5734638 99.3140909,94.0884848 L99.2727273,94.1298485 Z M97.8939394,93.619697 C99.4540513,93.4206768 100.629819,92.1038174 100.651515,90.5312121 C100.651515,88.6836364 99.755303,88.1734848 97.5078788,88.6422727 C96.3485534,88.7857667 95.2072424,89.0491462 94.1022727,89.4281818 C93.6886364,89.9521212 94.1022727,92.8062121 94.1022727,94.3780303 L97.8939394,93.619697 Z" id="Shape"></path>
                <path d="M119.251364,83.2512121 C117.610606,85.0298485 114.39803,88.7663636 112.57803,90.7518182 C113.074394,91.0413636 113.791364,91.4687879 114.494545,91.9789394 C117.252121,93.8678788 118.961818,95.1777273 119.596061,95.5913636 L117.638182,95.894697 C117.314903,95.9867373 116.967136,95.9202523 116.700606,95.7154545 C115.115,94.5021212 112.371212,92.4201515 110.964848,91.5790909 L110.633939,91.5790909 C110.633939,93.6748485 110.633939,95.3983333 110.702879,96.9977273 L108.924242,97.4113636 C108.924242,95.6051515 108.924242,93.8265152 108.924242,91.1930303 C108.924242,88.5595455 108.924242,86.7671212 108.924242,85.0022727 L110.730455,84.6713636 C110.661515,86.4086364 110.661515,88.3251515 110.661515,90.7656061 L110.964848,90.7656061 C111.709394,89.9521212 112.481515,89.0559091 113.267424,88.1459091 C114.784091,86.4086364 116.025,84.9057576 117.059091,83.6372727 L119.251364,83.2512121 Z" id="Path"></path>
                <path d="M141.891061,85.9536364 C141.891061,83.609697 140.650152,82.5893939 138.251061,82.6859091 C135.85197,82.7824242 134.114697,84.2439394 134.114697,87.6771212 C134.114697,91.110303 135.85197,92.5442424 138.251061,92.4477273 C140.650152,92.3512121 141.849697,91.0689394 141.849697,89.0283333 L141.849697,88.6422727 L143.51803,88.6422727 C143.51803,88.8077273 143.51803,88.9318182 143.51803,89.1386364 C143.51803,92.0754545 141.780758,93.840303 138.237273,93.9919697 C134.693788,94.1436364 132.363636,92.254697 132.363636,87.8287879 C132.363636,83.7889394 134.555909,81.2933333 138.264848,81.1554545 C141.973788,81.0175758 143.504242,82.9478788 143.504242,85.6778788 C143.504242,85.9122727 143.504242,86.0777273 143.504242,86.2983333 L142.67697,86.2983333 L141.849697,86.2983333 L141.891061,85.9536364 Z" id="Path"></path>
                <path d="M149.846667,93.8678788 C149.846667,92.0892424 149.846667,90.3106061 149.846667,87.6633333 C149.846667,85.0160606 149.846667,83.2374242 149.846667,81.4587879 L151.639091,81.5828788 C151.639091,83.3339394 151.639091,85.0987879 151.639091,87.7736364 C151.639091,90.4484848 151.639091,92.1857576 151.639091,93.9919697 L149.846667,93.8678788 Z" id="Path"></path>
                <path d="M166.72303,83.8578788 L166.72303,85.3607576 C165.344242,85.0022727 163.965455,84.6989394 162.738333,84.4783333 C162.738333,89.3868182 162.738333,94.3366667 162.738333,95.439697 L161.842121,95.2466667 L160.973485,95.1225758 C160.973485,94.0471212 160.973485,89.1110606 160.973485,84.175 C159.801515,83.9819697 158.408939,83.7889394 156.975,83.6372727 L156.975,82.1343939 C160.257171,82.5045895 163.512901,83.0802137 166.72303,83.8578788 L166.72303,83.8578788 Z" id="Path"></path>
                <path d="M181.545,88.7112121 C179.844811,90.8278406 178.257016,93.0323444 176.788182,95.3156061 C176.788182,96.9563636 176.788182,98.735 176.788182,99.2451515 L175.933333,98.9418182 L175.037121,98.6384848 C175.037121,98.1421212 175.037121,96.4048485 175.037121,94.7640909 C174.209848,92.7924242 171.397121,86.7257576 170.252727,84.7816667 L172.417424,85.4159091 C172.720758,86.2293939 174.044394,89.0972727 174.816515,90.9310606 C175.202576,91.8410606 175.588636,92.7648485 175.836818,93.4128788 L175.988485,93.4128788 C176.236667,92.9716667 176.581364,92.3374242 176.981212,91.7169697 C177.780909,90.3381818 179.187273,88.380303 179.46303,87.8012121 C180.345455,88.2424242 180.745303,88.3665152 181.545,88.7112121 Z" id="Path"></path>
                <path d="M10.3822727,118.975606 C10.3822727,120.354394 10.3822727,122.532879 10.3822727,125.152576 C10.3822727,127.772273 10.3822727,129.743939 10.3822727,131.384697 L8.60363636,130.84697 C7.87287879,129.357879 5.08772727,124.504545 2.90924242,120.602576 C2.38530303,119.596061 1.87515152,118.548182 1.53045455,117.610606 L1.53045455,117.610606 C1.53045455,118.644697 1.6269697,119.665 1.64075758,120.575 C1.64075758,124.504545 1.64075758,127.262121 1.64075758,128.351364 L0,127.703333 C0,126.103939 0,124.159848 0,121.512576 C0,118.865303 0,116.783333 0,115.294242 C0.827272727,115.652727 1.25469697,115.818182 2.0819697,116.149091 C2.70242424,117.445152 5.6530303,122.615606 7.59712121,126.186667 C8.02454545,126.972576 8.52090909,127.979091 8.89318182,128.861515 L8.89318182,128.861515 C8.81045455,127.882576 8.78287879,126.945 8.78287879,126.103939 C8.78287879,123.167121 8.78287879,119.775303 8.67257576,118.506818 C9.41712121,118.699848 9.73424242,118.796364 10.3822727,118.975606 Z" id="Path"></path>
                <path d="M26.4175758,122.794848 C26.4175758,123.04303 26.4175758,123.401515 26.4175758,123.56697 C23.7565152,123.263636 20.9024242,122.822424 18.8618182,122.422576 L18.8618182,126.476212 C21.4263636,126.958788 24.1287879,127.344848 26.279697,127.537879 C26.279697,127.868788 26.279697,128.613333 26.279697,128.916667 C24.1839394,128.654697 21.3987879,128.254848 18.8756061,127.772273 L18.8756061,131.908636 C20.9851515,132.294697 23.8530303,132.722121 26.4451515,132.970303 C26.4451515,133.163333 26.4451515,133.494242 26.4451515,133.756212 L26.4451515,134.48697 C23.3277551,134.209348 20.2293446,133.74896 17.1659091,133.108182 C17.1659091,131.577727 17.1659091,129.564697 17.1659091,126.917424 C17.1659091,124.270152 17.1659091,122.119242 17.1659091,120.699091 C20.2277156,121.367476 23.3261293,121.855487 26.4451515,122.160606 L26.4175758,122.794848 Z" id="Path"></path>
                <path d="M48.2575758,122.353636 C47.3889394,125.028485 45.155303,132.66697 44.4521212,134.983333 L43.569697,134.983333 C43.0733333,134.983333 42.659697,134.983333 42.4390909,134.983333 C42.0530303,133.687273 41.1292424,130.171364 40.4260606,127.372424 C40.1365152,126.214242 39.8883333,125.125 39.7228788,124.283939 L39.7228788,124.283939 C39.5298485,125.152576 39.2816667,126.324545 38.9921212,127.413788 C38.2337879,130.171364 37.2548485,133.604545 36.855,135.038485 L35.8484848,135.121212 C35.379697,135.121212 35.1039394,135.121212 34.8695455,135.121212 C34.1112121,132.611818 32.1119697,125.221515 31.1468182,122.546667 L33.1322727,122.643182 C33.325303,123.718636 34.5110606,127.923939 35.2280303,130.805606 C35.5727273,132.060303 35.7933333,132.984091 35.945,133.673485 L36.0139394,133.673485 C36.1793939,132.970303 36.4275758,132.046515 36.7584848,130.805606 C37.4478788,128.04803 38.5233333,124.201212 38.7990909,122.767273 L40.8121212,122.767273 C41.1292424,124.146061 42.0392424,127.882576 42.7975758,130.805606 C43.1284848,131.991364 43.3490909,132.984091 43.5145455,133.645909 L43.6110606,133.645909 C43.7627273,132.970303 44.024697,131.991364 44.3418182,130.791818 C45.045,127.951515 46.2307576,123.773788 46.4651515,122.519091 L48.2575758,122.353636 Z" id="Path"></path>
                <path d="M71.1040909,119.278939 C69.959697,121.22303 67.2434848,126.765758 66.3472727,128.599545 C66.3472727,130.226515 66.3472727,132.005152 66.3472727,132.515303 L65.4924242,132.653182 L64.5962121,132.791061 C64.5962121,132.280909 64.5962121,130.543636 64.5962121,128.902879 C63.1423932,126.21772 61.5452913,123.612649 59.8118182,121.098939 L62.0454545,120.781818 C62.3487879,121.471212 63.6724242,123.718636 64.4445455,125.193939 C64.8306061,125.910909 65.2166667,126.572727 65.4648485,127.165606 L65.6165152,127.165606 C65.864697,126.600303 66.2093939,125.786818 66.6092424,124.959545 C67.4089394,123.222273 68.815303,120.409545 69.0910606,119.665 L71.1040909,119.278939 Z" id="Path"></path>
                <path d="M80.5212121,130.074848 C76.8536364,130.833182 74.5648485,128.930455 74.5648485,124.752727 C74.2949641,121.071968 76.8791608,117.793867 80.5212121,117.19697 C84.0922727,116.466212 86.4775758,118.10697 86.4775758,122.312273 C86.7729755,126.043338 84.2015916,129.39447 80.5212121,130.074848 L80.5212121,130.074848 Z M84.7540909,122.712121 C84.7540909,119.430606 83.1409091,118.175909 80.5212121,118.713636 C77.9015152,119.251364 76.2745455,121.154091 76.2745455,124.435606 C76.2745455,127.717121 77.8877273,129.068333 80.5212121,128.57197 C83.154697,128.075606 84.7540909,126.007424 84.7540909,122.712121 Z" id="Shape"></path>
                <path d="M99.2727273,120.712879 C100.982424,120.575 101.547727,120.961061 102.195758,122.684545 C102.462246,123.510477 102.775272,124.320661 103.133333,125.111212 L101.616667,125.469697 C101.230606,125.469697 101.175455,125.469697 100.968636,124.725152 C100.031061,121.843485 99.7415152,121.167879 97.8525758,121.567727 L94.1436364,122.339848 C94.1436364,124.256364 94.1436364,125.910909 94.2815152,127.000152 L92.4615152,127.386212 C92.4615152,125.566212 92.4615152,123.815152 92.4615152,121.167879 C92.4615152,118.520606 92.4615152,116.755758 92.4615152,114.977121 L97.9766667,113.818939 C100.734242,113.239848 102.388788,114.053333 102.388788,116.576515 C102.459445,118.487531 101.210907,120.197858 99.3692424,120.712879 L99.2727273,120.712879 Z M97.8939394,120.216515 C99.4287917,120.02157 100.596283,118.743167 100.651515,117.19697 C100.651515,115.349394 99.755303,114.825455 97.5078788,115.294242 C96.3497852,115.444644 95.209162,115.707865 94.1022727,116.080152 C93.6886364,116.604091 94.1022727,119.458182 94.1022727,121.03 L97.8939394,120.216515 Z" id="Shape"></path>
                <path d="M119.251364,109.834242 C117.610606,111.612879 114.39803,115.349394 112.57803,117.348636 C113.21844,117.726573 113.839661,118.136119 114.439394,118.575758 C117.19697,120.464697 118.906667,121.788333 119.540909,122.20197 L117.58303,122.505303 C117.257584,122.593497 116.909594,122.521852 116.645455,122.312273 C115.059848,121.098939 112.316061,119.030758 110.909697,118.175909 L110.578788,118.175909 C110.578788,120.271667 110.578788,121.995152 110.647727,123.580758 L108.924242,123.994394 C108.924242,122.188182 108.924242,120.409545 108.924242,117.789848 C108.924242,115.170152 108.924242,113.363939 108.924242,111.599091 L110.730455,111.268182 C110.661515,112.991667 110.661515,114.908182 110.661515,117.362424 L110.964848,117.362424 C111.709394,116.548939 112.481515,115.652727 113.267424,114.742727 C114.784091,113.005455 116.025,111.502576 117.059091,110.234091 L119.251364,109.834242 Z" id="Path"></path>
                <path d="M141.891061,112.536667 C141.891061,110.206515 140.650152,109.172424 138.251061,109.268939 C135.85197,109.365455 134.114697,110.82697 134.114697,114.260152 C134.114697,117.693333 135.85197,119.127273 138.251061,119.044545 C140.650152,118.961818 141.849697,117.665758 141.849697,115.611364 L141.849697,115.225303 L143.51803,115.225303 C143.51803,115.390758 143.51803,115.528636 143.51803,115.721667 C143.51803,118.672273 141.780758,120.437121 138.237273,120.575 C134.693788,120.712879 132.363636,118.837727 132.363636,114.439394 C132.363636,110.385758 134.555909,107.903939 138.264848,107.766061 C141.973788,107.628182 143.504242,109.558485 143.504242,112.274697 C143.504242,112.509091 143.504242,112.674545 143.504242,112.908939 L141.849697,112.908939 L141.891061,112.536667 Z" id="Path"></path>
                <path d="M149.846667,120.450909 C149.846667,118.672273 149.846667,116.907424 149.846667,114.260152 C149.846667,111.612879 149.846667,109.820455 149.846667,108.055606 L151.639091,108.165909 C151.639091,109.91697 151.639091,111.695606 151.639091,114.370455 C151.639091,117.045303 151.639091,118.768788 151.639091,120.575 L149.846667,120.450909 Z" id="Path"></path>
                <path d="M166.72303,110.454697 L166.72303,111.957576 C165.344242,111.585303 163.965455,111.28197 162.738333,111.061364 C162.738333,115.983636 162.738333,120.919697 162.738333,122.091667 C162.462576,122.091667 162.104091,121.953788 161.842121,121.912424 C161.580152,121.871061 161.249242,121.802121 160.973485,121.774545 C160.973485,120.712879 160.973485,115.76303 160.973485,110.840758 C159.801515,110.633939 158.408939,110.440909 156.975,110.289242 L156.975,108.717424 C160.257445,109.092304 163.51317,109.672533 166.72303,110.454697 L166.72303,110.454697 Z" id="Path"></path>
                <path d="M181.545,115.294242 C179.847933,117.418016 178.260266,119.626945 176.788182,121.912424 C176.788182,123.553182 176.788182,125.31803 176.788182,125.84197 L175.933333,125.538636 L175.037121,125.235303 C175.037121,124.725152 175.037121,123.001667 175.037121,121.360909 C174.209848,119.375455 171.397121,113.308788 170.252727,111.378485 C171.121364,111.612879 171.548788,111.73697 172.417424,111.998939 C172.720758,112.826212 174.044394,115.680303 174.816515,117.514091 C175.202576,118.410303 175.588636,119.347879 175.836818,119.995909 L175.988485,119.995909 C176.236667,119.540909 176.581364,118.906667 176.981212,118.3 C177.780909,116.921212 179.187273,114.963333 179.46303,114.370455 C180.345455,114.784091 180.745303,114.949545 181.545,115.294242 Z" id="Path"></path>
            </g>
        </g>
    </g>
</svg>