<?xml version="1.0" encoding="UTF-8"?>
<svg width="182px" height="166px" viewBox="0 0 182 166" version="1.1" xmlns="http://www.w3.org/2000/svg" xmlns:xlink="http://www.w3.org/1999/xlink">
    <!-- Generator: Sketch 63.1 (92452) - https://sketch.com -->
    <title>1Asset 4</title>
    <desc>Created with Sketch.</desc>
    <g id="Home-&amp;-Utility-Pages" stroke="none" stroke-width="1" fill="none" fill-rule="evenodd">
        <g id="Homepage-2" transform="translate(-200.000000, -3861.000000)" fill="#FFFFFF" fill-rule="nonzero">
            <g id="1Asset-4" transform="translate(200.000000, 3861.000000)">
                <path d="M8.35475578,21.8715221 C10.1912682,22.6538293 11.5138263,24.3443492 11.8637532,26.3567921 C12.3650386,28.0752864 12.6992288,29.2954173 13,30 L11.0951157,29.3469722 C10.6439589,29.1923077 10.5604113,28.9860884 10.3264781,27.9893617 C9.17352185,23.7618658 8.83933162,22.7307692 6.53341902,21.7684124 C4.74550129,20.99509 3.84318766,20.5826514 2.03856041,19.6890344 C2.03856041,22.0949264 2.03856041,24.1743044 2.20565553,25.6006547 C1.32005141,25.1710311 0.885604113,24.9304419 0,24.4664484 C0,22.2324059 0.0835475578,20.0842881 0.0835475578,16.7847791 C0.0835475578,13.48527 0,11.2512275 0,9 C2.1682347,10.1877388 4.39969157,11.2491522 6.68380463,12.1792144 C10.0257069,13.6227496 12.0308483,15.6162029 12.0308483,18.8126023 C12.0308483,21.2356792 10.877892,22.3355155 8.38817481,21.8027823 L8.35475578,21.8715221 Z M6.56683805,20.1530278 C8.85604113,21.1153846 10.0089974,20.1530278 10.0089974,18.4345336 C10.0089974,16.1317512 8.93958869,14.997545 6.2159383,13.7602291 C5.38046272,13.3993453 2.13881748,11.8870704 2.08868895,11.9214403 C1.92618032,13.9687715 1.92618032,16.0263185 2.08868895,18.0736498 C2.7403599,18.4001637 4.59511568,19.3109656 6.55012853,20.1358429 L6.56683805,20.1530278 Z" id="Shape"></path>
                <path d="M30.9509658,18.4798793 C30.9345254,18.7988964 30.9345254,19.1186087 30.9509658,19.4376258 C27.7964339,19.1810865 24.4130758,18.6851107 21.9940565,18.2062374 L21.9940565,23.2173038 C24.9055839,23.7868585 27.8476797,24.1695314 30.8038633,24.3631791 C30.8038633,24.7736419 30.8038633,25.6971831 30.8038633,26.0734406 C28.3031204,25.8511066 25.0178306,25.4235412 22.0104012,24.8420523 L22.0104012,29.972837 C24.9847862,30.5255951 27.9857798,30.9081221 31,31.1187123 C30.9835984,31.4434354 30.9835984,31.7688383 31,32.0935614 L31,33 C27.2965589,32.7791692 23.6171538,32.2357048 20,31.3752515 C20,29.4768612 20,26.9798793 20,23.6961771 C20,20.4124748 20,17.7444668 20,16 C23.617592,16.8548534 27.2970044,17.3925981 31,17.6076459 L30.9509658,18.4798793 Z" id="Path"></path>
                <path d="M48.9566396,28.2622648 C48.9566396,26.6847267 47.9349593,25.9473991 44.0420054,25.6730446 C39.6734417,25.3643959 38.1937669,23.9583293 38.1937669,21.3691091 C38.1937669,18.7798889 40.3075881,17.2537923 44.3062331,17.0308793 C48.7452575,16.773672 50.6124661,18.1282971 50.6124661,20.906136 C50.6124661,21.3176676 50.6124661,21.5748749 50.6124661,22.0035538 L49.6260163,22.0035538 L48.604336,22.1235839 C48.604336,21.8149351 48.604336,21.471992 48.604336,21.2319319 C48.604336,19.5172165 47.3712737,18.5055345 44.2533875,18.6941532 C41.6287263,18.8313304 40.3252033,19.6543938 40.3252033,21.249079 C40.3252033,22.5694099 40.9945799,23.6325334 44.9756098,23.9068878 C49.397019,24.2155366 51,25.3129544 51,27.9364689 C51,30.5599834 48.9566396,32.7033776 44.7466125,32.9605849 C40.1490515,33.2863808 38,31.5716654 38,28.5880607 C38,28.2279705 38,27.953616 38,27.5935258 C38.3402551,27.6133659 38.6814251,27.6133659 39.0216802,27.5935258 L40.1314363,27.5935258 C40.1314363,27.8164388 40.1314363,28.0736461 40.1314363,28.2279705 C40.1314363,30.3713647 41.5582656,31.4516354 44.7289973,31.2458695 C47.899729,31.0401037 48.9566396,29.9769802 48.9566396,28.2622648 Z" id="Path"></path>
                <path d="M59,32 C59,29.7440347 59,27.505423 59,24.1735358 C59,20.8416486 59,18.6030369 59,16.3817787 L61,16 C61,18.2212581 61,20.4425163 61,23.8264642 C61,27.2104121 61,29.362256 61,31.6182213 L59,32 Z" id="Path"></path>
                <path d="M74.6197917,12.3780026 C79.5117188,11.2199127 82,12.6164329 82,18.0492374 C82,23.4820419 79.6132812,26.5646049 74.5859375,27.7226949 C72.3515625,28.2506477 71.2005208,28.5061087 69,29 C69,26.9052196 69,24.5890396 69,21.3361692 C69,18.0832989 69,15.4775964 69,13.6723385 C71.2513021,13.1784472 72.3854167,12.9229862 74.6197917,12.3780026 Z M79.9179688,18.6453131 C79.9179688,14.3195064 78.140625,13.3657853 74.5859375,14.217322 C73.4287725,14.3697652 72.2928501,14.6554848 71.2005208,15.0688588 C70.7773438,15.5968115 71.2005208,18.9007741 71.2005208,20.9274316 C71.1033976,22.8279418 71.1033976,24.7322177 71.2005208,26.6327278 C72.3541982,26.5370887 73.4914789,26.2967973 74.5859375,25.917437 C78.1236979,25.0488695 79.9179688,23.0051813 79.9179688,18.6453131 Z" id="Shape"></path>
                <path d="M100.967311,6.77166822 C100.95087,7.08458164 100.95087,7.39817698 100.967311,7.7110904 C97.8127786,8.49953402 94.4294205,9.38863001 91.9940565,10.0260951 C91.9940565,12.0055918 91.9940565,12.9953402 91.9940565,15.0587139 L100.803863,12.693383 C100.803863,13.0959925 100.803863,14.0018639 100.803863,14.3709226 C98.3031204,14.9748369 95.0178306,15.8303821 92.0104012,16.6356011 L92.0104012,21.6682199 L101,19.2525629 C100.983598,19.5710732 100.983598,19.8902502 101,20.2087605 L101,21.0978565 C96.5869242,22.221808 94.46211,22.7753961 90,24 C90,22.1211556 90,19.6551724 90,16.4342964 C90,13.2134203 90,10.6132339 90,8.91891892 C94.3967311,7.74464119 96.53789,7.14072693 101,6 L100.967311,6.77166822 Z" id="Path"></path>
                <path d="M122,2 C122,3.71428571 122,6.42285714 122,9.69714286 C122,12.9714286 122,15.3885714 122,17.4114286 L119.784288,17.8057143 C118.866844,16.3828571 115.387483,12.1485714 112.635153,8.92571429 C111.999746,8.09062381 111.421447,7.21438274 110.904128,6.30285714 L110.904128,6.30285714 C110.904128,7.55428571 111.04261,8.80571429 111.04261,9.92 C111.04261,14.8057143 111.04261,18.2171429 111.04261,19.5542857 L109,20 C109,17.9942857 109,15.5771429 109,12.2857143 C109,8.99428571 109,6.40571429 109,4.58857143 L111.613848,4.00571429 C112.39281,5.15428571 116.114514,9.40571429 118.624501,12.5771429 C119.226448,13.3744237 119.764697,14.2169778 120.234354,15.0971429 L120.234354,15.0971429 C120.130493,13.9485714 120.095872,12.8 120.078562,11.6685714 C120.078562,8.01714286 120.078562,3.81714286 119.94008,2.29142857 L122,2 Z" id="Path"></path>
                <path d="M140.903465,5.90654414 C140.903465,3.01769667 139.344059,1.75275755 136.329208,1.94078904 C133.314356,2.12882053 131.131188,4.04332299 131.131188,8.29967222 C131.131188,12.5560214 133.314356,14.2483049 136.329208,14.0431796 C139.344059,13.8380543 140.868812,12.3338024 140.868812,9.71845529 L140.868812,9.23982968 L142.965347,9.23982968 C142.965347,9.44495494 142.965347,9.59879889 142.965347,9.85520547 C142.965347,13.4961789 140.799505,15.6841817 136.329208,15.9747758 C131.858911,16.26537 129,14.0602734 129,8.57317257 C129,3.54760361 131.772277,0.333974471 136.415842,0.0262865757 C141.059406,-0.28140132 143,2.1459143 143,5.53048116 C143,5.82107528 143,6.02620054 143,6.31679467 L141.960396,6.31679467 L140.920792,6.31679467 L140.903465,5.90654414 Z" id="Path"></path>
                <path d="M162,2.516 C162,2.822 162,3.264 162,3.485 C159.035202,2.79050278 156.033394,2.27960484 153.010401,1.955 L153.010401,6.953 C156.05052,7.276 159.270431,7.82 161.820208,8.347 C161.820208,8.755 161.820208,9.673 161.820208,10.047 C158.914457,9.38017836 155.972433,8.89762242 153.010401,8.602 L153.010401,13.702 C155.527489,13.974 158.910847,14.467 161.983655,15.13 C161.983655,15.368 161.983655,15.776 161.983655,16.116 L161.983655,17 C158.37396,16.1182592 154.700132,15.5496409 151,15.3 C151,13.413 151,10.914 151,7.65 C151,4.386 151,1.751 151,0 C154.700132,0.24964087 158.37396,0.818259247 161.983655,1.7 L162,2.516 Z" id="Path"></path>
                <path d="M179.952894,19.5727152 C179.952894,17.9639828 178.955585,16.4763377 175.088829,14.3832557 C170.749664,12.0652971 169.279946,10.2835827 169.279946,7.75804575 C169.279946,5.23250879 171.379542,4.1427223 175.351279,5.76875294 C179.742934,7.58506377 181.615074,10.2835827 181.615074,13.0858908 C181.615074,13.5010476 181.615074,13.7778188 181.615074,14.1756773 L180.635262,13.6567314 L179.620458,13.18968 C179.620458,12.8956107 179.620458,12.5496467 179.620458,12.3074719 C179.620458,10.5776521 178.378197,8.84783225 175.298789,7.49857278 C172.674293,6.42608448 171.397039,6.82394304 171.397039,8.44997368 C171.397039,9.76463676 172.061911,10.9063178 176.016151,13.103189 C180.407806,15.542235 182,17.8428954 182,20.4895197 C182,23.1361441 179.882907,23.7588792 175.718708,22.0290594 C171.117093,20.1262576 169,17.9293864 169,14.9540963 C169,14.5735359 169,14.3140629 169,13.9508008 C169.325367,14.0950687 169.658274,14.2221021 169.997308,14.3313611 L171.117093,14.6773251 C171.117093,14.8849035 171.117093,15.1270782 171.117093,15.3000602 C171.117093,17.462335 172.551817,18.9672783 175.701211,20.2819414 C178.850606,21.5966044 179.952894,21.2852369 179.952894,19.5727152 Z" id="Path"></path>
                <path d="M8.35475578,54.8820639 C10.1912682,55.6650117 11.5138263,57.3569163 11.8637532,59.3710074 C12.3650386,61.0909091 12.6992288,62.3120393 13,63 C12.248072,62.7592138 11.8637532,62.6388206 11.0951157,62.3636364 C10.6439589,62.2088452 10.5604113,62.002457 10.3264781,61.004914 C9.17352185,56.7567568 8.83933162,55.7420147 6.53341902,54.7788698 C4.74550129,54.004914 3.84318766,53.5921376 2.03856041,52.6977887 C2.03856041,55.1056511 2.03856041,57.1867322 2.20565553,58.6142506 C1.32005141,58.1842752 0.885604113,57.9434889 0,57.4791155 C0,55.2432432 0.0835475578,53.0761671 0.0835475578,49.7911548 C0.0835475578,46.5061425 0.0835475578,44.2530713 0.0835475578,42 C2.25178226,43.1887115 4.48323913,44.2509942 6.76735219,45.1818182 C10.1092545,46.6265356 12.1143959,48.6216216 12.1143959,51.8206388 C12.1143959,54.2285012 10.9614396,55.3464373 8.47172237,54.8132678 L8.35475578,54.8820639 Z M6.56683805,53.1621622 C8.85604113,54.1253071 10.0089974,53.2481572 10.0089974,51.4422604 C10.0089974,49.1375921 8.93958869,48.002457 6.2159383,46.7641278 C5.38046272,46.4029484 2.13881748,44.8894349 2.08868895,44.9238329 C1.92618032,46.9728409 1.92618032,49.0320731 2.08868895,51.0810811 C2.7403599,51.4078624 4.59511568,52.3194103 6.55012853,53.1449631 L6.56683805,53.1621622 Z" id="Shape"></path>
                <path d="M30.9509658,51.5525526 C30.9345254,51.869973 30.9345254,52.1880851 30.9509658,52.5055055 C27.7964339,52.2502503 24.4130758,51.7567568 21.9940565,51.2802803 L21.9940565,56.2662663 C24.9055839,56.8329703 27.8476797,57.213728 30.8038633,57.4064064 C30.8038633,57.8148148 30.8038633,58.7337337 30.8038633,59.1081081 C28.3031204,58.8868869 25.0178306,58.4614615 22.0104012,57.8828829 L22.0104012,62.987988 C24.9839562,63.5402197 27.9853753,63.9152045 31,64.1111111 C30.9836248,64.4398859 30.9836248,64.7693233 31,65.0980981 L31,66 C27.2951184,65.7438668 23.6163494,65.1747606 20,64.2982983 C20,62.4094094 20,59.9249249 20,56.6576577 C20,53.3903904 20,50.7357357 20,49 C23.617592,49.8505748 27.2970044,50.3856281 31,50.5995996 L30.9509658,51.5525526 Z" id="Path"></path>
                <path d="M48.9566396,62.2695198 C48.9566396,60.6909655 47.9349593,59.9531629 44.0420054,59.6786317 C39.6734417,59.3697841 38.1937669,57.9628117 38.1937669,55.3719236 C38.1937669,52.7810355 40.3075881,51.2539558 44.3062331,51.0308992 C48.7452575,50.7735262 50.6124661,52.1290239 50.6124661,54.9086522 C50.6124661,55.320449 50.6124661,55.577822 50.6124661,56.006777 L49.6260163,56.006777 L48.604336,56.1268844 C48.604336,55.8180368 48.604336,55.4748728 48.604336,55.234658 C48.604336,53.5188381 47.3712737,52.5065043 44.2533875,52.6952445 C41.6287263,52.8325101 40.3252033,53.6561037 40.3252033,55.2518162 C40.3252033,56.5729976 40.9945799,57.636806 44.9756098,57.9113371 C49.397019,58.2201847 51,59.3183095 51,61.943514 C51,64.5687185 48.9566396,66.7134935 44.7466125,66.9708665 C40.1314363,67.2453976 38,65.5638941 38,62.5955256 C38,62.2352034 38,61.9606722 38,61.60035 C38.3402551,61.6202029 38.6814251,61.6202029 39.0216802,61.60035 L40.1314363,61.60035 C40.1314363,61.8234066 40.1314363,62.0807796 40.1314363,62.2352034 C40.1314363,64.3799783 41.5582656,65.4609449 44.7289973,65.2550465 C47.899729,65.0491481 48.9566396,63.9853398 48.9566396,62.2695198 Z" id="Path"></path>
                <path d="M59,65 C59,62.7440347 59,60.505423 59,57.1735358 C59,53.8416486 59,51.6030369 59,49.3817787 L61,49 C61,51.2212581 61,53.4425163 61,56.8264642 C61,60.2104121 61,62.362256 61,64.6182213 L59,65 Z" id="Path"></path>
                <path d="M74.6197917,46.3780026 C79.5117188,45.2199127 82,46.6164329 82,52.0492374 C82,57.4820419 79.6132812,60.5646049 74.5859375,61.7226949 L69,63 C69,60.9052196 69,58.5890396 69,55.3361692 C69,52.0832989 69,49.4775964 69,47.6723385 C71.2513021,47.1784472 72.3854167,46.9229862 74.6197917,46.3780026 Z M79.9179688,52.6453131 C79.9179688,48.3195064 78.140625,47.3657853 74.5859375,48.217322 C73.4287725,48.3697652 72.2928501,48.6554848 71.2005208,49.0688588 C70.7773438,49.5968115 71.2005208,52.9007741 71.2005208,54.9274316 C71.1033976,56.8279418 71.1033976,58.7322177 71.2005208,60.6327278 C72.3541982,60.5370887 73.4914789,60.2967973 74.5859375,59.917437 C78.1236979,59.0488695 79.9179688,57.0392427 79.9179688,52.6453131 Z" id="Shape"></path>
                <path d="M100.967311,39.8555452 C100.95087,40.1684586 100.95087,40.482054 100.967311,40.7949674 C97.8127786,41.583411 94.4294205,42.472507 91.9940565,43.109972 C91.9940565,45.0894688 91.9940565,46.0792171 91.9940565,48.0587139 L100.803863,45.693383 C100.803863,46.0959925 100.803863,47.0018639 100.803863,47.3709226 C98.3031204,47.9748369 95.0178306,48.8303821 92.0104012,49.6356011 L92.0104012,54.6682199 L101,52.2525629 C100.983598,52.5710732 100.983598,52.8902502 101,53.2087605 L101,54.0978565 C96.5869242,55.221808 94.46211,55.7753961 90,57 C90,55.1211556 90,52.6551724 90,49.4342964 C90,46.2134203 90,43.6132339 90,41.9189189 C94.3967311,40.7278658 96.53789,40.1407269 101,39 L100.967311,39.8555452 Z" id="Path"></path>
                <path d="M122,35 C122,36.7142857 122,39.4228571 122,42.6971429 C122,45.9714286 122,48.3885714 122,50.4114286 L119.784288,50.8057143 C118.866844,49.3828571 115.387483,45.1485714 112.635153,41.9257143 C111.999746,41.0906238 111.421447,40.2143827 110.904128,39.3028571 L110.904128,39.3028571 C110.904128,40.5542857 111.04261,41.8057143 111.04261,42.92 C111.04261,47.8057143 111.04261,51.2171429 111.04261,52.5542857 L109,53 C109,50.9942857 109,48.5771429 109,45.2857143 C109,41.9942857 109,39.4057143 109,37.5885714 L111.613848,37.0057143 C112.39281,38.1542857 116.114514,42.4057143 118.624501,45.5771429 C119.226448,46.3744237 119.764697,47.2169778 120.234354,48.0971429 L120.234354,48.0971429 C120.130493,46.9485714 120.095872,45.8 120.078562,44.6685714 C120.078562,41.0171429 120.078562,36.8171429 119.94008,35.2914286 L122,35 Z" id="Path"></path>
                <path d="M140.948276,38.8956882 C140.948276,36.003781 139.396552,34.7375021 136.396552,34.9257328 C133.396552,35.1139634 131.224138,37.0304936 131.224138,41.291351 C131.224138,45.5522084 133.396552,47.2462842 136.396552,47.0409417 C139.396552,46.8355992 140.913793,45.329754 140.913793,42.7116368 L140.913793,42.2325042 L143,42.2325042 C143,42.4378468 143,42.5918537 143,42.8485318 C143,46.4933616 140.844828,48.6836819 136.396552,48.9745838 C131.948276,49.2654857 129,47.0751654 129,41.5822529 C129,36.5513611 131.758621,33.3343282 136.37931,33.0263144 C141,32.7183006 142.931034,35.1481872 142.931034,38.5363388 C142.931034,38.8272407 142.931034,39.0325832 142.931034,39.3234852 L141.896552,39.3234852 L140.862069,39.3234852 L140.948276,38.8956882 Z" id="Path"></path>
                <path d="M162,35.431 C162,35.737 162,36.179 162,36.4 C159.036538,35.6826378 156.034717,35.1490311 153.010401,34.802 L153.010401,39.902 C156.05052,40.225 159.270431,40.769 161.820208,41.296 C161.820208,41.704 161.820208,42.622 161.820208,42.996 C158.913437,42.3463184 155.971422,41.8807953 153.010401,41.602 L153.010401,46.702 C155.527489,46.974 158.910847,47.467 161.983655,48.13 C161.983655,48.368 161.983655,48.776 161.983655,49.116 L161.983655,50 C158.37396,49.1182592 154.700132,48.5496409 151,48.3 C151,46.413 151,43.914 151,40.65 C151,37.386 151,34.751 151,33 C154.700132,33.2496409 158.37396,33.8182592 161.983655,34.7 L162,35.431 Z" id="Path"></path>
                <path d="M179.952894,52.5727152 C179.952894,50.9639828 178.955585,49.4763377 175.088829,47.3832557 C170.749664,45.0652971 169.279946,43.2835827 169.279946,40.7580458 C169.279946,38.2325088 171.379542,37.1427223 175.351279,38.7687529 C179.742934,40.5850638 181.615074,43.2835827 181.615074,46.0858908 C181.615074,46.5010476 181.615074,46.7778188 181.615074,47.1756773 L180.635262,46.6567314 L179.620458,46.18968 C179.620458,45.8956107 179.620458,45.5496467 179.620458,45.3074719 C179.620458,43.5776521 178.378197,41.7613413 175.298789,40.4985728 C172.674293,39.4260845 171.397039,39.823943 171.397039,41.4499737 C171.397039,42.7646368 172.061911,43.9063178 176.016151,46.103189 C180.407806,48.542235 182,50.8428954 182,53.4895197 C182,56.1361441 179.882907,56.7588792 175.718708,55.0290594 C171.117093,53.1089594 169,50.9293864 169,47.9540963 C169,47.5735359 169,47.3140629 169,46.9508008 C169.325367,47.0950687 169.658274,47.2221021 169.997308,47.3313611 L171.117093,47.6773251 C171.117093,47.8849035 171.117093,48.1270782 171.117093,48.3000602 C171.117093,50.462335 172.551817,51.9672783 175.701211,53.2819414 C178.850606,54.5966044 179.952894,54.2852369 179.952894,52.5727152 Z" id="Path"></path>
                <path d="M8.35475578,87.8820639 C10.1912682,88.6650117 11.5138263,90.3569163 11.8637532,92.3710074 C12.3650386,94.0909091 12.6992288,95.3120393 13,96 C12.248072,95.7592138 11.8637532,95.6388206 11.0951157,95.3636364 C10.6439589,95.2088452 10.5604113,95.002457 10.3264781,94.004914 C9.17352185,89.7567568 8.83933162,88.7420147 6.53341902,87.7788698 C4.74550129,87.004914 3.84318766,86.5921376 2.03856041,85.7149877 C2.03856041,88.1228501 2.03856041,90.2039312 2.20565553,91.6314496 C1.32005141,91.1842752 0.885604113,90.8746929 0,90.4791155 C0,88.2432432 0.0835475578,86.0761671 0.0835475578,82.7911548 C0.0835475578,79.5061425 0.0835475578,77.2530713 0.0835475578,75 C2.25178226,76.1887115 4.48323913,77.2509942 6.76735219,78.1818182 C10.1092545,79.6265356 12.1143959,81.6216216 12.1143959,84.8206388 C12.1143959,87.2285012 10.9614396,88.3464373 8.47172237,87.8132678 L8.35475578,87.8820639 Z M6.56683805,86.1621622 C8.85604113,87.1253071 10.0089974,86.1621622 10.0089974,84.4422604 C10.0089974,82.1375921 8.93958869,81.002457 6.2159383,79.7641278 C5.38046272,79.4029484 2.13881748,77.8894349 2.08868895,77.9238329 C1.92618032,79.9728409 1.92618032,82.0320731 2.08868895,84.0810811 C2.7403599,84.3906634 4.59511568,85.3194103 6.55012853,86.1449631 L6.56683805,86.1621622 Z" id="Shape"></path>
                <path d="M30.9509658,84.5525526 C30.9345254,84.869973 30.9345254,85.1880851 30.9509658,85.5055055 C27.7964339,85.2502503 24.4130758,84.7567568 21.9940565,84.2802803 L21.9940565,89.2662663 C24.9055839,89.8329703 27.8476797,90.213728 30.8038633,90.4064064 C30.8038633,90.8148148 30.8038633,91.7337337 30.8038633,92.1081081 C28.3031204,91.8868869 25.0178306,91.4614615 22.0104012,90.8828829 L22.0104012,95.987988 C24.9839562,96.5402197 27.9853753,96.9152045 31,97.1111111 C30.9836248,97.4398859 30.9836248,97.7693233 31,98.0980981 L31,99 C27.2951184,98.7438668 23.6163494,98.1747606 20,97.2982983 C20,95.4094094 20,92.9249249 20,89.6576577 C20,86.3903904 20,83.7357357 20,82 C23.5991966,82.8764181 27.2621229,83.4399187 30.9509658,83.6846847 L30.9509658,84.5525526 Z" id="Path"></path>
                <path d="M48.9566396,95.2695198 C48.9566396,93.6909655 47.9349593,92.9531629 44.0420054,92.6786317 C39.6734417,92.3697841 38.1937669,90.9628117 38.1937669,88.3719236 C38.1937669,85.7810355 40.3075881,84.2539558 44.3062331,84.0308992 C48.7452575,83.7735262 50.6124661,85.1290239 50.6124661,87.9086522 C50.6124661,88.320449 50.6124661,88.577822 50.6124661,88.9896188 L49.6260163,88.9896188 L48.604336,89.1097262 C48.604336,88.8008786 48.604336,88.4577146 48.604336,88.2174998 C48.604336,86.5016799 47.3712737,85.4893461 44.2533875,85.6609281 C41.6287263,85.8153519 40.3252033,86.6389455 40.3252033,88.234658 C40.3252033,89.5558394 40.9945799,90.6196478 44.9756098,90.8941789 C49.397019,91.2030265 51,92.3011513 51,94.9263558 C51,97.5515603 48.9566396,99.6791771 44.7466125,99.9708665 C40.1314363,100.245398 38,98.5638941 38,95.5955256 C38,95.2352034 38,94.9606722 38,94.5831918 C38.3399,94.6123999 38.6817802,94.6123999 39.0216802,94.5831918 L40.1490515,94.5317172 C40.1490515,94.7547738 40.1490515,95.0121468 40.1490515,95.1665706 C40.1490515,97.3113455 41.5758808,98.3923121 44.7466125,98.1864137 C47.9173442,97.9805153 48.9566396,96.9853398 48.9566396,95.2695198 Z" id="Path"></path>
                <path d="M59,98 C59,95.7440347 59,93.505423 59,90.1735358 C59,86.8416486 59,84.6030369 59,82.3817787 L61,82 C61,84.2212581 61,86.4425163 61,89.8264642 C61,93.2104121 61,95.362256 61,97.6182213 L59,98 Z" id="Path"></path>
                <path d="M74.6197917,79.3780026 C79.5117188,78.2199127 82,79.6164329 82,85.0492374 C82,90.4820419 79.6132812,93.5646049 74.5859375,94.7226949 L69,96 C69,93.8881889 69,91.5890396 69,88.3361692 C69,85.0832989 69,82.4775964 69,80.6723385 C71.2513021,80.1784472 72.3854167,79.9229862 74.6197917,79.3780026 Z M79.9179688,85.6453131 C79.9179688,81.3195064 78.140625,80.3657853 74.5859375,81.217322 C73.4287725,81.3697652 72.2928501,81.6554848 71.2005208,82.0688588 C70.7773438,82.5968115 71.2005208,85.9007741 71.2005208,87.9274316 C71.1033976,89.8279418 71.1033976,91.7322177 71.2005208,93.6327278 C72.3541982,93.5370887 73.4914789,93.2967973 74.5859375,92.917437 C78.1236979,92.0488695 79.9179688,90.0392427 79.9179688,85.6453131 Z" id="Shape"></path>
                <path d="M100.967311,73.7716682 C100.95087,74.0845816 100.95087,74.398177 100.967311,74.7110904 C97.8127786,75.499534 94.4294205,76.38863 91.9940565,77.0260951 C91.9940565,79.0055918 91.9940565,79.9953402 91.9940565,82.0587139 L100.803863,79.693383 C100.803863,80.0959925 100.803863,81.0018639 100.803863,81.3709226 C98.3031204,81.9748369 95.0178306,82.8303821 92.0104012,83.6356011 L92.0104012,88.6682199 L101,86.2357875 C100.983625,86.5598941 100.983625,86.8846539 101,87.2087605 L101,88.0978565 C96.5869242,89.221808 94.46211,89.7753961 90,91 C90,89.1211556 90,86.6551724 90,83.4342964 C90,80.2134203 90,77.6132339 90,75.9189189 C94.3967311,74.7278658 96.53789,74.1407269 101,73 L100.967311,73.7716682 Z" id="Path"></path>
                <path d="M122,68 C122,69.7142857 122,72.4228571 122,75.6971429 C122,78.9714286 122,81.3885714 122,83.4114286 L119.784288,83.8057143 C118.866844,82.3828571 115.387483,78.1485714 112.635153,74.9257143 C111.999746,74.0906238 111.421447,73.2143827 110.904128,72.3028571 L110.904128,72.3028571 C110.904128,73.5371429 111.04261,74.8057143 111.04261,75.92 C111.04261,80.8057143 111.04261,84.2171429 111.04261,85.5542857 L109,86 C109,83.9942857 109,81.5771429 109,78.2857143 C109,74.9942857 109,72.4057143 109,70.5714286 L111.613848,70.0057143 C112.39281,71.1542857 116.114514,75.4057143 118.624501,78.5771429 C119.226448,79.3744237 119.764697,80.2169778 120.234354,81.0971429 L120.234354,81.0971429 C120.130493,79.9485714 120.095872,78.8 120.078562,77.6685714 C120.078562,74.0171429 120.078562,69.8171429 119.94008,68.2914286 L122,68 Z" id="Path"></path>
                <path d="M140.948276,71.8956882 C140.948276,69.003781 139.396552,67.7375021 136.396552,67.9257328 C133.396552,68.1139634 131.224138,70.0304936 131.224138,74.291351 C131.224138,78.5522084 133.396552,80.2462842 136.396552,80.0409417 C139.396552,79.8355992 140.913793,78.329754 140.913793,75.7116368 L140.913793,75.2325042 L143,75.2325042 C143,75.4378468 143,75.5918537 143,75.8485318 C143,79.4933616 140.844828,81.6836819 136.396552,81.9745838 C131.948276,82.2654857 129,80.0751654 129,74.5822529 C129,69.5513611 131.758621,66.3343282 136.37931,66.0263144 C141,65.7183006 142.931034,68.1481872 142.931034,71.5363388 C142.931034,71.8272407 142.931034,72.0325832 142.931034,72.3234852 L141.896552,72.3234852 L140.862069,72.3234852 L140.948276,71.8956882 Z" id="Path"></path>
                <path d="M162,69.516 C162,69.822 162,70.264 162,70.485 C159.045967,69.7918259 156.055111,69.2809343 153.043091,68.955 L153.043091,73.953 C156.08321,74.276 159.30312,74.82 161.852897,75.347 C161.852897,75.755 161.852897,76.673 161.852897,77.047 C158.936382,76.3788172 155.983402,75.8962548 153.010401,75.602 L153.010401,80.702 C155.527489,80.974 158.910847,81.467 161.983655,82.13 C161.983655,82.368 161.983655,82.776 161.983655,83.116 L161.983655,84 C158.37396,83.1182592 154.700132,82.5496409 151,82.3 C151,80.413 151,77.914 151,74.65 C151,71.386 151,68.751 151,67 C154.700132,67.2496409 158.37396,67.8182592 161.983655,68.7 L162,69.516 Z" id="Path"></path>
                <path d="M179.952894,85.5727152 C179.952894,83.981281 178.955585,82.4936359 175.088829,80.3832557 C170.749664,78.0652971 169.279946,76.2835827 169.279946,73.7580458 C169.279946,71.2325088 171.379542,70.1427223 175.351279,71.7687529 C179.742934,73.4985728 181.615074,76.2835827 181.615074,79.0858908 C181.615074,79.5010476 181.615074,79.7778188 181.615074,80.1756773 L180.635262,79.6567314 L179.620458,79.18968 C179.620458,78.8956107 179.620458,78.5496467 179.620458,78.3074719 C179.620458,76.5776521 178.378197,74.8478322 175.298789,73.4985728 C172.674293,72.4260845 171.397039,72.823943 171.397039,74.4499737 C171.397039,75.7646368 172.061911,76.9063178 176.016151,79.103189 C180.407806,81.542235 182,83.8428954 182,86.4895197 C182,89.1361441 179.882907,89.7588792 175.718708,88.0290594 C171.117093,86.1089594 169,83.9293864 169,80.9540963 C169,80.5735359 169,80.3140629 169,79.9508008 C169.325367,80.0950687 169.658274,80.2221021 169.997308,80.3313611 L171.117093,80.6773251 C171.117093,80.8849035 171.117093,81.1270782 171.117093,81.3000602 C171.117093,83.462335 172.551817,84.9672783 175.701211,86.2819414 C178.850606,87.5966044 179.952894,87.3025351 179.952894,85.5727152 Z" id="Path"></path>
                <path d="M8.35475578,120.882064 C10.1912682,121.665012 11.5138263,123.356916 11.8637532,125.371007 C12.3650386,127.090909 12.6992288,128.312039 13,129 C12.248072,128.759214 11.8637532,128.638821 11.0951157,128.363636 C10.6439589,128.208845 10.5604113,128.002457 10.3264781,127.004914 C9.17352185,122.756757 8.83933162,121.742015 6.53341902,120.761671 C4.74550129,120.004914 3.84318766,119.592138 2.03856041,118.697789 C2.03856041,121.105651 2.03856041,123.186732 2.20565553,124.614251 C1.32005141,124.184275 0.885604113,123.943489 0,123.479115 C0,121.243243 0.0835475578,119.076167 0.0835475578,115.791155 C0.0835475578,112.506143 0.0835475578,110.253071 0.0835475578,108 C2.22458761,109.185805 4.42807998,110.248054 6.68380463,111.181818 C10.0257069,112.626536 12.0308483,114.621622 12.0308483,117.820639 C12.0308483,120.228501 10.877892,121.260442 8.38817481,120.813268 L8.35475578,120.882064 Z M6.56683805,119.162162 C8.85604113,120.125307 10.0089974,119.162162 10.0089974,117.44226 C10.0089974,115.137592 8.93958869,114.002457 6.2159383,112.746929 C5.38046272,112.402948 2.13881748,110.889435 2.08868895,110.923833 C1.92618032,112.972841 1.92618032,115.032073 2.08868895,117.081081 C2.7403599,117.390663 4.59511568,118.31941 6.55012853,119.144963 L6.56683805,119.162162 Z" id="Shape"></path>
                <path d="M30.9509658,118.56957 C30.9345254,118.88699 30.9345254,119.205102 30.9509658,119.522523 C27.7964339,119.267267 24.4130758,118.773774 21.9940565,118.297297 L21.9940565,123.283283 C24.9055839,123.849987 27.8476797,124.230745 30.8038633,124.423423 C30.8038633,124.831832 30.8038633,125.750751 30.8038633,126.125125 C28.3031204,125.903904 25.0178306,125.478478 22.0104012,124.882883 L22.0104012,129.987988 C24.9839562,130.54022 27.9853753,130.915204 31,131.111111 C30.9836248,131.439886 30.9836248,131.769323 31,132.098098 L31,133 C27.2951184,132.743867 23.6163494,132.174761 20,131.298298 C20,129.409409 20,126.924925 20,123.657658 C20,120.39039 20,117.735736 20,116 C23.617592,116.850575 27.2970044,117.385628 31,117.5996 L30.9509658,118.56957 Z" id="Path"></path>
                <path d="M48.9566396,128.272153 C48.9566396,126.69323 47.9349593,125.955255 44.0420054,125.680659 C39.6734417,125.37174 38.1937669,123.964439 38.1937669,121.372945 C38.1937669,118.781452 40.3075881,117.254015 44.3062331,117.030906 C48.7452575,116.773473 50.6124661,118.129288 50.6124661,120.909565 C50.6124661,121.321458 50.6124661,121.578892 50.6124661,121.990785 L49.6260163,121.990785 L48.604336,122.11092 C48.604336,121.802 48.604336,121.458756 48.604336,121.218485 C48.604336,119.502264 47.3712737,118.489694 44.2533875,118.661316 C41.6287263,118.815776 40.3252033,119.639562 40.3252033,121.235647 C40.3252033,122.557137 40.9945799,123.621194 44.9756098,123.89579 C49.397019,124.204709 51,125.303091 51,127.928909 C51,130.554727 48.9566396,132.717165 44.7466125,132.974598 C40.1490515,133.232031 38,131.51581 38,128.598235 C38,128.237828 38,127.963233 38,127.585664 C38.3399,127.614879 38.6817802,127.614879 39.0216802,127.585664 L40.1314363,127.585664 C40.1314363,127.808773 40.1314363,128.066206 40.1314363,128.220666 C40.1314363,130.365942 41.5582656,131.447161 44.7289973,131.241215 C47.899729,131.035268 48.9566396,129.988374 48.9566396,128.272153 Z" id="Path"></path>
                <path d="M59,131 C59,128.744035 59,126.505423 59,123.173536 C59,119.841649 59,117.603037 59,115.381779 L61,115 C61,117.221258 61,119.442516 61,122.826464 C61,126.210412 61,128.362256 61,130.618221 L59,131 Z" id="Path"></path>
                <path d="M74.6197917,112.378003 C79.5117188,111.219913 82,112.616433 82,118.049237 C82,123.482042 79.6132812,126.564605 74.5859375,127.722695 C72.3515625,128.250648 71.2005208,128.506109 69,129 C69,126.888189 69,124.58904 69,121.336169 C69,118.083299 69,115.477596 69,113.672338 C71.2513021,113.178447 72.3854167,112.922986 74.6197917,112.378003 Z M79.9179688,118.645313 C79.9179688,114.302476 78.140625,113.365785 74.5859375,114.217322 C73.4287725,114.369765 72.2928501,114.655485 71.2005208,115.068859 C70.7773438,115.596812 71.2005208,118.900774 71.2005208,120.927432 C71.1033976,122.827942 71.1033976,124.732218 71.2005208,126.632728 C72.3541982,126.537089 73.4914789,126.296797 74.5859375,125.917437 C78.1236979,125.048869 79.9179688,123.039243 79.9179688,118.645313 Z" id="Shape"></path>
                <path d="M100.967311,106.771668 C100.95087,107.084582 100.95087,107.398177 100.967311,107.71109 C97.8127786,108.499534 94.4294205,109.38863 91.9940565,110.026095 C91.9940565,112.005592 91.9940565,112.99534 91.9940565,115.058714 L100.803863,112.693383 C100.803863,113.095993 100.803863,114.001864 100.803863,114.370923 C98.3031204,114.974837 95.0178306,115.830382 92.0104012,116.635601 L92.0104012,121.66822 L101,119.235788 C100.983625,119.559894 100.983625,119.884654 101,120.20876 L101,121.097856 C96.5869242,122.221808 94.46211,122.775396 90,124 C90,122.121156 90,119.655172 90,116.434296 C90,113.21342 90,110.613234 90,108.918919 C94.3967311,107.727866 96.53789,107.140727 101,106 L100.967311,106.771668 Z" id="Path"></path>
                <path d="M122,101 C122,102.714286 122,105.422857 122,108.697143 C122,111.971429 122,114.388571 122,116.411429 L119.784288,116.805714 C118.866844,115.382857 115.387483,111.148571 112.635153,107.925714 C111.999746,107.090624 111.421447,106.214383 110.904128,105.302857 L110.904128,105.302857 C110.904128,106.537143 111.04261,107.805714 111.04261,108.92 C111.04261,113.805714 111.04261,117.217143 111.04261,118.554286 L109,119 C109,116.994286 109,114.577143 109,111.285714 C109,107.994286 109,105.405714 109,103.571429 L111.613848,103.005714 C112.39281,104.154286 116.114514,108.405714 118.624501,111.577143 C119.226448,112.374424 119.764697,113.216978 120.234354,114.097143 L120.234354,114.097143 C120.130493,112.948571 120.095872,111.8 120.078562,110.668571 C120.078562,107.017143 120.078562,102.817143 119.94008,101.291429 L122,101 Z" id="Path"></path>
                <path d="M140.903465,104.949558 C140.903465,102.072973 139.344059,100.813403 136.329208,101.000636 C133.314356,101.18787 131.131188,103.094246 131.131188,107.332529 C131.131188,111.570812 133.314356,113.255912 136.329208,113.051657 C139.344059,112.847403 140.868812,111.349536 140.868812,108.74529 L140.868812,108.268696 L142.965347,108.268696 C142.965347,108.47295 142.965347,108.626141 142.965347,108.881459 C142.965347,112.506979 140.799505,114.685694 136.329208,114.975055 C131.858911,115.264416 129,113.051657 129,107.536783 C129,102.532546 131.772277,99.3325569 136.415842,99.026175 C141.059406,98.7197931 143,101.136806 143,104.507007 C143,104.796367 143,105.000622 143,105.289983 L141.960396,105.289983 L140.920792,105.289983 L140.903465,104.949558 Z" id="Path"></path>
                <path d="M162,102.516 C162,102.822 162,103.264 162,103.468 C159.033482,102.786741 156.032099,102.281591 153.010401,101.955 L153.010401,106.953 C156.05052,107.259 159.270431,107.82 161.820208,108.347 C161.820208,108.755 161.820208,109.673 161.820208,110.047 C158.914457,109.380178 155.972433,108.897622 153.010401,108.602 L153.010401,113.702 C155.527489,113.974 158.910847,114.467 161.983655,115.13 C161.983655,115.368 161.983655,115.776 161.983655,116.099 L161.983655,117 C158.37396,116.118259 154.700132,115.549641 151,115.3 C151,113.413 151,110.914 151,107.65 C151,104.386 151,101.751 151,100 C154.700132,100.249641 158.37396,100.818259 161.983655,101.7 L162,102.516 Z" id="Path"></path>
                <path d="M179.952894,118.572715 C179.952894,116.981281 178.955585,115.493636 175.088829,113.383256 C170.749664,111.065297 169.279946,109.283583 169.279946,106.758046 C169.279946,104.232509 171.379542,103.142722 175.351279,104.768753 C179.742934,106.498573 181.615074,109.283583 181.615074,112.085891 C181.615074,112.501048 181.615074,112.777819 181.615074,113.175677 L180.635262,112.656731 L179.620458,112.18968 C179.620458,111.895611 179.620458,111.549647 179.620458,111.307472 C179.620458,109.577652 178.378197,107.847832 175.298789,106.498573 C172.674293,105.426084 171.397039,105.823943 171.397039,107.449974 C171.397039,108.764637 172.061911,109.906318 176.016151,112.103189 C180.407806,114.542235 182,116.842895 182,119.48952 C182,122.136144 179.882907,122.758879 175.718708,121.029059 C171.117093,119.108959 169,116.929386 169,113.954096 C169,113.573536 169,113.314063 169,112.950801 C169.325367,113.095069 169.658274,113.222102 169.997308,113.331361 L171.117093,113.677325 C171.117093,113.884903 171.117093,114.127078 171.117093,114.30006 C171.117093,116.462335 172.551817,117.967278 175.701211,119.281941 C178.850606,120.596604 179.952894,120.302535 179.952894,118.572715 Z" id="Path"></path>
                <path d="M8.35475578,154.882064 C10.1912682,155.665012 11.5138263,157.356916 11.8637532,159.371007 C12.3650386,161.090909 12.6992288,162.312039 13,163 C12.248072,162.759214 11.8637532,162.638821 11.0951157,162.363636 C10.6439589,162.208845 10.5604113,162.002457 10.3264781,161.004914 C9.17352185,156.756757 8.83933162,155.742015 6.53341902,154.761671 C4.74550129,154.004914 3.84318766,153.592138 2.03856041,152.697789 C2.03856041,155.105651 2.03856041,157.186732 2.20565553,158.614251 C1.32005141,158.184275 0.885604113,157.943489 0,157.479115 C0,155.243243 0.0835475578,153.076167 0.0835475578,149.791155 C0.0835475578,146.506143 0.0835475578,144.253071 0.0835475578,142 C2.22384762,143.197506 4.42735334,144.271244 6.68380463,145.216216 C10.0257069,146.660934 12.0308483,148.65602 12.0308483,151.855037 C12.0308483,154.262899 10.877892,155.29484 8.38817481,154.847666 L8.35475578,154.882064 Z M6.56683805,153.162162 C8.85604113,154.125307 10.0089974,153.162162 10.0089974,151.44226 C10.0089974,149.137592 8.93958869,148.002457 6.2159383,146.746929 C5.38046272,146.402948 2.13881748,144.889435 2.08868895,144.923833 C1.92618032,146.972841 1.92618032,149.032073 2.08868895,151.081081 C2.7403599,151.390663 4.59511568,152.31941 6.55012853,153.144963 L6.56683805,153.162162 Z" id="Shape"></path>
                <path d="M30.9509658,151.56957 C30.9345254,151.88699 30.9345254,152.205102 30.9509658,152.522523 C27.7964339,152.267267 24.4130758,151.773774 21.9940565,151.297297 L21.9940565,156.283283 C24.9055839,156.849987 27.8476797,157.230745 30.8038633,157.423423 C30.8038633,157.831832 30.8038633,158.750751 30.8038633,159.125125 C28.3031204,158.903904 25.0178306,158.461461 22.0104012,157.882883 L22.0104012,162.987988 C24.9839562,163.54022 27.9853753,163.915204 31,164.111111 C30.9836248,164.439886 30.9836248,164.769323 31,165.098098 L31,166 C27.2951184,165.743867 23.6163494,165.174761 20,164.298298 C20,162.409409 20,159.924925 20,156.657658 C20,153.39039 20,150.735736 20,149 C23.617592,149.850575 27.2970044,150.385628 31,150.5996 L30.9509658,151.56957 Z" id="Path"></path>
                <path d="M48.9566396,161.26952 C48.9566396,159.690965 47.9349593,158.953163 44.0420054,158.678632 C39.6734417,158.369784 38.1937669,156.962812 38.1937669,154.371924 C38.1937669,151.781036 40.3075881,150.253956 44.3062331,150.030899 C48.7452575,149.773526 50.6124661,151.129024 50.6124661,153.908652 C50.6124661,154.320449 50.6124661,154.577822 50.6124661,154.989619 L49.6260163,155.07541 L48.604336,155.195517 C48.604336,154.88667 48.604336,154.543506 48.604336,154.303291 C48.604336,152.587471 47.3712737,151.575137 44.2533875,151.746719 C41.6287263,151.901143 40.3252033,152.724736 40.3252033,154.320449 C40.3252033,155.64163 40.9945799,156.705439 44.9756098,156.97997 C49.397019,157.288818 51,158.386942 51,161.012147 C51,163.637351 48.9566396,165.713493 44.7466125,165.970866 C40.1314363,166.245398 38,164.563894 38,161.595526 C38,161.235203 38,160.960672 38,160.583192 C38.3399,160.6124 38.6817802,160.6124 39.0216802,160.583192 L40.1314363,160.583192 C40.1314363,160.806248 40.1314363,161.063621 40.1314363,161.218045 C40.1314363,163.36282 41.5582656,164.443787 44.7289973,164.237888 C47.899729,164.03199 48.9566396,162.98534 48.9566396,161.26952 Z" id="Path"></path>
                <path d="M59,165 C59,162.744035 59,160.505423 59,157.173536 C59,153.841649 59,151.603037 59,149.381779 L61,149 C61,151.221258 61,153.442516 61,156.809111 C61,160.175705 61,162.362256 61,164.618221 L59,165 Z" id="Path"></path>
                <path d="M74.6197917,145.378003 C79.5117188,144.219913 82,145.616433 82,151.049237 C82,156.482042 79.6132812,159.564605 74.5859375,160.705664 C72.3515625,161.250648 71.2005208,161.506109 69,162 C69,159.888189 69,157.58904 69,154.336169 C69,151.083299 69,148.477596 69,146.672338 C71.2513021,146.263601 72.3854167,145.922986 74.6197917,145.378003 Z M79.9179688,151.645313 C79.9179688,147.302476 78.140625,146.365785 74.5859375,147.217322 C73.4287725,147.369765 72.2928501,147.655485 71.2005208,148.068859 C70.7773438,148.596812 71.2005208,151.900774 71.2005208,153.927432 C71.1033976,155.827942 71.1033976,157.732218 71.2005208,159.632728 C72.3541982,159.537089 73.4914789,159.296797 74.5859375,158.917437 C78.1236979,158.048869 79.9179688,156.039243 79.9179688,151.645313 L79.9179688,151.645313 Z" id="Shape"></path>
                <path d="M100.967311,139.771668 C100.95087,140.084582 100.95087,140.398177 100.967311,140.71109 C97.8127786,141.499534 94.4294205,142.38863 91.9940565,143.026095 C91.9940565,145.005592 91.9940565,145.99534 91.9940565,148.058714 L100.803863,145.693383 C100.803863,146.095993 100.803863,147.001864 100.803863,147.370923 C98.3031204,147.974837 95.0178306,148.830382 92.0104012,149.635601 L92.0104012,154.66822 L101,152.235788 C100.983625,152.559894 100.983625,152.884654 101,153.20876 L101,154.097856 C96.5869242,155.221808 94.46211,155.775396 90,157 C90,155.121156 90,152.655172 90,149.434296 C90,146.21342 90,143.613234 90,141.918919 C94.3967311,140.727866 96.53789,140.140727 101,139 L100.967311,139.771668 Z" id="Path"></path>
                <path d="M122,135 C122,136.714286 122,139.422857 122,142.697143 C122,145.971429 122,148.388571 122,150.411429 L119.784288,150.805714 C118.866844,149.382857 115.387483,145.148571 112.635153,141.925714 C111.999746,141.090624 111.421447,140.214383 110.904128,139.302857 L110.904128,139.302857 C110.904128,140.537143 111.04261,141.805714 111.04261,142.92 C111.04261,147.805714 111.04261,151.217143 111.04261,152.537143 L109,153 C109,150.994286 109,148.577143 109,145.285714 C109,141.994286 109,139.405714 109,137.571429 L111.613848,137.005714 C112.39281,138.154286 116.114514,142.405714 118.624501,145.577143 C119.226448,146.374424 119.764697,147.216978 120.234354,148.097143 L120.234354,148.097143 C120.130493,146.948571 120.095872,145.8 120.078562,144.668571 C120.078562,141.017143 120.078562,136.817143 119.94008,135.291429 L122,135 Z" id="Path"></path>
                <path d="M140.918919,138.895442 C140.918919,136.003418 139.371007,134.737088 136.378378,134.925326 C133.385749,135.113565 131.218673,137.030172 131.218673,141.291202 C131.218673,145.552231 133.385749,147.246375 136.378378,147.041025 C139.371007,146.835674 140.884521,145.329768 140.884521,142.711545 L140.884521,142.232393 L142.965602,142.232393 C142.965602,142.437744 142.965602,142.591757 142.965602,142.848445 C142.965602,146.493422 140.815725,148.683831 136.378378,148.974745 C131.941032,149.265658 129,147.058137 129,141.582115 C129,136.55102 131.751843,133.333858 136.361179,133.025831 C140.970516,132.717805 143,135.199127 143,138.621641 C143,138.912555 143,139.117906 143,139.408819 C142.656242,139.391405 142.311817,139.391405 141.968059,139.408819 L140.936118,139.408819 L140.918919,138.895442 Z" id="Path"></path>
                <path d="M162,135.499 C162,135.805 162,136.247 162,136.451 C159.033482,135.769741 156.032099,135.264591 153.010401,134.938 L153.010401,139.902 C156.05052,140.208 159.270431,140.769 161.820208,141.296 C161.820208,141.704 161.820208,142.622 161.820208,142.996 C158.913437,142.346318 155.971422,141.880795 153.010401,141.602 L153.010401,146.702 C155.527489,146.974 158.910847,147.467 161.983655,148.13 C161.983655,148.368 161.983655,148.776 161.983655,149.099 L161.983655,150 C158.37396,149.118259 154.700132,148.549641 151,148.3 C151,146.413 151,143.914 151,140.65 C151,137.386 151,134.751 151,133 C154.700132,133.249641 158.37396,133.818259 161.983655,134.7 L162,135.499 Z" id="Path"></path>
                <path d="M179.952894,152.572715 C179.952894,150.981281 178.955585,149.493636 175.088829,147.383256 C170.749664,145.065297 169.279946,143.283583 169.279946,140.758046 C169.279946,138.232509 171.379542,137.142722 175.351279,138.768753 C179.742934,140.498573 181.615074,143.283583 181.615074,146.085891 C181.615074,146.501048 181.615074,146.777819 181.615074,147.175677 L180.635262,146.656731 L179.620458,146.18968 C179.620458,145.895611 179.620458,145.549647 179.620458,145.307472 C179.620458,143.577652 178.378197,141.847832 175.298789,140.498573 C172.674293,139.426084 171.397039,139.823943 171.397039,141.449974 C171.397039,142.764637 172.061911,143.906318 176.016151,146.103189 C180.407806,148.542235 182,150.842895 182,153.48952 C182,156.136144 179.882907,156.758879 175.718708,155.029059 C171.117093,153.108959 169,150.929386 169,147.954096 C169,147.573536 169,147.314063 169,146.950801 C169.325367,147.095069 169.658274,147.222102 169.997308,147.331361 L171.117093,147.677325 C171.117093,147.884903 171.117093,148.127078 171.117093,148.30006 C171.117093,150.462335 172.551817,151.967278 175.701211,153.281941 C178.850606,154.596604 179.952894,154.302535 179.952894,152.572715 Z" id="Path"></path>
            </g>
        </g>
    </g>
</svg>